<svg xmlns="http://www.w3.org/2000/svg" viewBox="0 0 215.8 129.4">

    <g id="Layer_2" data-name="Layer 2">
        <g id="Layer_1-2" data-name="Layer 1">
            <path d="M82.78,32.67C101.67,31.82,102.63,32,99,52.53c-2.14,12-7.63,23.52-12.33,35-.9,2.2-5.37,4.56-7.83,4.22-20.57-2.81-41-6.47-61.59-9.38C.48,80-2.35,63.88,1.55,52.79A300.33,300.33,0,0,1,15.79,19.86c4.79-9.69,26.15-13.23,34.37-6.19.53.46.52,1.8.44,2.69-.14,1.46-.67,2.88-.82,4.33-1.41,14.41-1.47,14.8-16,12.3-7-1.21-10.77,1.45-13.56,7.1-1.26,2.53-2.16,5.3-3.76,7.59-6.37,9.1-2.6,12.94,7,14.3C40.73,64.44,58,67.17,75.27,69.52c4.77.65,12.16-9.34,10.56-13.95-.26-.75-2-1.44-3-1.42-4.81.1-9.62.45-14.43.7-.66,0-1.87.09-1.9-.06C65.3,48.89,63.8,43,63.33,37c-.1-1.3,3.43-3.85,5.52-4.14C73.41,32.24,78.12,32.68,82.78,32.67Z"/>
            <path d="M192.28,82.57l-30.51,6.26.1,1.29,34.22-1.93.37,1.46-66.22,18.18c-25.41,7-50.83,13.85-76.21,20.91-8.94,2.49-13.19-2.31-16.08-9.62-.06-.16,0-.35-.09-.49-4-8.54-5-11.48,7.89-10.58C58.93,109,72.58,102.88,86,100Q150.5,86,215,72.15c.44-.1.95.1.77.07l-92,18.93c.22,1.14.43,2.27.65,3.4l67.72-13Z"/>
            <path d="M112.47,0c7.18,2.57,12.44,3.89,17.11,6.34,2.77,1.47,7.7,4.37.85,7.83-.66.34-.82,2.46-.59,3.63,3.66,19.05,7.07,38.15,11.32,57.07,1.78,7.92-2.3,7.75-7.82,8.37-12.44,1.42-12.6-8-13.89-15.65C116,47.28,113.18,26.87,110.3,6.47,110.07,4.9,111.38,3.1,112.47,0Zm7.8,54.81,1.62-.33Q119.58,40.23,117.28,26l-1.38.24Q118.07,40.51,120.27,54.81Z"/>
        </g>
    </g>
</svg>