<svg xmlns="http://www.w3.org/2000/svg" viewBox="0 0 142.27 152.93"><g id="Layer_2" data-name="Layer 2"><g id="Layer_1-2" data-name="Layer 1"><path d="M11.09,4.11c11,5.53,22.17,10.73,33,16.65,28.42,15.61,58.69,25.69,90.52,31.42,1.74.32,3.23,2,4.84,3-1.09,1.13-2.13,2.31-3.27,3.38-20,18.83-33.92,40.55-32.73,69.39,0,1.17.08,2.33.1,3.5.11,11.2-8.57,19.6-19.42,16.6-13.24-3.67-24.38,1.37-36.37,4.59-4.36,1.18-9.8-1.45-14.67-2.65-.55-.13-1.18-2.43-.84-3.4,16.33-47.6,0-88.82-25-128.33-.54-.84-1.28-1.55-1.82-2.39C3.57,13.1,1.8,10.31,0,7.53L9.78,6.09C10.21,5.43,10.65,4.77,11.09,4.11ZM39,33.93c.51,1.16.84,2,1.27,2.89,15.39,30.6,26.34,62,16.57,96.85-2,7.14,0,8.43,6.63,6.16,3.73-1.28,8.06-.89,11.69-2.32,2.36-.93,5.63-3.76,5.65-5.76.33-27.45,10-50.94,28.65-70.92.36-.38-1.18-3.77-2.39-4.2-8.14-2.92-16.45-5.33-24.66-8.06C68.1,43.82,53.86,39,39,33.93Z"/><path d="M80.6,11.55l8.78,3.35L89.9,14,73.78.63c18.08-3.27,32.94,7,49.06,12.3,5.36,1.77,10.73,3.52,15.94,5.64,1.47.59,3.3,2.37,3.44,3.76.74,6.94-7.47,13.44-13.72,10.86-15.18-6.28-30.25-12.8-45.35-19.25a27.5,27.5,0,0,1-2.89-1.64C80.37,12.05,80.48,11.8,80.6,11.55Z"/><path d="M78.31,84.56c-3.35-2.83-5.71-4-6.77-5.9a90.61,90.61,0,0,1-7.13-15.28c-.76-2.27.66-5.28,1.09-8,1.77,1.21,4.18,2,5.21,3.68,4,6.47,6.89,14.6,15.48,3.83,1.54-1.92,7-2.79,9.31-1.6,5.43,2.75,5.66,5.91-.6,9.51C89.05,74.22,84.3,79.49,78.31,84.56Z"/></g></g></svg>