<svg xmlns="http://www.w3.org/2000/svg" viewBox="0 0 342.58 391.23">

    <g id="Layer_2" data-name="Layer 2">
        <g id="Layer_1-2" data-name="Layer 1">
            <path d="M243.14,335c0,7.88.27,15.77-.19,23.62-.12,2.07-2.85,5.87-3.87,5.7a170.28,170.28,0,0,1-26.11-6c-1.76-.59-2.69-6.08-2.65-9.3.5-42.28,6.67-85.73-10.94-125.6-24.06-54.47-67.33-62-118-27.68C39.64,224.15,25.8,270.49,39,319.47c4.28,16,7.89,32.13,11,48.36.42,2.19-3.67,6.14-6.53,7.73-2.09,1.15-5.61-.58-8.46-.44-19.54.94-19,.9-22.19-18.19-3.23-19.39-8.41-38.46-11.4-57.88C-3.43,268.11,4.7,240.14,23,214.84c1.27-1.75.59-7.06-1.07-8.46C4.78,192-3.39,156.12,2.83,134.2c3.76-13.27,10-16.12,22.55-17.32C55,114,82.91,104.65,107.86,87.93c14.38-9.64,21.38-24.1,25-40.6.57-2.61,3-4.82,4.55-7.21,2.11,2,4.58,3.69,6.29,6,28.29,37.73,29,85.91,48.12,127.11,2.2,4.75,5.26,9.72,9.25,12.92,15.88,12.7,28.12,27.8,33.3,47.69,3.11,11.93,11.9,4.51,18,6.14,0-3.61.86-7.42,0-10.79-4.92-18.9-18.87-31.59-30.61-46.2-8-9.91-10.8-24.09-15.24-36.61-2.31-6.5-2.43-13.79-4.78-20.28-5.6-15.52-12-30.76-17.91-46.16-.57-1.49-.19-3.35-.26-5,1.69.26,4-.09,5,.89,6.35,6.31,14.86,11.88,18.12,19.61,11.23,26.6,20.56,54,30.7,81.07a34.38,34.38,0,0,0,4.12,8.19c10.24,14,22,27.12,30.53,42.12,5.5,9.71,9.88,15.61,22.1,16.51,21.67,1.61,22,2.45,15.31-18.68-3.18-10-6.5-20.54-12.6-28.71-4.46-6-13.19-10.69-20.71-12-13.35-2.36-20.74-12-25.19-21.46-13.76-29.4-25.21-59.88-37.48-90-.61-1.5-.5-3.29-.72-5,1.91.41,4.6.15,5.62,1.33,10.12,11.69,21.36,22.76,29.47,35.75C255.08,116.22,259,130,264.09,143c4.32,11.05,9.12,20.18,20.84,26.78,35.67,20.09,52.49,52.69,54.81,93,1.46,25.23,3.27,50.52,2.75,75.74-.33,15.82-4.53,31.58-7.4,47.29a8.36,8.36,0,0,1-4.86,5.35c-6.07,1.91-23.09-17-21.45-23.16,2.43-9.12,4.26-18.41,6.88-27.48s-1.59-11.33-9.62-13.59C292.37,323,286.37,325,287.36,341c.67,10.78-2.32,21.89-4.64,32.64-.36,1.67-7.11,4.12-8.84,3-17.29-11.09-19.66-17.69-15-37.77.66-2.82,1.7-5.64,1.77-8.48.1-3.87.75-10.09-1.16-11.16-4-2.26-9.7-2.64-14.42-1.93-1.18.17-1.44,7.38-1.86,11.38a41.76,41.76,0,0,0,.23,6.31ZM81.75,170.75c28.26-9.33,56.68-10.24,85.36-1.9.81.23,3.38-2,3.22-2.55-7.86-25.16-15.93-50.25-23.26-73.14L130.29,107c-25.72,21.25-56.62,28.45-88.65,31.74-9.83,1-14.07,5.84-13.72,14.28.61,14.84,2.42,29.64,4.1,44.42.09.73,4.38,2.14,5.57,1.4C52.51,189.61,67.22,180.06,82,170.6ZM316.32,294.23c-.37-19-5.49-22.73-25.69-21.71-1.28.07-3.48,3.2-3.44,4.86.53,19.59,4.85,23.89,24.53,23.07C314,300.36,316,294.75,316.32,294.23Zm-73-21.44c-2.78,16.66,1.83,23.76,15.2,22.12,1.67-.2,4.27-4.54,4-6.67-1.06-8.82,2.43-21.93-14.2-18.84C245.48,269.92,243.12,272.9,243.27,272.79Z"/>
            <path d="M31.39,101.25C22.8,98.68,19.09,89.82,17.3,80.16c-1.86-10-2.19-20.27-3.88-30.31C11.58,38.92,13,34,26.31,30.22,46.66,24.47,65.6,13.36,84.66,3.58c7.58-3.88,12.93-6.73,17.58,3.2,5.93,12.7,13.69,24.7,18.18,37.85,1.66,4.86-1.89,14.29-6.2,17.95C91,82.35,66,99.4,31.39,101.25ZM97.91,30.12c-1.53.69-2,.92-2.48,1.12C75.22,39.77,55,48.18,34.9,57c-1.79.8-3.78,5.18-3.09,6.75,1.53,3.46,6.24,9.18,7,8.78Q67.31,58.06,95,42.12c2.31-1.31,3.35-5.21,4.43-8.11C99.83,33,98.48,31.43,97.91,30.12Z"/>
            <path d="M205.77,295.38c-6.51,1.18-10,3-11.79,1.93-9.17-5.58-17.3-10.54-20.33-23.62-3.52-15.23-11.32-30.59-21-43.05-14.38-18.6-45.12-9.15-54.06,15.3-1.53,4.17-3.55,8.58-3.48,12.85.17,11.34-4.3,11.73-13.21,7.6-13.06-6-19.27-12.68-14-29.14,8.74-27.35,42.24-48.93,66-35.69,18.24,10.16,34.61,25.89,47.66,42.42C192.37,257.62,197,276.07,205.77,295.38Z"/>
            <path d="M72.75,289.28l64.77,14.52c4.36,1,8.85,3.1,13.08,2.67,16.66-1.71,24.19,9.23,31.11,21.26,1,1.67,2,4.23,1.36,5.62-.54,1.19-3.63,2.12-5.29,1.76-31.3-6.75-62.81-12.81-93.64-21.31-6.75-1.86-11.21-12.44-16.23-19.36C67.6,294,71.63,290.45,72.75,289.28Z"/>
            <path d="M78.92,342.44c25.25,5.77,50,13.77,75.34,16.4,16.35,1.7,18.14,15.48,27.7,22.24-2.61,2.13-5.67,6.49-7.76,6.07-23.59-4.8-47.06-10.19-70.49-15.74-11.71-2.78-24-5.12-30.48-17.16-1.54-2.85-2.32-6.12-3.45-9.19Z"/>
            <path d="M82,170.6c-7,1-14.29,3.56-21,2.54-5.75-.87-10.87-5.85-16.26-9,1.26-2,2.18-5.23,3.86-5.69,24-6.52,46.46-15.74,65.89-32,3.14-2.62,12.09-2.36,15.61.25,16.29,12.11,16.19,13-1.9,22.46C113.05,157,97.26,163.6,81.76,170.75Z"/>
        </g>
    </g>
</svg>