<svg xmlns="http://www.w3.org/2000/svg" viewBox="0 0 469.23 398.07">

    <g id="Layer_2" data-name="Layer 2">
        <g id="Layer_1-2" data-name="Layer 1">
            <path d="M82.9,357.79c-3-3.23-5.92-4.85-6.3-6.93C71.67,324,61.45,299.14,50.34,274.37,39.87,251,26.07,230,11.05,209.49,7,204,2.74,198.38.23,192.16c-1-2.51,1.55-7.59,3.93-10.16,14.7-15.86,30.89-30.45,44.53-47.14C65.93,113.76,81.15,91,97.37,69.07c4.86-6.56,10.54-12.53,15.16-19.24C119.32,40,125.29,29.51,132,19.59c4.33-6.37,8.83-12.86,14.42-18,2.29-2.11,7.85-1.72,11.64-1,27.82,5.33,55.68,10.53,83.31,16.74,37.91,8.51,75.68,17.65,113.41,27,16.17,4,31.82,10.85,48.17,13.15,11.29,1.59,10.89,7.27,13.17,15.36,8.13,28.87,17.9,57.28,26.76,86,8.79,28.44,17.21,57,25.83,85.47,1.46,4.81-.47,7.45-4.26,10.72-17.81,15.32-34.53,32-52.77,46.72-21.87,17.7-45.28,33.48-67.29,51-16.22,12.93-33.24,25.35-44,43.94-.77,1.31-4.5,1.75-6.58,1.3-14.91-3.16-29.61-7.64-44.65-9.83-26.13-3.79-52.52-5.75-78.68-9.38-25.94-3.6-51.68-8.61-77.61-12.32C85.89,365.37,81.72,363.79,82.9,357.79Zm81.52-99.05,165-55.38.6-2.41-132.2-93.82C186.81,157.24,175.87,206.81,164.42,258.74Zm-6.3,32.11c9.34,4.6,17,8.38,24.65,12.14q45.66,22.41,91.31,44.86c4.67,2.31,7.75,2.2,10.09-3.1,3.64-8.23,7.72-16.26,11.65-24.36,10.2-21,20.31-42.08,30.69-63,4.59-9.27,9.73-18.26,15.4-28.82ZM229.88,94.7l-.33,1.57L359,195.77A238.7,238.7,0,0,0,376,132c1.32-11,1.08-22.11,1.59-33.18.21-4.51-2.35-5.13-6.15-5.06-24.47.39-48.94.73-73.42.88C275.3,94.81,252.59,94.7,229.88,94.7Zm-64,23.79L56,189.87l78.82,65.35ZM428.56,249c-7.87-2.62-14.75-4.78-21.54-7.18-9.44-3.35-19-6.55-28.17-10.49-4.34-1.86-6.22-1-7.86,3-2.2,5.35-4.53,10.66-7.17,15.8-11.07,21.55-22.47,42.94-33.34,64.59-5.11,10.17-9.29,20.81-13.9,31.24l2.52,2.2C346.16,305.25,392.7,284.51,428.56,249Zm-253-176.11c-1.95-4.83-3.41-8.09-4.61-11.45-3.6-10-6.85-20.22-10.82-30.11-.81-2-4-3.84-6.36-4.25-1.28-.22-3.5,2.48-4.62,4.28-4,6.35-7.19,13.21-11.52,19.29-9.21,12.94-19.05,25.41-28.41,38.25-4.8,6.59-9.66,13.25-13.45,20.44-3.15,5.95-4.43,12.86-7.19,19-1.47,3.28-4.33,5.94-6.57,8.87C116.07,119.18,145.77,95.44,175.51,72.92Zm-.13-42.85c4.91,11.68,9.49,22,13.54,32.49,1.35,3.48,2.83,5.12,6.76,5.17,13.94.17,27.87,1,41.81,1,31.61.17,63.21.06,94.81.06l.18-2.85ZM437.54,237c-10.9-33.6-21.3-65.63-31.47-97L383.7,216.58ZM109.46,346.58c4.83.79,10.09,2.31,15.36,2.32,5.8,0,11.66-2.28,17.4-1.94,13.27.8,26.48,2.65,39.73,4,11.76,1.16,23.54,2.15,35.31,3.22l.35-1.33-82.1-40.91ZM66.85,236.79l37.54,90.56c5.9-8.47,11.75-16.85,17.41-25C110.43,273.77,89.82,253.78,66.85,236.79Z"/>
        </g>
    </g>
</svg>