<svg xmlns="http://www.w3.org/2000/svg" viewBox="0 0 253.98 379.38">

    <g id="Layer_2" data-name="Layer 2">
        <g id="Layer_1-2" data-name="Layer 1">
            <path d="M66.8,197.42c2.91-2.11,5.74-4.37,8.78-6.28s6.34-3.49,9.61-5.27c-2.83-7.17-5.57-14.09-8.59-21.73a41.36,41.36,0,0,0-2.64,4C62.28,192.48,54.25,218,51.19,244.79c-2.6,22.7-1,45.27,8.77,66.5,8.46,18.43,17.19,36.74,25.73,55.13a31.75,31.75,0,0,1,2.59,7.48c.82,4.45-1.85,6.39-6,5.08a19.68,19.68,0,0,0-7.73-1c-3.79.38-6.34-.65-7.09-4.44-.69-3.55-2.9-4.07-6.06-4.48-10.66-1.36-21.27-3.11-31.89-4.81a8.06,8.06,0,0,1-4.33-2.43c12.08-1.31,23.93,2.7,36.29,1.71a14.55,14.55,0,0,0-.52-3.64c-2.65-6-5.68-11.88-8.08-18-2-5.1-6-6.84-10.79-7.66-10.15-1.76-20.32-3.35-30.48-5.06A29.43,29.43,0,0,1,7.91,328l-.18-1.59c2.68-.37,5.44-1.33,8-1,8.74,1.09,17.42,2.66,26.14,4a34.48,34.48,0,0,0,4.57,0c-3.84-10.94-7.31-21.39-11.29-31.64-.64-1.64-3.41-3.13-5.39-3.45C22.92,293.2,16,292.66,9,291.82a50.38,50.38,0,0,1-5-1.15c1.29-3.8,4.18-4.06,6.9-3.85,6.3.48,12.57,1.27,18.86,2,3.88.43,4.54-1.94,3.86-4.86-2-8.45-3.12-16.92-1.48-25.55.87-4.6,0-6.81-5.58-6.88-8.85-.11-17.69-1.29-26.53-2,0-.77,0-1.54,0-2.3,4.69-.35,9.37-.86,14.06-1s9.64.05,14.47.08c2.67,0,4.06-1,4.64-4,1.7-8.63,3.68-17.22,5.85-25.74.88-3.5-.17-4.81-3.56-5.46-7-1.34-14-3-20.93-4.58a28.26,28.26,0,0,1-3.4-1.24c0-.64.11-1.27.16-1.91,3.78,0,7.62-.53,11.33,0a133.87,133.87,0,0,1,14.59,3.23c2.83.72,4.42.42,5.5-2.88,2.73-8.37,6-16.56,9.06-24.8,1-2.66.77-4-2.55-4.9-11.51-3.25-22.88-7-34.3-10.63A11.35,11.35,0,0,1,13,162.11c3.51-3.47,7.25-2.59,10.75-1.58q13.67,3.91,27.19,8.3c3.42,1.12,5.2.77,7-2.88,3.33-6.83,7.46-13.28,11.37-19.82,3.39-5.67,2.53-8.52-3.75-10.34-10.86-3.13-21.8-6-32.68-9a15.25,15.25,0,0,1-5.22-2.55c7-2.68,13.87-1.07,20.63.67s13.28,3.75,20,5.65c-.33-10.58-.48-20.34-1.1-30.08-.08-1.33-2.23-3.25-3.75-3.65C54.26,94.32,45,92.25,35.84,90A30.85,30.85,0,0,1,32,88.48L32,86.79c2.26-.24,4.61-1,6.76-.63,7.66,1.33,15.3,2.91,22.87,4.67,5.6,1.3,5.9,1.28,6.32-4.54C68.46,79.65,69,73,69.16,66.35a5.23,5.23,0,0,0-2.77-4c-4.58-1.41-9.37-2.15-14.06-3.25-2.12-.51-4.18-1.29-6.27-1.94.11-.67.22-1.33.32-2,4.47.27,9,.14,13.38.87C70,57.7,70,57.88,72.47,47.88a89.41,89.41,0,0,0,2.44-11.7,5.34,5.34,0,0,0-2.38-4.3c-3.51-1.71-7.34-2.74-11.87-4.33,4.53-2.94,8.41-2,12.06-.82s6,.67,6.88-3.49c.53-2.43,2.07-4.72,2.21-7.13C82.34,6.76,88.75,3,96.34.48c1.67-.56,4.77-.75,5.34.11a9.14,9.14,0,0,1,1.18,6.48,83.08,83.08,0,0,1-4.67,14.17C85.89,49,82.44,78.18,83.65,108.17c.16,4,.14,8,.24,12a6.49,6.49,0,0,0,.6,1.52c6.08-4,14.24-6.65,17.55-12.19,5-8.31,11.73-8.73,19.34-9.91,3.48-.54,7.11-.8,9.92-4.54,1.46-2,6.47-2.11,9.7-1.7,6.4.83,12.66,2.7,19,3.94a20.13,20.13,0,0,0,6.43.24c6.9-.93,12.87-.08,18,5.53,1.89,2,6.09,3.07,9.08,2.8,4.94-.46,7.83,2,10.79,5,4.49,4.54,8.79,9.3,13.56,13.53,1.32,1.18,4,1.14,6.07,1.11,4.42-.07,6.74,2.66,5.84,6.21-1.93,7.62,3.69,11.87,6.53,17.37a15.53,15.53,0,0,0,3.13,4.49c1.54,1.37,3.44,2.9,5.36,3.18,5.78.84,7.59,3.81,3.78,8.15-2.43,2.77-2.07,5.23-1.61,8.14.71,4.6,1.55,9.18,2,13.79.34,3.16-.18,6.5,4.24,7.31.41.07.79,1.88.69,2.82a7.87,7.87,0,0,1-1.33,2.65Q245.32,212.29,238,225a12.85,12.85,0,0,0-.67,2.27l6.83,1.4c-2.65,1.17-4.13,2.37-5.61,2.36-4.32,0-6.9,2.52-9.76,5.22-4.07,3.87-8.59,7.27-13.24,11.14l9.78,6.67c-5.57,2.21-9.42.44-12.74-1.65-2.91-1.83-5.28-1.69-8.36-.86-4.94,1.34-10.05,2-15.71,3.07l6.58,8.5c-6.7.92-12.05-.74-15.89-5.17-5.79-6.69-13.39-4.75-21.13-6.06.6,4.06,1,7.31,1.56,10.55.47,2.91.38,5.09-3.67,4.35-1.92-.35-5.3.66-5.72-.15a58.58,58.58,0,0,1-4-11.1c-.65-2.28,0-6-1.35-6.8-3.52-2-7.72-3-11.76-3.87-.56-.12-1.92,2.87-2.67,4.54s-.76,4.51-2,5.29c-1.9,1.16-4.63,1.25-7,1.19-.76,0-1.75-1.85-2.15-3-1.58-4.64-.2-8.51,4.81-13.57-3.47-2.58-7.07-4.92-10.26-7.72a102.16,102.16,0,0,1-9.82-9.92c-2.19-2.54-4.17-3-6.77-.92-2,1.53-3.91,3.09-6,4.49-1.35.91-2.94,2.26-4.3,2.13-1.69-.16-3.24-1.65-4.86-2.57.7-1.15,1.14-2.64,2.14-3.41,3.43-2.63,7.16-4.88,10.53-7.58a4.35,4.35,0,0,0,1.27-3.84c-1.92-5.31-4.24-10.48-6.4-15.7-1.29-3.12-2.93-4-6-1.72C78.86,196.06,73.68,199,66.8,197.42Zm118.05,45.42c7.23.22,14.3.21,20.7-4.11,21.11-14.27,31.92-47.13,22.13-68.6a172.51,172.51,0,0,0-12.77-22.47c-11.26-17.23-25.89-30.17-46.32-35.83-16.32-4.52-32.45-6.23-48.25,1.34-13.72,6.57-22.52,18.41-30.82,30.53-1,1.5-.4,4.5.13,6.64,4.23,17.09,11.85,32.82,19.8,48.41,7.68,15.07,18.55,27,33.49,35.24C156.11,241.28,170.33,242.6,184.85,242.84Z"/>
            <path d="M153.72,129c19.23,1.11,36.39,7.07,48.1,24.18,4.21,6.15,9.63,11.57,13.2,18,4,7.2,6.55,15.17,9.46,22.91a5.17,5.17,0,0,1-.92,4.53c-9.45,9.08-18.18,19.12-30.55,24.57-11.94,5.25-24.43,7.44-36.75,2.69a58.27,58.27,0,0,1-20.34-13.73c-15.22-15.28-23.41-34.45-32.35-53.32-3.92-8.28-2.26-11.5,6.27-14.51a114.44,114.44,0,0,0,16-7.29C134.5,132.46,143.4,129,153.72,129Zm-16.86,62.09a7.23,7.23,0,0,0,.54,2.35c6.35,9.7,14,18,24.63,23.2,7.64,3.78,15.72,5.32,22.84.56,8-5.38,15.14-12.24,22.3-18.85a8,8,0,0,0,2-6.69c-1.51-5.56-2.92-11.6-6.2-16.12a219.45,219.45,0,0,0-23.28-27.84c-9.14-9-21.83-12.06-33.81-9.83-9.57,1.79-18.3,8.2-27.3,12.78-.88.45-1.73,2.83-1.31,3.69,5.15,10.55,10.53,21,15.85,31.43Z"/>
            <path d="M133.08,185.79c-.72-3.57-1.69-7.1-2.11-10.7-.5-4.22.67-8.35,4.52-10.4,8.24-4.38,16-9.46,26-10.24,15.83-1.24,24.47,17.48,20.41,28.39-3.17,8.54-9.35,12.89-17.71,16-9.52,3.58-17.1,2.33-23.93-5a33.37,33.37,0,0,0-3.43-2.79Z"/>
        </g>
    </g>
</svg>