<svg xmlns="http://www.w3.org/2000/svg" viewBox="0 0 105.1 355.36">

    <g id="Layer_2" data-name="Layer 2">
        <g id="Layer_1-2" data-name="Layer 1">
            <path d="M54,125.51c7.54,1.51,14.66,3,21.83,4.33,3.36.61,4.1,1.78,2.6,5-3.4,7.35-4,7.6-12.17,6.58C54.57,140,42.86,137.34,31.12,141a52.82,52.82,0,0,0-7.31,3.15c-8.21,4-10.83,10.7-9.56,19.39,1.19,8.16,6.52,12.89,13.51,16a7.76,7.76,0,0,0,5.7-.21c11.32-5.23,22.92-4.72,34.71-2.31a80.64,80.64,0,0,0,8.9,1.21c2.9.26,3.76,1.72,3,4.38-2.18,8.07-4.83,9.3-13.23,8.77a211,211,0,0,0-31.3-.18c-5.8.49-11.52,3.46-17,5.92-4.77,2.13-5.91,5.47-3.86,10.26,3,7,7.46,13,14.48,16.6.44.22,1.16.22,1.37.56,4.54,7.15,11.4,3.4,17.34,3.64,9.44.38,18.89.49,28.33.76,3.1.08,3.71,2,2.66,4.44-1.26,2.89-2.54,5.92-4.54,8.28-1.14,1.34-3.7,2-5.66,2-12.3.5-24.66.29-36.92,1.25s-15.17,6.31-11.4,17.86c3.84,11.73,20.63,21.63,32.9,19.88,9.87-1.41,19.82-2.28,29.75-3.19,4.26-.39,5.43,1.33,3.81,5.29-1.12,2.77-2.18,5.71-4,8A9.59,9.59,0,0,1,77.26,296c-11.81,1.88-23.67,3.43-35.52,5.11a5.91,5.91,0,0,0-1.45.35c-5.59,2.42-12.65,4-13.52,11.08-1.05,8.53-1.57,17.62,7.29,23.33a89,89,0,0,0,9.84,5.84c3.05,1.45,4.15,3.11,2.4,6.19-.57,1-1,2.12-1.5,3.15-2.52,4.77-4,5.46-8.64,2.89a70.63,70.63,0,0,1-12-8c-7.35-6.39-7.93-15.52-6.61-24,1.11-7.18,4.69-14.1,7.9-20.8,1.61-3.37,1.85-5.07-1.52-7.21a67,67,0,0,1-9.25-7.6c-13.23-12.17-13-30,.54-42,4.37-3.87,3.88-3.38-.13-7.33A84.41,84.41,0,0,1,2,220.87c-3.93-6.55-1.7-14.7,4.17-21.06,2.37-2.56,6-5,6.46-7.91.32-2.11-3.74-4.82-5.74-7.35-7.11-9-8.23-21.76-1.63-31.14,8.47-12,19.08-21.76,33.63-26.2,2.64-.8,6.7-.75,7.64-2.46a23.69,23.69,0,0,0,2.57-11.44c-.29-17.48-.92-35-1.66-52.43-.49-11.74-.15-23.28,4.19-34.43C56.19,14.66,70.1,0,83.89,0c8.86,0,13.55,2.69,16.47,11.31a81.22,81.22,0,0,1,4.62,31c-1.65,27.2-3.72,54.39-5.82,81.56-.25,3.24-1.52,6.44-2.66,9.54-.35.95-1.82,1.49-2.78,2.22-.64-1.08-1.66-2.11-1.82-3.27a27.19,27.19,0,0,1,0-6c1.28-15.92,2.75-31.83,3.89-47.76.94-13.25,2.23-26.54,2-39.79-.15-8.17-2.54-16.39-4.62-24.4C92,9.71,83.84,7.57,77.48,9.5c-9.26,2.81-16.6,12.14-16.59,22.13,0,18.94.45,37.88.71,56.82.18,12.4-.19,24.69-7.34,35.58A4,4,0,0,0,54,125.51Z"/>
        </g>
    </g>
</svg>