<svg xmlns="http://www.w3.org/2000/svg" viewBox="0 0 224.05 227.34"><g id="Layer_2" data-name="Layer 2"><g id="Layer_1-2" data-name="Layer 1"><path d="M174.16,65.67c1.89,7.13,3.62,12.61,4.7,18.21.42,2.17.18,5.36-1.15,6.83-7.36,8.15-15.2,15.86-22.77,23.83-5.88,6.19-10.81,6.86-17.54,2-2.91-2.12-5.7-4.4-8.57-6.62,5.95-6.22,11.14-13.31,17.88-18.33,10.71-8,9.35-17.46,6-27.92-1.77-5.54-3.66-11.06-4.93-16.71-.37-1.65.79-4.14,2.06-5.46.73-.76,3.43-.49,4.67.26,12.38,7.45,24.61,15.15,36.93,22.68,5.54,3.38,11.53,6.12,16.72,9.95a143.23,143.23,0,0,1,15.47,13.9c.74.74.41,3.8-.5,4.79-5.92,6.35-12.23,11.9-15.9,20.49-4.26,10-11.17,18.81-17,28.1-11.31,18.07-22.44,36.26-34.08,54.11-6.62,10.15-14,19.84-21.38,29.43-1.21,1.57-4.59,2.4-6.78,2.12-11.27-1.46-19.45-6.95-26.93-16.24-12.86-16-29.26-28.48-46.85-39.29-13.15-8.09-25.87-16.86-38.93-25.09-2.9-1.83-6.46-2.59-9.65-4-6.84-2.95-6.82-5.55-3.38-12.19C18,100.16,43.39,77.45,64.15,51.1,76.71,35.17,90,19.81,102.8,4.08c3.6-4.42,6.9-5.43,12.15-2.14,9,5.61,18.67,10.1,27.66,15.71,4.65,2.9,8.5,7.13,12.54,10.93,1.08,1,1.54,2.67,2.29,4-1.73.69-3.71,2.31-5.16,1.92A92.67,92.67,0,0,1,136.4,29a41,41,0,0,1-10.06-7.26c-4.43-4.11-7.66-2.41-10.79,1.4C106.14,34.6,96.8,46.1,87.35,57.51,75.36,72,62.94,86.14,51.38,101,42.71,112.06,35,124,27.15,135.64c-.63.94,0,4.08.87,4.47C48.34,149.48,65.27,164,83.16,176.9c11.55,8.35,22.34,17.77,33.15,27.09,3.27,2.81,4.65,1.74,6.54-1q23.67-34.59,47.45-69.13c8-11.62,16.93-22.7,24.47-34.64,11.24-17.8,10.49-13-4.71-22.89C185.22,73.17,180.47,69.89,174.16,65.67Z"/><path d="M37,133.09c.91-2.77,1-4.13,1.66-4.89,8-8.72,13.06-20,24.49-25.67,3.71-1.83,6.32-5.79,9.76-8.35,1-.76,3.44-.65,4.64,0C87,99.71,96.26,105.59,105.77,111c4.45,2.54,9.45,4.11,13.93,6.62,1.33.74,2.8,3.62,2.34,4.76-3.21,7.9-6.43,15.86-10.6,23.26-3.23,5.75-7.81,10.75-11.86,16s-10.94,6.38-16.72,2.9c-12.07-7.27-24.31-14.28-36.16-21.91C42.79,140.15,39.9,136,37,133.09Zm57.56,13.62c1.47-1.56,2.91-3,4.28-4.54,3.07-3.4,3.94-6-1.81-7.68-3.09-.91-5.82-3.16-8.61-5-6.15-4-12.28-7.94-18.32-12.07-5.06-3.45-8,.38-10.32,3.46-2.91,3.83,1.62,4.5,3.65,5.86,8.7,5.8,17.49,11.48,26.26,17.18C91,144.86,92.52,145.59,94.53,146.71Z"/><path d="M126.67,93.79c-7.44-4.75-14-8.88-20.52-13.15a17.29,17.29,0,0,1-4.87-4.22c-2.08-3-3.65-5.93,1.88-7.89,3-1,5.56-3.93,7.71-6.5,2.93-3.52,5.1-4.9,9.27-1.19,5.19,4.61,11.15,8.39,16.91,12.33,2.93,2,3,4.25,1.06,6.68C134.34,84.64,130.38,89.28,126.67,93.79Z"/><path d="M140.53,136.25c-1.55,11.38-5.06,21-11.95,29.34a136,136,0,0,0-9.53,14c-1.55,2.45-3.33,5.1-6,2.33-2.21-2.28-5.27-7-4.38-8.5,6.17-10.26,10.9-21.58,20.29-29.72,2.7-2.34,4.42-5.79,6.77-8.56.77-.89,2.14-1.26,3.24-1.88Z"/></g></g></svg>