<svg xmlns="http://www.w3.org/2000/svg" viewBox="0 0 116.78 182.88"><g id="Layer_2" data-name="Layer 2"><g id="Layer_1-2" data-name="Layer 1"><path d="M6,0c1.52,2.29,2.42,3.82,3.5,5.22,5.06,6.55,10,13.16,15.38,19.48.85,1,3.77,1.4,5,.73a61,61,0,0,0,8.74-6.51C49.16,10.14,60.84,3.66,74.4,1.06,95.89-3,118,15.84,116.73,37.57c-.68,12.07-3,23.79-11.73,33.19a3.87,3.87,0,0,0-.4,3.49,25.24,25.24,0,0,1,1.8,18.44c-3.75,14.71-9.33,28.63-20.18,39.56-11.34,11.42-25,16.72-41.35,13.16-4.19-.91-8.7-.44-12.83-1.51-4.33-1.13-8.38-3.35-13.37-5.43,2.74,9,3.36,18.53,11.45,25.06,1.29,1,2.82,3.49,2.41,4.62a95.08,95.08,0,0,1-6.36,13.42c-.5.88-3.08,1.65-3.85,1.15-2.71-1.77-6.09-3.62-7.38-6.32-8.4-17.51-11.62-36-8.52-55.31.24-1.47.73-3,.45-4.42-4.95-24.3.29-47.23,9.41-69.57,1.5-3.66,1.13-5.84-1.41-8.78-4.34-5-8-10.62-12-15.93C-3.1,14.41,1.33,7.83,6,0ZM60.69,128.24C75.94,126,88.16,119.11,95.53,105a10.42,10.42,0,0,0,.82-5.3c-.63-9.41-7.3-16.34-16.94-18.32-5.18-1.07-10.24-2.72-15.38-4a13.89,13.89,0,0,0-4.87-.64c-15.76,2-28.51,9.44-38.41,21.75-.94,1.18-1.45,3.7-.84,5a78.51,78.51,0,0,0,7.94,13.73c2.33,3,5.61,6.32,9.06,7.24C44.57,126.4,52.6,127,60.69,128.24ZM75.05,21.4c-12.58.61-22.8,6.17-32.8,12.16-.55.33-.54,3.09.14,3.75,3,2.86,6.38,5.3,9.5,8,10.25,8.93,23,12.14,35.62,15.56,5.84,1.57,18.22-4.83,20.12-10.44a8.1,8.1,0,0,0-.31-4.33C104.2,34.25,87.23,21.51,75.05,21.4ZM41.18,63.17c-4.6-4.09-8.93-7.92-13.22-11.79-1.8-1.62-2.93-1.13-4.43.65-5,5.93-6.27,13.06-7,20.38-.47,4.49-.67,9-1,13.54,4.79-3.66,8.15-7.92,12-11.61C31.62,70.49,36.22,67.19,41.18,63.17Z"/></g></g></svg>