<svg xmlns="http://www.w3.org/2000/svg" viewBox="0 0 156.85 124"><g id="Layer_2" data-name="Layer 2"><g id="Layer_1-2" data-name="Layer 1"><path d="M10.79,113.45C9,112,6.47,110.82,5.59,108.92A81.38,81.38,0,0,1,0,93.13c-.38-1.66,2.19-4,3.48-6C6.65,82.27,9.64,77.32,13,72.62,24.44,56.55,36.3,40.77,47.39,24.46c4.12-6.07,7-13.14,9.53-20.08C58.06,1.25,59.79-.14,62.34,0a8.34,8.34,0,0,1,5.49,3C77.11,15.44,86.32,27.89,99.2,37c6.4,4.51,12.64,9.26,19.27,13.39a56,56,0,0,0,26.46,8.11c3.13.2,4.11,1.28,4.57,4.43a19,19,0,0,0,3.72,8.39c4.85,6.28,4.87,6.29-.12,11.85-10.22,11.39-20.92,22.45-30.13,34.63-5.33,7-11.21,6.61-18.17,5.77Q67.42,119,30,114.63c-6.1-.72-12.19-1.47-18.28-2.2Zm81.08-12c-3-6.32-5.89-11.23-7.64-16.53C78.72,68.14,73.68,51.25,68.38,34.44c-.8-2.55-2-5-3.06-7.43-1.51,2.27-3.07,4.51-4.51,6.83-11.14,17.95-22.22,36-33.41,53.87-3.16,5.07-3.19,5.2,2.85,5.94.83.1,1.66.11,2.49.21,11.88,1.32,23.77,2.53,35.63,4C75.91,98.8,83.4,100.12,91.87,101.41ZM76,29.68c5.39,16.07,10.22,31.05,15.46,45.89,2.86,8.12,6.4,16,9.67,24,.47,1.16,1.13,2.24,1.71,3.36,1.21-.68,2.69-1.11,3.58-2.09,7.08-7.72,14-15.58,21.06-23.32,1.84-2,2.27-3.2-.69-4.72-15.55-8-28.91-18.86-40.92-31.45C82.54,37.9,79.66,34.09,76,29.68Z"/></g></g></svg>