<svg xmlns="http://www.w3.org/2000/svg" viewBox="0 0 213.4 210.97"><g id="Layer_2" data-name="Layer 2"><g id="Layer_1-2" data-name="Layer 1"><path d="M79.31,14.57c-.21-1.86-1-4.29-.59-6.46.53-2.62,1.49-6.06,3.42-7.23S88-.23,90.3.9A28.41,28.41,0,0,1,99,8.19c7.3,8.82,15,17.47,21.12,27.09C125.44,43.56,129,53,132.94,62.07,139.13,76.24,145,90.55,151,104.8a23.67,23.67,0,0,1,1,2.82c2.82,10.57,2.58,9.4,13.43,7.17,12.8-2.63,19.37-11.13,25.13-21.21,2.38-4.17,3.85-8.9,6.49-12.88a11.15,11.15,0,0,1,6.75-4.43c3.71-.59,4.69,2.67,5.25,5.87.48,2.72.86,5.68,2.21,8,4.11,7,1,14.14.4,21-1.31,14.81-3.62,29.54-5.83,44.26-.2,1.33-2.5,2.89-4.1,3.36-15.63,4.56-31.63,8-46.9,13.54-20.3,7.33-40,16.33-60,24.36-11.66,4.68-23.54,8.82-35.28,13.32-6,2.3-10.73.37-14.65-4.09-5.47-6.25-10.69-12.72-16.1-19-5.59-6.52-11.34-12.92-16.88-19.48-1.5-1.78-3.93-4.37-3.48-5.86,1-3.47,2.43-7.38,7.38-7.89,10.09-1.06,20.12-2.74,30.22-3.54,4.68-.37,6.53-1.38,4.65-6.19C42.93,124.1,35.88,104,27.35,84.52,21.57,71.34,13.64,59.12,6.89,46.35A128.52,128.52,0,0,1,.14,31c-.48-1.27.36-4.17,1.34-4.6C4,25.27,7.34,24,9.49,24.89,17,28,24.1,32.12,31.45,35.64a9.47,9.47,0,0,0,5.54,1c10.75-2.16,21.35-5.32,32.18-6.74,7.32-.95,10.3-3.87,9.92-10.9C79,17.71,79.21,16.37,79.31,14.57ZM40,173.5c-.23.64-.46,1.28-.68,1.92,1.57,2.43,3.23,4.82,4.71,7.32,3,5,7,6.68,12.6,4.61,10.29-3.82,20.76-7.21,30.92-11.35,32.83-13.37,64.9-28.69,99.64-36.94,2-.48,3.34-3.67,5-5.59-2.3-.13-4.76-.84-6.89-.28-8.17,2.12-16.27,4.55-24.33,7.06-5.33,1.67-10.63,3.46-15.78,5.59-3.91,1.62-6.65,1.35-8.46-2.85-1.57-3.64-2.94-7.47-5.13-10.72-3.24-4.79-2.22-7.69,3-9.42,4.58-1.52,5.76-4.25,4-8.77C131,94.24,124.89,73.76,113.15,55.71c-1.51-2.32-2.32-5.12-3.28-7.76-2.81-7.77-7.72-14-14.87-20.72,0,6.38-.24,11.15.08,15.89.27,4.14-1,5.61-5.35,6.36-14.2,2.46-28.38,5.21-42.35,8.74-5.81,1.47-10.81,3.29-15.58-1.79-.76-.81-2.21-1-4.37-1.87.72,2.24,1,3.46,1.49,4.58C41.67,88.61,54.56,118,67.11,147.57c2.44,5.75,3.67,12,5.24,18.13.51,2,1.25,5.16.27,6.11-1.42,1.36-4.31,1.58-6.59,1.62C57.35,173.6,48.67,173.5,40,173.5Z"/><path d="M97.28,65c1.17,1.33,4.09,3.11,4.57,5.4,2.4,11.36,4.79,22.79,5.84,34.31.43,4.68-2.56,9.67-4,14.52-2.28-1-5.66-1.47-6.62-3.23a42.33,42.33,0,0,1-4.3-12.63c-2-10.76-3.66-21.57-5-32.42C87.07,65.15,92,65.65,97.28,65Z"/><path d="M77.65,96.18c-1.11,6.88-1.93,12.36-3,17.78-.07.37-3,.8-3.21.4-2.88-4.88-6.17-9.67-8-15s-1.9-11.11-3.24-16.58c-.92-3.75.24-5.81,3.71-6.72,4-1.07,8.65-1.61,10.22,3.13C76.06,85.18,76.73,91.55,77.65,96.18Z"/></g></g></svg>