<svg xmlns="http://www.w3.org/2000/svg" viewBox="0 0 181.46 306.32"><g id="Layer_2" data-name="Layer 2"><g id="Layer_1-2" data-name="Layer 1"><path d="M178.27,174.11c-6.08,7.94-7.08,17-17.25,17.19-.59,0-1.15,1.57-1.73,2.42,1.09.45,2.22,1.36,3.28,1.28,5.25-.39,10.49-1.23,15.75-1.42,1.06,0,3.34,2.69,3.13,3-3.6,6.41-6.08,14-15,15.39-.77.12-2,3-1.61,4.12,4.19,11.49,8.84,22.82,12.93,34.36.82,2.33.74,5.94-.54,7.92-9.61,14.85-72.33,38.15-87.33,40.59a17.05,17.05,0,0,0-9.34,4.76c-3.94,4.36-7.29,2.42-9.54-.57-1.65-2.19-2.79-7-1.53-8.78,7.52-10.92,15.94-21.22,23.72-32,1.52-2.1,2.84-5.74,2.07-7.89C79.28,210,79.1,163.4,76.71,117.08c-.3-5.75-1.7-7.81-7.73-7.35a176,176,0,0,0-60.1,15.1c-1.79.81-5.86-1-7.45-2.82-1.39-1.6-1.95-5.7-.85-7.4,8-12.36,17.35-23.9,24.27-36.78,2.8-5.22,1-13.19.48-19.84-.78-10.27-2.42-20.48-3.22-30.74-.12-1.56,2-3.8,3.62-4.9,17.05-11.52,36.78-2.59,54.67-7,15.51-3.83,30.58-9.41,45.9-14,2.83-.85,5.91-.88,8.87-1.29a56.15,56.15,0,0,0-.51,6.94,59.65,59.65,0,0,0,1.1,8.84c1.51,7.48,3.35,14.89,4.75,22.39,1,5.25,3,8.62,9.11,8.86,2.68.11,5.28,2.29,7.93,3.53-2.52,2.33-4.92,4.8-7.6,6.92-.89.71-2.48.55-4,.84.22,2,.5,3.78.59,5.56.26,5.44,1.37,9.2,8.23,6,1.62-.76,4.25.64,6.41,1-1.42,2.33-2.4,6.14-4.32,6.7-6,1.76-6.67,5.43-6.36,10.79,1.5,26.39,2.86,52.79,3.88,79.21.2,5.35,3.17,5.25,6.77,5.43C166.09,173.29,171,173.65,178.27,174.11ZM155.8,261.5c-15.58-41.3-18.42-70.88-20.43-119.42-1.18-28.48-5.29-56.89-9-85.2-1.7-13-5.62-25.76-8.57-38.79-9.18,3.31-17.08,7.53-25.43,8.85-14.58,2.3-29.44,2.71-44.15,4.22-1.38.14-3.68,2.58-3.6,3.83A99.12,99.12,0,0,0,47,52.26C50,64.55,49,75,38.44,84,33,88.65,29.86,96,25,103c11.36-3.11,20.69-6.3,30.28-8.13C68,92.45,80.82,91,93.62,89.46c1-.12,3.18,2.34,3.22,3.66C97,99,96.31,105,96.5,110.87c1.52,44.85.84,90,19,132.51,2.87,6.72,1.57,12.75-3.41,18.31-4,4.51-7.5,9.54-12.79,16.38Z"/><path d="M66.9,68.86A76.63,76.63,0,0,1,61.23,60c-.17-.36,3-2.54,4.82-3.65q4.1-2.56,8.39-4.78c2-1,4.63-2.92,6.25-2.35a7.17,7.17,0,0,1,3.85,5.55c0,1.84-2.31,4-4.13,5.38C76.44,63.07,72.14,65.54,66.9,68.86Z"/></g></g></svg>