<svg xmlns="http://www.w3.org/2000/svg" viewBox="0 0 247.88 241.16"><g id="Layer_2" data-name="Layer 2"><g id="Layer_1-2" data-name="Layer 1"><path d="M211.92,188.76c-10.11-.81-15.52-7.14-19.92-14.43-3.7-6.11-6.7-12.64-10.15-18.91-.58-1-1.87-1.71-2.83-2.56-.89,1.09-2.45,2.11-2.55,3.26-.37,4-1.2,8.42-.12,12.17,4.23,14.72,9,29.27,13.82,43.82,2.53,7.67,5.53,15.19,8.17,22.82.43,1.25.06,2.78.07,4.18-1.72-.07-3.91.53-5.07-.3-6.45-4.63-12.23-9.35-14.86-17.86-3.63-11.77-11.86-21-20.66-29.63-3.25-3.16-5.78-2.27-7.3,1.35a16.44,16.44,0,0,0-1.22,7.73c.45,4.41.62,9.37,2.8,12.94,3.11,5.1-.29,9.59.47,14.26-1.73.22-4.34,1.27-5.06.52a100.68,100.68,0,0,1-9.62-11.86c-2.84-4.09-5-8.66-7.81-12.76-2-2.84-4.41-2.56-5.4.86a29.49,29.49,0,0,0-1.29,9.3c.33,7.47,1,14.93,1.84,22.35.4,3.53-.56,4.14-3.82,3.21-1.22-.35-2.82.74-4.28,1-1.76.35-4.35,1.4-5.19.63-3.6-3.29-7.86-6.62-9.75-10.88C95,213.77,88.58,197.2,82,180.71c-1.32-3.3-3.17-3.09-5.89-2-9.52,3.76-9.55,3.7-16.32-4.45-6.16-7.41-5.48-9.24,2.92-13.94,8.08-4.52,16.17-9.3,23.4-15,16.79-13.34,34.14-26,48.38-42.38,11.79-13.58,16.34-29.77,18-46.71,1.81-18.52-17.69-37.35-36.29-37.79-25.4-.6-47.5,9.07-68.59,21.44-6.24,3.65-11,10.09-16,15.64S22.39,66.74,18,72.55c-2.14,2.81-4.51,3.48-7,1A118.35,118.35,0,0,1,.25,61.5c-.7-.92.19-3.74,1.15-5.14,18.53-27,44-44.21,75.56-52C88,1.63,99.54.57,110.91,0,120.7-.44,129,4.86,137,10.12c2,1.28,4.4,1.82,6.55,2.84,1.56.74,3.39,1.4,4.44,2.64C171.24,43.25,194.34,71,217.63,98.65c6.51,7.72,13.93,14.7,20.21,22.6,3.94,5,6.91,10.82,9.61,16.61,1.6,3.41-1.53,5.87-5.59,4.52s-8.18-3.07-11.5.93c-3.45,4.17-2.86,8.87-.89,13.66.94,2.28,1.14,4.86,1.67,7.3-2.45-1.05-5.24-1.66-7.28-3.24-6.43-4.94-12.52-10.31-18.88-15.35-1.16-.91-3.85-1.81-4.29-1.32a7.25,7.25,0,0,0-1.68,4.89,33,33,0,0,0,1.72,9.27c3.43,9.26,7.19,18.39,10.8,27.59A14.46,14.46,0,0,1,211.92,188.76ZM165.22,48.45l-1.74,1.22c9.54,31.05,32,54,49.58,79.61l10.19-8.5ZM134.05,135.5c-5.32,4.15-10,8.11-15.05,11.63-3.09,2.16-3,4.12-1.29,7.07,4.28,7.52,8.3,15.2,12.43,22.8,1,1.92,2.13,3.81,3.83,6.83,3.12-10.32,7-17.84,20.18-12.32ZM106.21,212l1.86-.65c-.32-2.06-.5-4.15-1-6.17-2.37-10.15.77-17,9.93-22.44,1.08-.65,2-3.51,1.46-4.63-2.91-6.15-6.32-12.07-9.48-18.1-1.35-2.58-2.87-2.74-5.07-.92-4.48,3.71-9.2,7.14-13.55,11a5,5,0,0,0-1,4.49c3.57,8.76,7.39,17.42,11.25,26.06C102.34,204.47,104.34,208.2,106.21,212ZM166.72,80.67c-2.35,7.56-4.47,14-6.26,20.5-.31,1.14.52,2.84,1.28,4,3.44,5.1,7.06,10.07,10.58,15.11,3.25,4.65,6.46,9.33,10.26,14.82,2.11-7.69,4.5-13.43,13-12.26ZM160,158.89c.44-2,.77-2.59.68-3.14a27.52,27.52,0,0,1,5.14-22.15,3.59,3.59,0,0,0,.58-3.07c-3.35-6-6.91-12-10.8-18.59-2.25,2.42-4,4.11-5.53,6-10,12.26-9,7.16-2.16,20.52C151.35,145.13,155.54,151.42,160,158.89Z"/><path d="M139.76,59.18l-2.41-1.29c0,3.56-.19,6.92,0,10.24.84,12.08-5.14,21.47-12.19,30.22-14,17.4-32.35,28.37-53.67,34.56a9.7,9.7,0,0,1-3.91.58c-14.87-2.21-29.21-6.05-40.88-16.14-8.88-7.68-8.18-17.22-3.73-26.86C35.67,63.08,55.54,43.58,86,38.41c17.11-2.91,34.28-.28,48.67,11,2.67,2.1,4.05,5.84,6,8.83Zm-93,48.3c.26,8.52,8.94,14.87,16.28,11.31,8.95-4.33,18.05-8.76,26-14.59,13.58-9.93,24.48-22,23.91-40.62a5.59,5.59,0,0,1,1-3.22c3.28-4.5,2-9.71-3.51-11.12C100.38,46.66,91.38,51,82.33,54.75c1.61,1.1,3.27,1.33,4.69,2,3.77,1.87,9.48,3.07,10.76,6.08,3.81,9,2.92,18.59-2,27.22-7.31,12.69-19.18,17.86-33.22,18.48C57.3,108.78,52,107.87,46.79,107.48Zm-.58-10.42c2.84.14,4.47.13,6.08.33,9.79,1.2,22.8-10.38,22.16-19.9-.21-3.16-3.63-6.2-5.88-9.06-.5-.64-2.86-.81-3.39-.27-3,3.13-5.72,6.54-9.15,10.57,5.15.4,8.41,1.36,6.72,6.46S58.4,90.92,54.07,88c-.78-.52-3.31.25-4,1.19C48.58,91.29,47.74,93.84,46.21,97.06Z"/></g></g></svg>