<svg xmlns="http://www.w3.org/2000/svg" viewBox="0 0 237.26 169.26"><g id="Layer_2" data-name="Layer 2"><g id="Layer_1-2" data-name="Layer 1"><path d="M141,110.51c-27.42-1.86-54.83-3.81-82.26-5.52-7.3-.46-14.65-.12-22-.28-4.14-.09-6,1.91-6.41,5.89-.45,4.3-1.11,8.58-1.81,12.86-1.54,9.3-3.16,18.59-4.75,27.89-.09.49-.24,1-.28,1.47-.84,10.42-.83,10.42-11.32,8a32.48,32.48,0,0,0-5.38-1.09c-5.6-.36-8.28-3.13-6-8.47,6.78-16,4.81-33.47,8.58-50,.9-3.94,1.84-6.19,6.52-6,24.77.94,49.56,1.59,74.35,2.39q16.73.54,33.46,1.28c25.76,1.17,51.51,2.43,77.27,3.59a47.2,47.2,0,0,0,9.44-.26c8.93-1.41,16,3.7,23.68,6.55.89.33,1.64,2.13,1.75,3.31.54,5.63,1,11.27,1.15,16.92.22,8.64.14,17.28.18,25.93a66.79,66.79,0,0,1-.06,7.49c-.73,6.58-1.89,6.59-8.23,4.8-9.09-2.58-13.66-6.94-12.52-17.2,1.09-9.7.38-19.58.62-29.38.1-4.06-.74-6.31-5.62-6.59-23.44-1.37-46.86-3.12-70.28-4.73Z"/><path d="M196.94,123.16c-1.55,5.41-2.65,10.25-4.4,14.83-.56,1.46-2.9,3.29-4.32,3.2-17.88-1.07-35.75-2.39-53.61-3.81C116.55,136,98.53,134,80.45,132.94c-11.42-.69-22.91-.5-34.35-.2-4.71.12-6.63-1.13-5.7-5.86a106.18,106.18,0,0,1,2.32-11.19A5,5,0,0,1,46.55,113c18.71.88,37.41,2,56.12,3.08q21.4,1.26,42.81,2.66,23.37,1.53,46.73,3.24A28.64,28.64,0,0,1,196.94,123.16Z"/><path d="M67.1,164.58c-8.48,0-17-.11-25.45,0-4.1.07-6-1.33-5.07-5.61a4,4,0,0,0,.05-.5c1.41-13.08,1.93-13.93,14.72-13.6,40.56,1.06,81.13,2.43,121.69,3.67,4,.12,8,.14,12,.26,3.62.11,5.86.83,3.67,5.37a28.79,28.79,0,0,0-2.26,9.5c-.44,4.27-2.62,5.73-6.63,5.53Q127,166.58,74.1,164c-2.33-.12-4.66,0-7,0Z"/><path d="M131.69,59c-14.21,0-24,0-33.85,0-4,0-6.4,1.14-6.92,5.74-.78,6.93-2.4,13.75-3.44,20.66-.55,3.61-2.23,5.11-5.77,4-4.73-1.53-9.48-3-14.07-4.91a4.3,4.3,0,0,1-1.83-3.63C67.29,71,68.69,61.07,71,51.38c.52-2.23,4.34-5.38,6.52-5.29,29.4,1.2,58.77,3,88.17,4.38,9.76.44,18.67,3.22,27.63,6.77,3.95,1.56,5.76,3.89,5.75,7.58-.05,8.47-.23,17-.85,25.41-.38,5.17-2.89,6.22-7.34,3.45-15-9.28-13.29-5.73-11-23.6.64-5-.84-6.69-5.29-7.1C158.82,61.55,143.09,60.08,131.69,59Z"/><path d="M116.3,65.73c16,1.7,32,3.36,48,5.1,4.26.47,6.08,2.41,3.46,6.64a10.33,10.33,0,0,0-1.27,3.24c-1.83,8.74-1.79,8.52-10.83,7.88-17.53-1.24-35.1-2.07-52.61-3.47A7.94,7.94,0,0,1,97.4,80.7a27.39,27.39,0,0,1-.77-10.81c.11-1.15,2.6-2.86,4.1-3,5.13-.37,10.3-.14,15.45-.14Z"/><path d="M157.05,15.69c.24,4.77.54,9.25.65,13.73a12.44,12.44,0,0,1-.82,3.74c-.93,3.1-1.76,6.24-3,9.23-.65,1.59-2,2.91-3,4.35-1.09-1.48-3-2.9-3.12-4.44-.38-5.46-.23-11-.13-16.45.15-8.53.12-9-8.46-9.93a44.88,44.88,0,0,0-14.28,1c-1.75.39-3.71,3.41-4.13,5.51-1,5.3-1.13,10.78-2,16.14-.16,1-2.14,2.64-3,2.47-1.23-.25-3.15-1.91-3.1-2.88.68-11.55,1.61-23.09,2.7-34.62a4,4,0,0,1,2.7-2.7C129.7.35,141.25-.06,152.8,0c1.43,0,3.76,2.76,4.06,4.52C157.49,8.25,157.05,12.15,157.05,15.69Z"/><path d="M128.91,28.25a69.89,69.89,0,0,1,1.66-8.3c.29-1,2.08-1.8,3.3-2,.71-.12,2.39,1.09,2.39,1.71,0,7-.08,14.06-.5,21.06,0,.76-2.43,2-3.54,1.88s-2.37-1.86-2.56-3.05C129.15,36.3,129.18,33,128.91,28.25Z"/></g></g></svg>