<svg xmlns="http://www.w3.org/2000/svg" viewBox="0 0 124.97 148.93"><g id="Layer_2" data-name="Layer 2"><g id="Layer_1-2" data-name="Layer 1"><path d="M107.87,35c1.37-3.87,2.16-6.69,3.38-9.31.57-1.23,2-2.09,3-3.11.57.94,1.19,1.85,1.7,2.83,2.7,5.2,5.62,10.32,7.93,15.69a15.59,15.59,0,0,1,1,7.89c-1,7.58-2.59,15-7.19,21.55a11.52,11.52,0,0,0-1.57,7c1,13-.86,26-8,36.44-5.94,8.69-11.6,18.65-22.24,23.38-2.23,1-4,2.9-6.15,4.19-15.73,9.57-31.78,8.82-48.82,3.12A57.92,57.92,0,0,1,2,124c-3.48-4.59-2.35-12.89,2.84-15.37,8.07-3.88,16.44-7.15,24.68-10.67C53.46,87.69,74.81,73.37,94.61,56.66a7.24,7.24,0,0,0,2-5.42C95.32,35.72,89.8,21.59,82.17,8.12c-1.28-2.27-1-5.39-1.52-8.12C83,1.05,86.22,1.47,87.6,3.28c5.81,7.61,11.16,15.58,16.5,23.54C105.52,29,106.29,31.51,107.87,35ZM44.69,123.81c14.82,3.34,38.7-13.51,43-26.07Z"/></g></g></svg>