<svg xmlns="http://www.w3.org/2000/svg" viewBox="0 0 258.16 283.91"><g id="Layer_2" data-name="Layer 2"><g id="Layer_1-2" data-name="Layer 1"><path d="M160.6,242c-4.59-5.24-8.44-8.64-11-12.83-3.9-6.27-6.69-13.23-10.36-19.66-5.22-9.13-10.67-18.14-16.27-27.05-9.37-14.89-19.12-29.54-28.2-44.61-1-1.73.24-6.6,2-8,12.17-9.74,24.77-18.94,37.22-28.32,1.71-1.29,3.4-2.6,5.42-4.14-4.31-5.92-8.24-11.69-12.65-17-.74-.9-3.92-.76-5.35,0-11.08,6.09-21.91,12.62-33.06,18.57-1.79,1-4.78-.35-7.22-.61,1.06-1.89,1.63-4.63,3.24-5.56q42.15-24.21,84.58-47.94c6.8-3.78,9.6-7.2,3.44-14.09S160.59,16.22,155,8.76c-1.25-1.67-1.32-4.23-1.93-6.38,4-.73,9.36-3.5,11.9-1.88,28.52,18.13,41.32,48.76,58.89,75.62a26,26,0,0,1,1.67,3.4c-4.7,2.87-8.82,6-13.42,7.88-1.47.61-5.13-1.25-6.23-3-7.59-11.91-14.73-24.1-22.17-36.11-.61-1-2.93-2.07-3.61-1.67-14.18,8.32-28.23,16.84-43.3,25.92l50.45,60.55c16.85-10.39,29.81-24.91,47.36-32.23.63.74,1.25,1.49,1.88,2.24-2.33,2.56-4.34,5.52-7,7.62-11.26,8.83-22.92,17.16-34,26.14-6.91,5.57-1.88,11.17.81,16.86s5.88,3.22,9.16,1.34c16.84-9.64,33.63-19.36,52.76-30.4-2.66,4.51-3.66,8.36-6.14,10.07-14.5,9.94-29.4,19.3-44,29.15-1.24.84-2.13,4.52-1.36,5.68,7.81,11.94,16.05,23.6,24,35.44a4.19,4.19,0,0,1,0,3.91c-2.45,2.88-4.91,6.09-8.08,8-17.42,10.28-36.22,18.64-52.34,30.62-22.72,16.89-49.58,21.94-75,31.14-4.67,1.69-9.13,4.25-13.93,5.15-2.62.49-7.27-.79-8.38-2.75-6.65-11.78-13-23.79-18.59-36.12-8.54-18.89-15.34-38.62-24.76-57C21,171.26,9.86,156,.24,139.87c-.84-1.41.7-4.73,1.85-6.76,7.14-12.62,7.43-12.72,14.82-.39C28.28,151.66,40,170.43,50.21,190c7.71,14.81,12.74,31,19.86,46.13,4.51,9.58,10.62,18.41,16.14,27.5.53.87,2.15,1.94,2.88,1.7C112.27,257.86,135.41,250.23,160.6,242ZM144,103.75c-9.83,7.51-19.29,14.52-28.42,21.94-1.4,1.14-2.44,4.85-1.66,6.23,4.12,7.2,8.81,14.08,13.51,20.93a3.81,3.81,0,0,0,3.54,1.07c11.41-5.7,22.72-11.6,34.36-17.61-7-10.69-13.87-21.07-20.69-31.46A9.38,9.38,0,0,1,144,103.75Zm8.33,85.72c4.28,6.24,8.2,12.16,12.42,17.87.53.72,3,.95,3.82.37,7.91-5.47,15.43-11.53,23.54-16.67,6.25-4,6.42-7.92,1.66-12.7-2-2-5.39-5.3-6.79-4.72C175.44,178.39,164.18,183.94,152.37,189.47Zm50.38,2.76c-8.4,7.06-16.47,14.18-24.9,20.83-10.34,8.15-10.5,8-2.32,18.38.57.72,2.36,1.38,3,1,12-7,24-14.1,36.3-21.42ZM137,167.55c2.48,3.59,3.75,6.6,6,8.33,2.07,1.59,5.63,3.12,7.8,2.41,9-2.94,17.47-7.41,26.51-10,8.53-2.48,8.12-6.16,3.17-11.54-1.88-2-5-5.61-6.25-5.13C161.86,156.4,149.79,161.93,137,167.55Z"/></g></g></svg>