<svg xmlns="http://www.w3.org/2000/svg" viewBox="0 0 334.53 215.49"><g id="Layer_2" data-name="Layer 2"><g id="Layer_1-2" data-name="Layer 1"><path d="M169.25,75.16c-5.93-11.15-11-21.77-17.06-31.75-5.45-8.93-.87-14,5.28-19.42,3.61-3.16,6.45-8.6,11.84-2.61,1.05,1.17,1.41,2.93,2.24,4.33C178.2,37,184.8,48.25,191.72,59.35c.61,1,3.83,1.51,5,.82,15.08-8.83,15.43-3.88,5.11-18.62q-7.28-10.38-15.07-20.41c-2.84-3.66-2.72-6.36.85-9.53,3.17-2.81,5.52-6.52,8.55-9.51,4.26-4.22,7.68-1.33,10.23,2.14,8.36,11.35,16.41,22.93,24.8,34.27.6.8,3.25.89,4.46.31,9.16-4.34,18.09-9.18,27.36-13.28a9.62,9.62,0,0,1,7.95.68A57.4,57.4,0,0,1,283,37.05c1.44,1.75-.3,5.94,1,8,7,11.15,14.12,22.19,21.78,32.86,9.29,12.94,19.17,25.46,28.64,38.28.39.53-.7,2.41-1.39,3.47q-4.31,6.54-8.8,13a14,14,0,0,1-3.15,3.69c-25.4,17.33-50.79,34.67-76.33,51.79-12.69,8.5-25.77,16.42-38.5,24.86-4.52,3-8.33,4-12.05-.86a22.56,22.56,0,0,0-2.23-2c-11.15-10.82-11.29-12.67,1.18-21.08,24.95-16.82,50.17-33.24,75.29-49.81,9.57-6.31,19.1-12.69,28.76-18.86,3.44-2.19,4.48-3.92,1.6-7.71-8.61-11.3-8.76-11.93-20.6-4.47-20.4,12.85-40.2,26.65-60.58,39.54-9.49,6-19.75,10.81-29.66,16.15a53.06,53.06,0,0,0-5.63,3c-6.37,4.47-14,3.43-17.94-3.14Q153.05,145,142.3,125.87c-2.23-4-3.8-6-8.44-2.58a67.57,67.57,0,0,1-14.78,8.25c-4.73,1.91-4,4-2,7.37,8.18,13.53,16.19,27.16,24.33,40.71,1.91,3.18,3.15,5.42-1.62,7.68-3.59,1.71-6.48,5.1-9.37,8-4.85,5-10.26,4.19-13.48-1.76-15-27.66-30.33-55.1-45-82.92-6.8-12.92-12.42-26.48-18.34-39.85-1.78-4-3.78-3.86-7.19-2.08C35.58,74.44,24.79,80.5,13.37,84.9,10.6,86,4.69,82,1.9,78.81,0,76.64-.7,70,.88,68.66c7.54-6.5,15.5-13,24.32-17.46C56.28,35.32,87.77,20.25,119.11,4.88c3.92-1.92,7-2.94,8.1,3.34.46,2.62,3.72,4.73,5.66,7.11,1.52,1.85,4.59,4.44,4.13,5.5a13,13,0,0,1-5.9,6C113.82,35.3,96.37,43.44,79.1,52c-1.25.62-2.54,3.84-2,5q11.54,25.16,23.75,50c.62,1.26,3.71,2.69,4.68,2.19,21.08-11,42-22.21,63-33.41C169.07,75.45,169.53,74.93,169.25,75.16Zm12.57,64.43c6.91-4.23,13.56-8,19.78-12.38,1.29-.92,2-4.73,1.22-6.16-4.6-8.06-9.67-15.86-14.83-23.59-.64-.95-3.07-1.73-4.05-1.27a165.85,165.85,0,0,0-17.17,9c-1.37.85-2.62,4.34-2,5.61,4.47,8.71,9.42,17.17,14.29,25.67A22.4,22.4,0,0,0,181.82,139.59Zm28-57.33c5.64,8.45,10.74,16.39,16.27,24,.86,1.18,5,1.78,5.35,1.24,1.94-3.18,10.58-1.81,6.47-9S229.45,84.3,225,77.31c-.59-.92-2.83-1.78-3.72-1.37C217.56,77.65,214.06,79.85,209.78,82.26ZM274,81.08c-3.31-5.84-7.59-11-9.24-16.82-2.95-10.4-8.12-9.54-14.83-4.4-1.2.92-2.22,3.94-1.61,5,3.75,6.83,7.87,13.47,12.22,20,.69,1,3.41,1.65,4.68,1.15C268.22,84.83,270.93,82.86,274,81.08Z"/></g></g></svg>