<svg xmlns="http://www.w3.org/2000/svg" viewBox="0 0 228.05 170.14"><g id="Layer_2" data-name="Layer 2"><g id="Layer_1-2" data-name="Layer 1"><path d="M209.72,10.64c5.67-5.8,8-4.47,9.92,2.08,1,3.31,5.63,5.4,8,8.51.78,1,.3,4.44-.73,5.18C191,52.12,166.2,85.57,155.13,128.73c-1.32,5.16-3.52,10.11-4.7,15.29-1.34,5.86-4.07,3.46-7,1.76-9.82-5.64-14.66-13-10-24.75,1-2.49.11-6.65-1.43-9.08A375,375,0,0,0,72.26,40c-7.67-7.26-17.38-14.65-17.59-27.65-.07-4.76.65-6.48,5.7-6.66Q129.9,3.19,199.4.21C210.66-.29,210.64-.83,209.72,10.64ZM75.31,27.26c-.33,1.45-.66,2.89-1,4.34,5.18,3.85,11.31,6.9,15.37,11.7,15.61,18.46,30.55,37.49,45.77,56.29.79,1,1.72,1.85,2.59,2.76A11.38,11.38,0,0,0,140,99.84c11-27.61,26.21-52.3,49.24-71.66,1.17-1,1.86-2.52,2.77-3.81a30.63,30.63,0,0,0-5.1-.52C170,24.94,153,26.64,136.08,27.13,115.84,27.71,95.57,27.26,75.31,27.26Z"/><path d="M3.65,167.32c-7-7.32-2.26-16.24.39-23.52,4.05-11.11,13-20.65,15.94-31.88,4.11-15.85,4.34-32.67,6.75-49,.7-4.76,3-9.33,5-13.82.25-.56,3.18-.65,4.25,0A8.55,8.55,0,0,1,39,53.28c2.06,5.66,2.57,12.37,5.95,17C64.18,96.64,84,122.5,103.7,148.52a33.51,33.51,0,0,0,4.49,5.34c4.12,3.6,3.49,5.15.59,10.67-5.42,10.33-8.71,3.45-14.67,2.28-20.74-4-41.79-6.73-62.84-8.73-6.48-.62-13.4,2.37-20,4.26C8.76,163.07,6.64,165.32,3.65,167.32Zm79.1-20.22c-14.64-20.25-28.51-39.46-42.52-58.57-.32-.44-3-.06-3.24.48q-9.75,25.29-19.06,50.74c-.28.76,1.13,3.06,1.9,3.13,7.59.69,15.22,1,22.83,1.52C55.67,145.25,68.68,146.15,82.75,147.1Z"/></g></g></svg>