<svg xmlns="http://www.w3.org/2000/svg" viewBox="0 0 245.64 240.56"><g id="Layer_2" data-name="Layer 2"><g id="Layer_1-2" data-name="Layer 1"><path d="M92.94,148.17a95.8,95.8,0,0,0,41.32-30.95c1.4-1.83,2.21-4.13,3.71-5.84a9.66,9.66,0,0,1,4.43-2.65c.4-.12,1.6,2,2.22,3.19,1.6,3.09,2.7,6.5,4.68,9.3,3,4.33,2.1,8-.75,11.76-10,13.19-22,23.93-36.77,31.48-1,.54-2.08,1-3.13,1.56-10.81,5.24-13.09.25-15.19-10.42A63.31,63.31,0,0,1,92.94,148.17Z"/><path d="M27.82,61.66c3.36,4.67,5.93,9.79,9.93,13.28,2.78,2.43,7.45,3,11.4,3.72,10.25,1.79,20.43,2.6,30.17-2.74,7.41-4.06,12.86-19.43,9.21-27.18C86,43.34,83.36,38,80.93,32.55a3.21,3.21,0,0,1,.29-2.92,3,3,0,0,1,2.87,0c3.45,2.63,6.47,5.92,10.14,8.15a74.8,74.8,0,0,0,15,7.35c21.93,7.33,43.65,9,64.41-3.91A62.12,62.12,0,0,1,181,37.11c3.17-1.41,5.11,0,5.72,3.32.15.82,0,1.81.43,2.44,7,10.61-.56,17.89-5.13,26.51s-7.26,18-9.86,27.34c-2.43,8.72,2.56,15.53,8.25,21.34,14.86,15.18,32.93,16.86,52.22,11.09,8.42-2.52,9.61-2.11,10.56,6.36.34,3,1.92,5.93,2.42,9,.23,1.45-.56,4.37-1.17,4.45-9.53,1.24-14.67,8.91-21.06,14.44-11.49,9.93-24.71,16.61-38.16,23.24-8.87,4.37-17.2,10-25.27,15.75-14.44,10.32-28.51,21.17-42.71,31.83a19,19,0,0,0-3.33,3c-4,4.84-5.16,4.34-9.32-.72-6.15-7.49-6.66-16.86-9.8-25.35-7.09-19.17-13.3-38.75-21.86-57.25-9.77-21.07-21.78-41.1-32.67-61.66A161.5,161.5,0,0,0,3,45.36c-.37-.33-.89-.66-1-1.08C1.24,42.07.64,39.82,0,37.59c1.91.68,4.29.85,5.65,2.12C20.28,53.38,38.3,57.49,57.46,58.84c1.9.14,4,1.63,5.4,3.08C63.92,63,64,65.07,64.55,66.7c-1.68.28-3.44,1-5,.78C49.1,65.69,38.72,63.69,27.82,61.66ZM161,69.85c-19.42,2.71-38.32,1-56.61-6.26-4.66,28-10.76,37.4-46.47,37.35,2.63,5.06,5,9.94,7.64,14.66,17.08,30.61,29.73,63.09,40.66,96.29,1.34,4.06,2.39,5.38,6.25,2.36,26.14-20.46,53.37-39.19,83.47-53.52,4.32-2,8.11-5.22,12.13-7.87C168.43,138.12,156,109.09,161,69.85Z"/><path d="M75.38,11.87c1.45,9.46,2.86,17.08,3.7,24.76a141.67,141.67,0,0,1,.65,17.84c0,.78-3.78,2.31-3.87,2.17C74,53.89,71.51,51.12,70.93,48c-1-5.63-.67-11.5-1.36-17.21-1.13-9.23-2.67-18.4-3.93-27.6-.14-1,.13-2.6.79-3s2.24,0,3.08.52C73,3,76.12,5.85,79.77,7.77c8.5,4.46,17.23,8.46,25.83,12.7,3.56,1.76,7.14,3.51,10.51,5.6.94.58,1.14,2.36,1.67,3.6-1.24.14-2.69.78-3.69.35-10.82-4.59-21.59-9.32-32.33-14.1C80.15,15.2,78.73,14,75.38,11.87Z"/><path d="M78.81,116.55c5.7-1.86,12.49-2.71,17.7-6,11.36-7.28,20.82-16.76,26.06-29.69.32-.8,1.22-2,1.74-1.95A3.9,3.9,0,0,1,127,80.48c2.6,4.61,5.14,9.28,7.39,14.07a5.07,5.07,0,0,1-.33,4.11c-7.41,12.34-15.45,24.33-28.17,31.8a47.94,47.94,0,0,1-16.23,5.63c-6.75,1.11-10.79-3.23-10.83-10C78.79,122.87,78.81,119.68,78.81,116.55Z"/></g></g></svg>