<svg xmlns="http://www.w3.org/2000/svg" viewBox="0 0 192.11 137.65"><g id="Layer_2" data-name="Layer 2"><g id="Layer_1-2" data-name="Layer 1"><path d="M29.13,29.17c16.58,1.32,20,16.11,28.17,26.08.93,1.14,4.23,2.06,4.87,1.45Q88.93,31.22,115.29,5.33A52,52,0,0,0,119.4,0V2.62c4.41,2.38,9.89,3.61,10.51,6.07,1,3.78,0,9.76-2.63,12.45-16.76,17.36-34.11,34.14-51.43,51-3.55,3.44-4.39,6-1.21,10.47C82.89,94.22,90.55,106.3,98.3,118.3a26.18,26.18,0,0,1,3.09,7.23c.29,1.08-.54,3.49-1.13,3.58-1.35.21-3.53-.15-4.22-1.11-9.32-13-18.58-26-27.54-39.17C65.9,85,64.35,83.46,60.76,88c-13,16.24-26,32.4-39.59,48.17-1.62,1.89-6.26,1.45-9.52,1.52-1.19,0-2.3-2.1-3.65-2.41-12.82-3-7.65-8.1-2.22-14.26Q27.86,95.92,49.15,70.17c1.39-1.68,1.61-5.9.48-7.84C43.13,51.11,36.05,40.23,29.13,29.17Z"/><path d="M126.33,60.91c5,4.21,10.26,7.63,14.2,12.17,6,6.91,11.2,14.53,16.48,22,.73,1,0,3.09-.07,4.68-1.81-.12-4.27.47-5.32-.48-8.12-7.34-16-15-23.92-22.51C126,75.2,124,74,122.3,72.39s-3.1-3.2-4.64-4.81Z"/><path d="M162.83,73.78C154.28,66.72,146,60,138,53c-.37-.32.72-3.6,1.72-4,3.44-1.35,8.51-4,10.5-2.61,7.85,5.45,14.8,12.21,22,18.61.61.54.92,2.6.6,2.82C170.24,69.59,167.49,71.06,162.83,73.78Z"/><path d="M177.25,47.19c-5.28-2.23-11.4-4.74-17.43-7.45a2.85,2.85,0,0,1-.53-2.66c6.7-7.79,26.29-6.4,32.7,2.39.45.63-.46,3.3-1.27,3.61C186.72,44.6,182.53,45.64,177.25,47.19Z"/></g></g></svg>