<svg xmlns="http://www.w3.org/2000/svg" viewBox="0 0 131.55 201.8"><g id="Layer_2" data-name="Layer 2"><g id="Layer_1-2" data-name="Layer 1"><path d="M46.31,105.6c11.18,9.41,21.55,18.2,32,26.91,13.58,11.33,27.73,21.83,43.84,29.41,3.37,1.59,6.91,2.91,4.48,8-3.28,6.9-6.48,8.44-12.08,7.32-19.32-3.86-33.75-15.92-48.39-27.78Q43.27,131,20.33,112.5a13.31,13.31,0,0,1-3.75-3.93c-.57-1.15-.52-3.45.27-4.28C26.8,93.7,39.24,89.09,53.69,88c13.56-1.06,27-3.64,40.48-5.59a48.53,48.53,0,0,0,4.91-1.44C92.81,78.48,88,76.62,83.24,74.72Q47.77,60.66,12.29,46.56c-3.12-1.24-6.66-2.2-9.06-4.35-4-3.62-2.85-6.14,2.07-8,3.19-1.17,5.82-3.76,8.86-5.43,1.24-.68,3.18-1.27,4.33-.79,15.75,6.65,31.32,13.74,47.13,20.23,16.89,6.92,34,13.39,51,19.9,3.39,1.3,7,1.92,10.58,2.86,4.86,1.28,5.17,3.59,3.14,8.06-5.17,11.41-15.24,15-26.12,16.89-17.66,3.11-35.42,5.6-53.13,8.38C49.83,104.56,48.59,105,46.31,105.6Z"/><path d="M30.38,76,8.07,70c-4.42-1.2-5.55-4.44-4.86-8.45.18-1.05,1.47-2.65,2.35-2.72,3.87-.31,8-1,11.61,0,12.91,3.55,25.7,7.6,38.43,11.77,2.52.83,4.59,3.08,6.86,4.67-2.42,2.62-4.48,7-7.32,7.57a298.87,298.87,0,0,1-33.88,4.77c-1.71.15-4.83-3.19-5.42-5.41-.93-3.46,2.15-4,5.11-4.08,3.12-.09,6.23-.63,9.34-1Z"/><path d="M115.76,123.13c.8.56,2.24,1.61,3.72,2.6,7,4.7,7.61,7.15,3.32,14.55-.17.29-.39.55-.57.83-4.65,7.49-4.5,7.26-11.76,2.62-6.69-4.28-13.77-7.95-20.61-12a18.89,18.89,0,0,1-5.46-4.21c-2.17-2.81-2.7-5.57,1.72-7.37,2.66-1.09,4.83-3.32,7.42-4.66a42.15,42.15,0,0,1,8.06-3.12c5.27-1.46,10.61-2.68,16-3.89,1.32-.3,3.71-.62,3.93-.15.71,1.51,1.35,3.75.7,5C120.57,116.62,118.23,119.49,115.76,123.13Z"/><path d="M45.73,30.14C41,27.38,36.9,25.3,33.22,22.62c-.95-.69-1.11-3.4-.66-4.9A171.39,171.39,0,0,1,38.28,1.35c.36-.88,3-1.64,4.12-1.24A57.84,57.84,0,0,1,51.27,4.3c3,1.64,4.87,3.78,3.31,7.64-1.93,4.75-3.39,9.69-5.33,14.44C48.71,27.7,47.2,28.62,45.73,30.14Z"/><path d="M92.59,18.62c5.28,2.65,10.1,4.82,14.64,7.48,1.25.73,2.68,3.34,2.26,4.35-2,4.84-3.61,10.88-7.43,13.64-2.83,2-9,.32-13.37-.81-4.17-1.06-1.91-4.45-1.16-7C89.23,30.39,90.89,24.53,92.59,18.62Z"/><path d="M79.24,171.37c5.43,4.86,9.76,8.24,13.45,12.22,2.62,2.83-1,15.9-4.46,17.81-3.08,1.71-12.69-2.41-14.62-6.28-.15-.29-.43-.65-.37-.89C75.09,187.11,77,180,79.24,171.37Z"/><path d="M120,25.4c3.67,2.12,7.09,3.83,10.16,6a4.64,4.64,0,0,1,1.16,4,102.56,102.56,0,0,1-4.25,12.68c-2.61,6.27-7.55,8.74-13.62,6.35-1.37-.54-2.74-4.27-2.2-5.92C113.74,40.93,116.88,33.5,120,25.4Z"/><path d="M83.08,24C81.69,28.15,80.55,32,79,35.64A3.5,3.5,0,0,1,76,37.15a104.54,104.54,0,0,1-13-4.73c-1.07-.49-2.1-2.8-1.88-4.07A131.1,131.1,0,0,1,64.47,13.9c.23-.78,2.3-1.87,2.91-1.57a125.73,125.73,0,0,1,13,7.18C81.71,20.36,82.2,22.47,83.08,24Z"/><path d="M71.21,170.39c-2.48,5.17-3.53,10.3-6.65,12.59-1.59,1.17-7-2.69-10.56-4.42-5.24-2.52-6.18-6.28-3.5-11.47,1.7-3.28,2.7-6.92,4-10.4a107.67,107.67,0,0,1,9.27,6.13C66.36,164.91,68.49,167.57,71.21,170.39Z"/><path d="M46.06,151.33c-2,3.53-3.23,7.79-6.07,9.93-1.39,1.05-6.2-1.23-8.69-3-7.63-5.56-8.5-11-3.47-19.11.55-.89,3.06-1.61,3.85-1.11a111.5,111.5,0,0,1,11.57,8.37C44.5,147.4,45,149.37,46.06,151.33Z"/><path d="M21.32,127.43c-2,3.81-3,7.95-5.62,9.86-1.51,1.1-5.8-1.08-8.56-2.38a15.26,15.26,0,0,1-5.8-4.6A10.25,10.25,0,0,1,0,124.21c.09-1.72,1.49-3.33,2-5.08,1.92-7,1.87-7,7.55-2.6,2.33,1.8,5,3.2,7.18,5.15C18.45,123.24,19.7,125.36,21.32,127.43Z"/></g></g></svg>