<svg xmlns="http://www.w3.org/2000/svg" viewBox="0 0 230.73 272.57"><g id="Layer_2" data-name="Layer 2"><g id="Layer_1-2" data-name="Layer 1"><path d="M90.65,243.51c-5.92,2-11.9,4.35-18,6.11a7.38,7.38,0,0,1-8.71-3.4c-4.83-8-9.46-16-14.26-24q-10.8-18-21.73-35.9c-.31-.49-.77-.89-2.23-1.05.88,7.32,1.49,14.68,2.71,21.95,3.12,18.57,6.76,37,15,54.2,1.25,2.62.28,4.23-2,5.12-5.11,2-10.33,3.61-15.44,5.58-2.58,1-3.76.5-4.79-2.26C4.65,225.68-1.89,180.06.47,133.05c.22-4.5,3.17-6.59,5.69-9.25a11.67,11.67,0,0,1,3.38-2.1c10.89-5.31,14.74-4.12,19.46,7,4.8,11.33,8.81,23,13.55,34.35,2,4.76,5,9.1,7.5,13.63l1.51-.56c0-5.34.67-10.79-.13-16-2.42-15.82-1.57-31.54.69-47.22.36-2.45,3-5.24,5.37-6.57a45.24,45.24,0,0,1,11.61-4.14c3.56-.88,6.63.19,7.94,4.13,2.35,7.09,4.61,14.21,7.07,21.27,3.28,9.4,6.7,18.76,10.1,28.13a3.37,3.37,0,0,0,2.21,1.86c0-1.87.55-4-.09-5.57-3.93-9.9-3.64-20.17-3.46-30.52.15-8.94-.23-17.88-.29-26.82,0-1.81.55-3.63.55-5.45,0-6.29,4-9.09,9.25-10.86a25.62,25.62,0,0,1,2.92-.61c12.69-2.67,14-1.81,18.47,10.57,4,11,8.2,21.81,12.44,32.65a76.54,76.54,0,0,0,3.79,7.37l1.28-.3c-.23-3.65-.31-7.31-.73-10.93-1.27-11-2.75-22-4-33-.88-7.77-1.25-15.59-2.31-23.33-.64-4.66,2-7,5.11-9.25a6.75,6.75,0,0,1,2.31-.9c16.09-4.13,12.59-6.53,22,8,10,15.51,18.38,32,27.54,48.08a21.46,21.46,0,0,0,5.88,6.79c-1.16-5.76-2.62-11.48-3.43-17.29-2.3-16.45-4.53-32.91-6.38-49.41-1.11-9.87-1.43-19.82-2.14-29.74a6.71,6.71,0,0,0-.59-1.86c-2.62-6.62-1.16-10.47,5.54-12.94A46.49,46.49,0,0,1,200.72,0c3.34-.4,5.89,3.6,6.12,8.58.63,13.63.93,27.3,2.12,40.88,3,34.42,9.42,68.18,21.37,100.72.9,2.45.31,3.28-2.09,3.71a17.08,17.08,0,0,0-5.69,1.75c-8.55,5.09-14.65,2-21.59-4.17-15.2-13.47-27.14-29.23-37.08-46.72a11.37,11.37,0,0,0-3.21-3.84c2.44,31.3,8.07,61.85,18.29,92-5.14,1.72-10.86,4.33-16.85,5.31-2.84.46-7.38-1.31-9.1-3.61-8.75-11.69-17-23.74-25-36-3.17-4.82-5.17-10.41-7.75-15.62a7.39,7.39,0,0,0-2.69-3c2.58,28.56,6,56.87,17.75,83.55-5.68,2-11.31,4.26-17.1,6a8,8,0,0,1-9.3-3.32c-9.68-14.52-19.22-29.13-28.76-43.74-1.08-1.67-1.84-3.54-2.83-5.27-.21-.36-.75-.53-2.3-1.56C77.85,199.34,80.58,221.87,90.65,243.51Z"/></g></g></svg>