  <svg
  xmlns="http://www.w3.org/2000/svg"
  viewBox="0 0 355.5 268"

>
  <path
    class="st0"
    d="M129.6 121.1c12.5 25.8-9.6 45.7-3.2 67.7 12.5 42.5 128.6 83.3 174.7 27.8 27.5-33 24-92.9-4.4-119.6 -27.4-25.7-56.7-0.8-118.4-24 -55.8-21-64.9-53.7-95.6-48.1C49.5 31 29.6 75.1 24 104c-10 51.4 15.9 103.2 28.5 101.9 17.2-1.8 7.5-103.2 39.2-110.8C105 91.9 122.4 106.2 129.6 121.1z"
     
  />
  <path
    class="st1"
    d="M152.9 107.7c0.7 2.3 4.5-0.5 5.4-0.5 -0.9-1.3-2.8-1.7-4.1-0.8C153 107.1 152.4 108 152.9 107.7z"
     
  />
  <path
    class="st1"
    d="M122.6 88.1l1.6-1.2c-2.3 0.2-4.5 0.6-6.7 1C119.2 88 120.9 88 122.6 88.1z"
     
  />
  <path
    class="st1"
    d="M87.2 79.3c3.2 3.2 6.5 2.3 10.6 1.6 2-0.4 4.1-0.6 6.1-0.5 1.8 0 3.6 0.6 5 1.8 0.1 0.7 0.2 1.3 0.3 2 1.6-1.7 3.3-3.2 5-4.7 -2.1-0.6-4.2-1-6.4-1.2 -2.4-0.2-4.8-0.2-7.2-0.1 -2.4 0.1-4.8 0.4-7.1 0.7C91.3 79.2 89.2 79.3 87.2 79.3z"
     
  />
  <path
    class="st1"
    d="M55.1 81.7c0.9 0.1 1.5 0.8 1.4 1.7 0 0.1 0 0.2-0.1 0.3 0 0.1 0-0.2 0.5-1.1 0.3-0.7 0.7-1.4 1.1-2 0.3-0.4 0.5-0.9 0.9-1.4s0.8-1.2 1.3-1.8c-0.5 0.2-0.9 0.3-1.4 0.4l-1.5 1.6L55.1 81.7z"
     
  />
  <path
    class="st1"
    d="M58.7 77.7c2-2.2 0.9-2-0.2-1.3S56.4 78.3 58.7 77.7z"
     
  />
  <path
    class="st1"
    d="M48.3 96.7c-0.1-2-0.1-4 0-6 -2.2 0.2-4.7 4.5-5.1 2.3 -0.5 2.9-0.2 4.1 0.8 4.6S46.3 97.4 48.3 96.7z"
     
  />
  <path
    class="st1"
    d="M51.8 103.1c-0.1-0.9-0.1-1.7-0.2-2.6C50.7 100.5 50.3 101 51.8 103.1z"
     
  />
  <path
    class="st1"
    d="M51.7 94.5l-0.1 3c0 1 0 1.9 0 2.9 1.5-0.1 3.8 0.9 0.2-2.6C53.7 99.3 52.1 97.4 51.7 94.5z"
     
  />
  <path
    class="st1"
    d="M54.4 92.2c1.5-0.9 3-2 4.2-2.2 0.5-0.1 1 0.2 1.2 0.7 0.2 1 0.3 2 0.2 3 0.5-1.1 1-2.2 1.3-3.1 0.3-0.8 0.5-1.6 0.7-2.4 0.2-1.4 0-2.3-0.7-2.5C59.8 85.1 56.5 87.3 54.4 92.2z"
     
  />
  <path
    class="st1"
    d="M87.5 87.7c1.4 0.3 2.7 0.8 4 1.3 0.4-0.5 0.8-1 1.3-1.5s0.9-1 1.4-1.4c-0.7 0.7-2.5 0.3-4.1 0.3S86.9 86.6 87.5 87.7z"
     
  />
  <path
    class="st1"
    d="M36.1 121.2c1.6 0.6 4.6-0.3 6.8-0.1 -0.4-1.1-0.8-2.1-1.2-3.2C40.2 119.1 38.5 121.5 36.1 121.2z"
     
  />
  <path
    class="st1"
    d="M42.9 121.1c0.6 1.6 1.3 3.1 1.9 4.7C45.9 122.3 44.7 121.3 42.9 121.1z"
     
  />
  <path
    class="st1"
    d="M59.6 107c-1-3.2-1.8-6.4-2.2-9.7 0.2 3.7 0.8 7.4 1.8 11L59.6 107z"
     
  />
  <path
    class="st1"
    d="M32.9 136.6l-3.4-2.9c1.7 1.7 3.4 3.3 5.1 4.9L32.9 136.6z"
     
  />
  <path
    class="st1"
    d="M32.1 146.4c-2.9-2-5.7 1.4-7.4-0.5 0.2 2.7 2.6 5.2 4.8 7.5C28.5 151.1 29.1 149 32.1 146.4z"
     
  />
  <path
    class="st1"
    d="M32.7 157c-0.9-1.3-2-2.6-3.1-3.7C30.3 154.8 31.4 156.1 32.7 157z"
     
  />
  <path
    class="st1"
    d="M42.6 132.3c-1 0.1-3.8 0.2-5.2 2.2l4.9-0.7L42.6 132.3z"
     
  />
  <path
    class="st1"
    d="M42.5 133.8h-0.2c-0.4 1.6-0.7 2.8-0.8 3.2C41.6 136.7 41.9 135.7 42.5 133.8z"
     
  />
  <path
    class="st1"
    d="M42.7 132c0 0.1-0.1 0.3-0.1 0.4C43.1 132.3 43.3 132.2 42.7 132z"
     
  />
  <path
    class="st1"
    d="M52 116.4c1.8 3.2 3.5 8.4 8.5 4.9 -1.4-1.2-2.8-1.3-4.2-1.7C54.5 119.3 52.9 118.1 52 116.4z"
     
  />
  <path
    class="st1"
    d="M48.9 131.2l1.9-3.9c-1.2-0.2-3.2 0.2-4.2-1.2C47.3 127.8 48.1 129.5 48.9 131.2z"
     
  />
  <polygon
    class="st1"
    points="50 133.4 48.8 131.2 48.2 132.6 "
     
  />
  <path
    class="st1"
    d="M38 151c1.8 1.9 1.7 3.8 1.8 5.9 1.1-2 1.9-4.2 2.2-6.4C40.6 149.9 38.1 148.6 38 151z"
     
  />
  <path
    class="st1"
    d="M40.4 142.8c0.1 0.1 0.1 0.3 0.2 0.4C41.1 143.1 41.2 142.9 40.4 142.8z"
     
  />
  <path
    class="st1"
    d="M37.1 176l0.9-0.2 -0.8-0.2L37.1 176z"
     
  />
  <path
    class="st1"
    d="M43 150.2c1.1-1.6 0.1-2.7-1.2-3.9 0.3 1.4 0.4 2.7 0.3 4.1C42.7 150.7 43.1 150.7 43 150.2z"
     
  />
  <path
    class="st1"
    d="M34.2 162.8c1.1-0.7 2-1.5 2.9-2.4C35.5 161 33 162.4 34.2 162.8z"
     
  />
  <path
    class="st1"
    d="M39.3 143.6c-0.1-0.1-0.1-0.2-0.2-0.3C38 143.8 38.5 143.8 39.3 143.6z"
     
  />
  <path
    class="st1"
    d="M39.3 143.6c0.7 1 1.5 1.9 2.5 2.7 -0.2-1.1-0.6-2.1-1.1-3.1C40.2 143.4 39.8 143.6 39.3 143.6z"
     
  />
  <path
    class="st1"
    d="M65.9 186.7c-4.2-1.1-7.5-5.9-2.3-8.8 -2.7-4.1-17.2-3.6-25.6-2 1.9 0.4 3.6 0.7 5.6 4.5 1.3-0.4 3-2.1 4.7-3.3s3.7-1.9 5.4-0.1c1.5 5.1-2.1 3.6-4.8 5.5 2.8-0.5 4.5 1.3 6.5 3.3s4.1 4.3 8.1 4.6c-0.6-1.6-1.3-3.3-1.9-4.8C62.9 185.7 64.6 187.7 65.9 186.7z"
     
  />
  <path
    class="st1"
    d="M39.4 169.3l-0.3-1.6c-1 1.6-2.9 2.6-6.5 4.2 1.8 2.6 3.3 3.4 4.7 3.7 0.5-2.3 1.1-4.6 1.6-7L39.4 169.3z"
     
  />
  <path
    class="st1"
    d="M39.9 161c4.5 1.8 6.1 5.7 11.5 4.1 0.3-4.5-3.5-3.6-5.2-6.6 0.2 7.4-2.3-2.4-5.7 2.5 -0.5-1.3-0.7-2.7-0.7-4.1 -0.8 1.3-1.6 2.4-2.6 3.5l0.3-0.1 0 0h0.1c0.6-0.2 1-0.3 0.6 0 0 0 0.1 0.1 0.1 0.2C38.8 160.5 39.3 160.7 39.9 161c-1.3 2-1.3 0.2-1.7-0.6 -0.2-0.1-0.4-0.1-0.7-0.2h-0.1l1.6 7.5C39.9 166.3 40 164.4 39.9 161z"
     
  />
  <path
    class="st1"
    d="M69.4 127.7c-0.4 0.1-0.8 0.1-1.1 0C68.7 128.3 69.1 128.5 69.4 127.7z"
     
  />
  <path
    class="st1"
    d="M65.9 130.1c-0.5-0.7-2.3-1.5-1.4-3.2 1.7-1.2 2.2 0.5 3.8 0.8 -1-1.3-2.4-4.5-5.5-1.7l0.5 0.7c-2.3 2.6-8.8 5.4-9.4 4.8C58 131.5 62 131 65.9 130.1z"
     
  />
  <path
    class="st1"
    d="M53.8 145.8l1.4 6.5 4.5-2.6 -2.5-0.2C58.7 146.2 55.6 146.5 53.8 145.8z"
     
  />
  <polygon
    class="st1"
    points="34.7 176.3 29.8 174.8 36.3 179 "
     
  />
  <path
    class="st1"
    d="M34.1 183l-4.2-1.1 2.3 2C32.8 183.6 33.5 183.3 34.1 183z"
     
  />
  <path
    class="st1"
    d="M283.8 60.9c1-0.2 2-0.3 3-0.4C285.8 60.3 284.7 60.5 283.8 60.9z"
     
  />
  <path
    class="st1"
    d="M266 57.9l-0.5 2.1C266.3 58.9 266.7 58.1 266 57.9z"
     
  />
  <path
    class="st1"
    d="M70.1 64.9c2.2 0.5 4.8 1.5 6.3 1.9s2 0.5 0.1-1.1c-1.3-0.9-2.6-1.8-3.9-2.8C72.5 64.5 71.5 64.9 70.1 64.9z"
     
  />
  <path
    class="st1"
    d="M161.8 64.5v-1.6l-3.6 3.3L161.8 64.5z"
     
  />
  <path
    class="st1"
    d="M172.1 47.5c0.4 1.4 0.9 2.7 1.5 4.1C173.3 50.2 172.8 48.8 172.1 47.5z"
     
  />
  <path
    class="st1"
    d="M348.8 133.4c1.8 0.6 3.5 1.2 5.3 1.9C353.2 130.9 351.2 133.3 348.8 133.4z"
     
  />
  <path
    class="st1"
    d="M50.1 150.2c1.5-2.2 2-3.7 2-5C49.7 147.8 46 150.4 50.1 150.2z"
     
  />
  <path
    class="st1"
    d="M268.4 109.3c0.8-0.7 1.2-1.7 1.4-2.7 -0.4 0.3-0.7 0.7-1 1.2C268.5 108.2 268.4 108.8 268.4 109.3z"
     
  />
  <path
    class="st1"
    d="M51.4 140.1c-0.4 0.3-0.7 0.7-1 1.1 1.1 1.1 1.7 2.5 1.7 4.1C53.9 143.3 54.9 141.4 51.4 140.1z"
     
  />
  <path
    class="st1"
    d="M123.7 230.9c-0.1-0.3-0.2-0.6-0.2-0.9C123 230.4 123.2 230.6 123.7 230.9z"
     
  />
  <path
    class="st1"
    d="M154.1 144.2c0.1 0.7 0.1 1.3 0.1 2 0 0.8-0.2 1.5-0.2 2.3C154.4 147.8 154.6 146.5 154.1 144.2z"
     
  />
  <path
    class="st1"
    d="M65.9 180.6C66.3 180.6 66.4 180.3 65.9 180.6z"
     
  />
  <path
    class="st1"
    d="M53 197.2c0.2-0.3 0.3-0.7 0.4-0.9l0-0.1 -0.1 0.1 -0.2 0.3L53 197.2l0.3-0.7 0.2-0.3 -0.1 0.2 -0.2 0.4L53 197.2z"
     
  />
  <path
    class="st1"
    d="M21 126.6c0 0 0-0.1 0-0.1C20.1 127 20.3 126.9 21 126.6z"
     
  />
  <path
    class="st1"
    d="M63.4 183.3c0.4-0.4 0.9-0.9 1.3-1.3 0.2-0.2 0.2-0.2 0.3-0.3s0.3-0.4 0.4-0.5c-0.1 0.1-0.3 0.3-0.4 0.5 -0.1 0.1-0.2 0.2-0.2 0.3l-0.3 0.3L63.4 183.3z"
     
  />
  <path
    class="st1"
    d="M64.3 182.4l-2.1 2.1c-0.6 0.6-1.2 1.2-1.7 1.8 -0.3 0.3-0.3 0.3 0.2-0.3 0.3-0.3 0.6-0.7 1.2-1.3L64.3 182.4z"
     
  />
  <path
    class="st1"
    d="M65.3 180.3c0.3 0.2 0.2 0.5 0.1 0.9 0.1-0.2 0.3-0.4 0.5-0.6C65.7 180.6 65.5 180.5 65.3 180.3z"
     
  />
  <path
    class="st1"
    d="M275.9 251.2c-0.2-0.1-0.4-0.2-0.5-0.3C274.2 253.4 274.9 252.8 275.9 251.2z"
     
  />
  <path
    class="st1"
    d="M81.8 2.6c-0.1 0.1-0.2 0.2-0.3 0.3L81.9 3 81.8 2.6z"
     
  />
  <path
    class="st1"
    d="M91-1.5c-0.8 1.2-1.7 2.3-2.8 3.3 -0.6 0.7-1.4 1.2-2.2 1.5 -0.6 0.2-1.3 0.3-2 0.2 -0.7-0.1-1.4-0.3-2.1-0.5 1.5 4.4 2.7 8.9 3.8 13.4 0.6-3 1.4-6 2.3-9S89.8 1.5 91-1.5z"
     
  />
  <path
    class="st1"
    d="M323.9 86l-0.1-1.9 -0.2-1.9c-0.1-1.3-0.3-2.5-0.5-3.8 2.2 0.2 4.4 0.8 6.4 1.6 1.6 0.7 2.9 1.4 3.8 1.7 1.8 0.7 2.6 0.2 2.9-4.3 -1.3 0.9-2.8 1.5-4.3 1.6 -1.3 0-2.7-0.3-3.8-0.9 -1.3-0.7-2.5-1.5-3.6-2.4 -1.2-1-2.5-2.1-3.7-3.2 -2.6-2.2-5.3-4.3-8.1-5s-5.5-0.2-7.7 2.8c-0.7-1.7-1.4-3.4-2.2-5.1 1.1 0.8 1.8 0.1 2.8 1 -1-2.8-2.4-3.7-3.8-3.8s-3 0.9-4.6 2c-3.3 2.2-6.6 4.8-11.1 2.3 -0.7-0.5-1.4-1.1-2-1.7 -0.5-0.5-0.9-1-1.3-1.6 -0.5-1.1-0.3-2 1.1-2.6 -2.9 0.5-5.7 1.1-8.4 2 -2-0.6-1.2-3.1 0.9-2.5 -3.6-0.2-7.3-0.2-10.9 0.1l0.1-0.4c-1.9 2.5-4 5-6.2 7.3 -2.3-2.2 1.2-1.6 0.6-3.4l-2.5 1.8 -2.4 1.8c-1.9-3.9 2-7.7 5.6-7 -1.1-3.8-2-5.4-2.8-5.9s-1.5 0.2-2.3 1c-0.9 1-2 1.8-3.2 2.2 -1.4 0.3-3.1-0.2-5.4-2.3 1.4-0.6 2.8-1.3 4.3-1.9 -2.9-8.5-6.3-5.3-10.6-10.7 0.5 1.4 2.6 4.7 4.3 8.2s2.5 7 0.1 8.9c-1.4-1.1-3.1-1.7-5.6 1.3 0-5.3-2.4-4-5.3-3.8l0.4-7c-3.1 1.9-3 5.5-5 8.6 -3.4-0.9-3.6-6.4-3.9-11.1 -2.4-0.8-1.8 1.5-1.3 4s1 5.4-2.3 5.8c-4.1-3.2-7.4-0.8-13.6 2.3 -2.6-3 1.4-4.1 0.7-6.3 -1.3 1.6-2.6 3.3-3.9 4.9 -0.6-0.3 0-1.9 0.3-2.7 -2.8 1.5-1.8 6.8-6.1 7.7 -1.5 3.7-2.8 0.3-4.4-3 -0.8-1.6-1.7-3.3-2.8-4.1 -0.5-0.4-1.2-0.6-1.9-0.5 -0.9 0.2-1.8 0.7-2.5 1.3 -0.4-2.3 2-3.9 2.5-6.6 -2 0.8-3.4 1.4-4.5 1.8s-1.9 0.7-2.8 1.1c-1.6 0.7-3.3 1.8-7.3 4.3l-1.3-3 -1.2-3.1c0.4 3.1-0.9 5.7-3.2 7.8 -2.6 2.1-5.5 3.9-8.6 5.1 0 2.2 0.1 4.5 0.4 6.7 -2.6 0.1-5.3 0.3-7.9 0.3 -0.2-1.4 1.6-3.2 3.9-5.3 -0.6 0.3-1.3 0.6-1.9 0.9 -1-3.4 2.1-6.4 5.4-9.1 0.1 1.7 0.1 3.3 0.1 4.9 3.4-3.1 6.7-6.7 8.2-10.6 -0.8 0.6-1.7 0.8-2.6 0.8 0.8-0.6 1.4-1.5 1.7-2.4 0.1-0.8-1.1 0.4-2.8 1.5 0.8-2.5 1.6-5.1 2.4-7.6l-1.7 2.6c-1.6-2.7-3-5.3-4.4-8 -4.4 2-9.2 4.8-14.3 6.5s-10.3 2.7-15.3 1c5.4-3.2 6-7.2 10.2-12.6 -1.1 3.7 0.8 4.1 3.4 4.1s5.7-0.5 7.3 1.3c-1.6-2 0.6-4.4 1.8-5 -3.5 0.3-7 0.5-10.6 0.6 3.4-4.4 1-4.5 0.6-7.6 -2.6 4.9-5 5.4-7.4 4.7s-4.8-2.7-7.3-2.5c2.1-3.1 5.2-5.5 8.2-2 0.6-4.8-2.7-3.2-6.1-1.6 -1.5 0.9-3 1.5-4.7 1.8 -1.3 0.1-2.1-0.5-2.1-2.7 1 0.6 1.2 1.5 2.7 0.3 -1 0.2-2.1 0.1-3-0.4 -0.9-0.5-1.7-1.2-2.3-2 -1.1-1.6-1.5-3.6 0.1-4.5l1.1 0.7c-0.4-0.4-0.8-0.8-1.3-1.2s-1-0.8-1.6-1.3c-1.4-1-2.8-1.9-4.3-2.8 -3.1-1.8-6.5-3-10-3.7 -3-0.6-6.1-0.4-9.1 0.5 -2.3 0.8-4.1 2.6-4.7 5 0.3-2.1 0.7-4.2 1.3-6.3 0.5-2.2 1.2-4.5 2.1-6.6 -7.3 8.5-12.2 18.9-14.1 30 -0.1 0.6-0.2 1.3-0.3 1.9 -0.2-3.4-1.5-8.8-2.8-14s-2.6-10.6-1.1-14.6c0.2-0.7 0.6-1.3 1-1.9 0.5-0.6 1-1.1 1.7-1.5 -1.1-0.3-2.2-0.5-3.3-0.6 -1.2 0-2.5 0.2-3.6 0.7 -1.6 0.7-3 1.6-4.3 2.9 1 0.2 2.9 2.8 4.1 5.4s1.9 5.3 1 6c-1.3-1.3-2.8-2.4-4.3-3.4 -0.8-0.5-1.6-0.9-2.5-1.2 -0.8-0.3-1.6-0.4-2.8-0.8s-3-0.9-5.7-1.6c1.6 0.1 3 3.4 3.7 6.8s0.8 6.7-0.7 7.4c-1-2.2-2.1-4.2-3.4-6.2 -1.5-2.6-2.9-5.3-2.5-6.2 -0.5 2.6-0.9 5.3-1 8 -0.1 2.5-0.1 5 0.1 7.5 0.1-1.5-1.3-3.7-3.4-5.6 -1.9-1.9-4.1-3.3-6.6-4.4 0.6 0.3 0.4 0.8-0.1 1.4 -0.7 0.7-1.6 1.4-2.4 2 -1 0.7-2 1.5-3 2.4 -0.8 0.6-1.4 1.3-1.7 2.1 1.6-0.3 3.2-0.5 4.8-0.7 -4.4 2.9-2.9 7.8-0.9 12.4s4.3 9.1 1.6 12.2c-1.9-2.4-4.1-4.5-6.6-6.3 -3.1-2.2-6.5-3.8-8.5-2.3 1.9 2.7 6.9 9 11.7 15.3s9.6 12.5 10.3 16.4l-3.8-0.6c0.5 2.1 1 4.2 1.6 6.2 -5.1-4.8-9.7-10.1-13.8-15.8 -4.7-6.5-8.5-13.6-10.1-18.4 -1.3 0.4-2.6 0.6-4 0.5 -0.8 0.1-1.5 0.5-2.7 3 -1.5 0.1-2.8-1.1-2.8-2.6 0-0.1 0-0.1 0-0.2 -0.1-1.4 0.1-2.7 0.7-4 -3 3.4-5.8 6.8-8.4 10.4 3.4 1.5 3.9 4.5 4.4 7.3s1 5.7 3.9 6.7c-0.6-5.1-0.9-10.2-0.9-15.3 3.4 1.5 7 5.8 9.4 10.3s3.5 9.2 1.4 12.5c-1.7 0.3-4.6-1.3-7.4-3.1s-5.3-4-6.4-4.4c1 1 1.3 3.4 1.1 5.4S13 74.2 12 74.2c-0.8-1.6-1.6-3.2-2.4-4.8 -2.2 1.7-0.6 4.5 0.5 7s1.8 5-2.5 6.6c-0.5 0.9-3.2 1.6-5.3 2.3s-3.4 1.5-1.4 2.3c9-1 34.2 6.2 39.8 9.5l-5.8 3.2c-2.9 1.6-6.3 3.4-8.5 4 -3.5 0.7-7.2-1-10.7-2.9s-6.8-4.1-9.9-3.3c2 0.6 4 2.8 4.7 3.6 -2.1 1.7-6-2-5.9 2.6 7.2 1.9-1.9 8.8 5.9 3.1 0.7 1.5 0.5 3.2-0.5 4.4 -1.1 1.4-1.7 3.1-1.8 4.9 2.5-0.6 6.5 0.9 10.2 2.8s7 4.4 8 6.2c-1.9-0.1-3.8 0.3-5.5 1 -0.4 3.4-1.1 6.8-2 10.1 -0.9 3.2-1.2 6.6-0.9 9.9 -1.7 0.9-3.3 4.9-6.8 3.9 1.5 0.9 4.1 1.6 4.7 3.9 -2.8 2.9-3.3 1.6-3.9 0.2s-1.5-3-5.1-0.5c4.3-0.4 7 5.3 10.5 7.9 3.1-1.3 3-3.2 1.8-5.2 -1.5-2.1-3.3-4-5.3-5.7 4.7-0.6 9.5-0.1 14 1.5 4.2 1.4 8.2 3.6 11.5 6.6 3.6 4.7-5.2 3.9-3.6 4.5 0.7 5.4 5.4 6.3 9.2 6.9s7 1 5.5 5.9c-1.9 2.3-4.4 4-7.2 4.9 -2.6 0.9-5.2 1.4-6.9 2.6 -2-1.7-1.9-3.9-1.4-5.8s1.3-3.8 0.7-5.3c-0.4 1.6-0.8 3.1-1.2 4.7 -2.4-0.7-5-3.3-3.9-5.6 -2 2.3-0.7 7.1 1.5 12.3 1.1 2.6 2.3 5.3 3.4 8 1.1 2.6 2 5.3 2.5 8 1.4 0.2 2.7 0.3 4.1 0.3 1.2 0 2.3-0.7 2.8-1.9 -0.8-0.5-1.6-1-2.3-1.6 1.2-2.4 3.3-2.3 4.9-2.4s2.9-0.1 3-1.9c2.2 0 4.7-0.5 5.9-1.4l0.2-0.2c0 0 0.1-0.1 0.1-0.1l0 0 -0.1 0.1 -0.2 0.3c-0.5 0.7-1 1.4-1.4 2.1s-0.8 1.4-1.1 2c-0.2 0.3-0.3 0.6-0.5 1s-0.3 0.6-0.4 0.9c-0.2 0.5-0.4 1.1-0.6 1.7 -0.1 0.3-0.1 0.4-0.2 0.7l-0.1 0.6c0 0.2 0 0.3 0 0.5 0 0.1 0 0.2 0 0.4 0 0.1 0 0 0 0l0 0 0 0v-0.1c-0.1-0.2-0.2-0.4-0.3-0.6 0 0 0.2 0.4 0.2 0.4l0.1 0.1c0 0 0 0.2 0 0.1s0 0 0 0c0-0.1 0-0.2 0-0.3v-0.4c0-0.2 0-0.3 0.1-0.4 0-0.2 0.1-0.4 0.1-0.6 0.2-0.8 0.5-1.7 0.8-2.4 -0.1 0.3-0.2 0.6-0.3 0.9 -0.1 0.3-0.2 0.6-0.3 0.9 -0.1 0.4-0.2 0.6-0.2 0.9s-0.1 0.5-0.1 0.8v0.3c0 0.1 0 0.2 0 0.3v0.1l0 0 0 0c-0.1-0.3-0.3-0.6-0.5-0.9l-0.1-0.2 -0.1-0.1 -0.1-0.1c-0.1-0.2-0.3-0.4-0.4-0.5 -0.1-0.2-0.3-0.3-0.4-0.5l-0.3-0.3 -0.2-0.1c-0.1-0.1 0 0 0 0s0.2 0.1 0.2 0.1c0.1 0 0.1-0.1 0.1-0.2 0-0.3-0.2-0.7-0.4-0.9 -0.5-0.6-1.2-1.1-1.9-1.5 -0.4-0.1-0.8-0.1-1.2-0.2 -0.4-0.1-0.7-0.3-1.1-0.5h-0.1l0.2 0.1 0.3 0.2c0.2 0.2 0.4 0.3 0.6 0.4 0.4 0.2 0.7 0.5 1.1 0.8 0.3 0.3 0.7 0.6 1 0.8 0.3 0.2 0.5 0.4 0.8 0.7 -0.9-0.9-1.9-1.6-3-2.4 -0.6-0.4-1.4-1-2.1-1.4 -0.4-0.2-0.8-0.4-1.2-0.6l-1.3-0.8 -0.7-0.4 -0.6-0.3 -0.4-0.2c-0.2-0.1-0.5-0.3-0.7-0.5 -0.5-0.3-0.9-0.6-1.3-1 -1.5-1.4-2.4-3-1-4.4 -3.4 0-3.3 0.1-3.3 0.4 0 0.1-0.1 0.3-0.6 0.4 -1.2 0.1-2.4 0-3.5-0.2 2.4 0.5 3.5 0.9 3.9 1.5 0.2 0.2 0.3 0.4 0.3 0.7 0 0 0 0.1 0 0.1l0 0 0 0c0 0-0.1-0.1 0.2 0.1 0.8 0.3 1.5 0.6 2.3 1l4.1 2c0.6 0.3 1.2 0.6 1.7 0.9l0.8 0.5 0.7 0.4c0.8 0.5 1.6 1 2.4 1.5 0.6 0.4 1.1 0.7 1.5 1 0.8 0.6 1.2 1 1.1 0.9 -0.6-0.6-1.3-1.1-2-1.5 0.9 0.6 1.8 1.3 2.6 2 0.4 0.3 0.7 0.6 1 1 0.2 0.2 0.5 0.5 0.7 0.7l0.3 0.4c0.1 0.1 0.1 0.2 0.2 0.3 0.1 0.2 0.2 0.4 0.3 0.6 0.1 0.1 0.1 0.2 0.1 0.3v0.1l0 0 0 0 0 0v-0.2V201c0-0.1 0-0.2 0-0.3s0-0.2 0-0.4 0-0.3 0.1-0.5l0.1-0.5c0-0.2 0.1-0.4 0.2-0.6 0.8-2.3 2-4.5 3.4-6.5 -0.1 0.2-0.8 1.2-0.6 0.9s0.4-0.6 1.1-1.6c1.3-1.8 2.7-3.6 4.3-5.3 0.4-0.5 1.4-1.6 2.1-2.3 0.3-0.3 0.4-0.4 0.7-0.7 -0.2 0.2-0.4 0.4-0.6 0.6l-0.2 0.2c-1.2 1.2-2.2 2.4-3 3.3s-1.3 1.6-1.7 2c0.5-0.6 1.2-1.5 2-2.4l0.3-0.4 0.2-0.2 0 0 0 0 0 0 -0.2 0.2 -0.5 0.4c-0.6 0.4-1.3 0.5-2 0.4 -1.3-0.1-2.7-1-4.2-0.9 0-1 0.6-1.2 1.4-1.4 1-0.2 1.9-0.7 2.6-1.5 -1.5 0.2-3 0.2-4.5 0.2 2.1-1.4 3.3-3.4 4.6-4.8 1.1-1.5 3.1-2 4.8-1.3 -0.4-0.9-0.9-1.9-1.3-3 1.6-3 1.5-5.9-1.1-6.9 0.4-1.9-6.7-2.3-2.5-2.1 -1.6-1.5-3.3-3.1-4.8-4.9l1.2-0.4c-0.6-3-3.3-5.6-5-8.7s-2.3-6.7 1.7-10.8c-1.5-1.9-3.2-4-2-7.6l4.2-0.9c-0.8-1.3 0.2-3.2 0.9-4.9s1.1-3.2-1.1-3.8c5.8-1.2 6.6-3.9 6.4-6.9s-1.3-6.5 0.1-8.3l-5.4-1.4c1-2.9 0.2-6.2-0.7-10.8L48 95.3c-1.4-2.4 0.2-4.4 2.4-6.4s4.8-4 5.8-6.6c1.6 1.1 0.5 2.2-0.9 2.7 6.4-0.9 6-4.6 5.4-8.8 -0.4-1.9-0.4-3.9-0.2-5.8 0.4-1.6 1.5-2.8 4-2.9 -0.7-2.2 0.4-2.7 2-2.8 -0.1 0.1-0.1 0.3 0 0.4 0.2-0.1 0.3-0.3 0.4-0.4 1 0 2.2 0.2 3.2 0.1 -1-0.3-2-0.4-3-0.4 0.3-0.6 0.6-1.2 0.7-1.9 0.2-0.9 0.3-1.7 0.3-2.6 1.5 1 3 2 4.4 3 0-0.1 0.1-0.2 0.1-0.3 2.3 0.3-1.1-2.5-4.6-4.6 -0.2-1.3-0.5-2.5-1-3.7 3.6 2.5 3.7 1.3 4 0.1 0.2-0.6 0.3-1.2 0.9-1.3s1.6 0.4 3.3 1.9c-0.5-0.9-0.7-1.9-0.5-2.9 0.2-1 0.4-2 0.7-3 0.3-1.2 0.3-2.4 0.2-3.6 -0.2-1.8-0.6-3.6-1.4-5.3 0.6 1.1 1.2 1.4 0.6 1.8 1.9 0.2 3.5 0.6 4-2.4 0.9 2.1 1.8 4.1 2.7 6.2 0-1.6 0-3.2 0.2-4.9 0.1-1.7 0.4-3.3 0.7-4.9 0.5 0.5 0.9 1.1 1.2 1.7 0.9 1.2 1.5 2.7 1.7 4.2 0.2 1.8 0.1 3.7-0.2 5.5 0.3-1.5 0.9-3 1.7-4.3 0.4-0.6 0.8-1.2 1.3-1.7 0.5-0.5 1-1 1.4-1.5l1.1-1.5c0.4-0.6 1-1.4 1.7-2.3l-0.8 4.4c0.3 0 0.8-0.3 1.3-0.8s1.1-1 1.7-1.4c1.1-0.8 2.2-1 2.1 0.9 0.1 1.9 0.9 3.8 2.3 5.2 0.6 0.7 1.3 1.3 2 1.9l0.6 0.5 0.6 0.5c0.5 0.4 1.1 0.8 1.8 1.3 4.9 3.8 11.4 9.2 14.7 16.4 2.8-5.9 3.2-3.8 3.7-1.2s1.4 5.8 4.4 2c-1.1 2.9-0.4 5.5-3.8 6.3 3.9 0.9 5.5 3.4 7.4 5.3s3.9 2.9 8.3 0.6c-0.8 3.1-3.7 3-3.9 4.9 0.9-0.2 3.4-1 3.2 0.9s-2.3 1.6-4 2.1c7.2 3.6 12.4-4.4 16.9-11.8 1.3 5.4 3.4 5.7 8.2 1.7 -0.1 3.1 0.6 6.8-4 5.7 0.5 0.4 1.6 1.2 2.9 2.2 1.5 1.1 3 2 4.6 2.8 3.3 1.6 6.8 2 8.2-1.2 0.1 2 3.1 1.8 4.1 1.2 5.2 2.3 5.5 3.1 11.1 4.1 -0.4-0.5-0.8-1-1.2-1.6 2.3-3.7 3.5-3.9 4.8-3s2.5 2.7 4.8 2.7l-0.3 0.8c0.8 0.9 1.7 1.7 2.7 2.4 0.6 0.4 1.2 0.8 1.9 1 0.7 0.3 1.5 0.3 2.2 0 1.2-0.4 2.3-0.7 6.8 3.7l0.3-5.3c1.4-5.5 3.2-3.5 5.7-0.6 1.2 1.5 2.6 2.9 4.1 4 1.5 1.1 3.1 1.5 4.7 0.6l-1.8-3.2c1.8-1.8 3.6 2.2 5.6 6.9s4.1 10 5.8 10.7c0.7 1-1.2 1.6-2.3 2.2 4.4 3.5 4.7 1.8 4.8-1s-0.1-6.6 3.1-7.3c1.1 3.7-1.7 9.5 2.6 10.2 0.5 0.8 1.6 0.4 2.9-0.5s3-2.3 4.6-3.5c3.4-2.5 6.9-4.5 9.3-0.9 -1-2.9-2.1-5.8 0.4-7.9 1.2-0.1 2.4 0.4 3.2 1.2 0.5 0.4 1.1 0.9 1.7 1.4s1 1.1 1.6 1.5c0.5 0.4 0.9 0.8 1.5 1.2 0.4 0.3 0.9 0.4 1.4 0.4 0.8 0 1.7-0.9 2.7-3 0.2 0.8 0.2 1.5 0.1 2.3 0.7-0.5 1.4-0.9 2.1-1.2 0.4-0.2 0.9-0.4 1.3-0.6l1.3-0.6c0.9-0.4 1.8-0.9 2.7-1.4 1-0.6 1.9-1.3 2.7-2.2 -3 8.7-0.3 7.5 3.6 7.8 0.9 0 1.9 0.1 2.8 0.3 0.7 0.1 1.4 0.5 1.9 1 0.8 1 0.1 2.6-3 5.3l0.6 0.5 0.6 0.6 1.2 1.2 1.2 1.3c0.4 0.4 0.8 0.9 1.1 1.3l-1.5 0.8c0.5 1.8 2 3.2 3.8 3.5 2 0.4 4.1 0.5 6.2 0.4 -0.6 1.6-2.4 1.4-3.2 1.7 -0.1 1.6-0.1 3.1 0 4.7 0.1 0.5 0.2 1.1 0.4 1.6 0.2 0.5 0.4 0.9 0.8 1.3 0.9 0.9 1.9 1.6 3.1 2.1 1.4 0.7 3.3 1.5 5.7 2.7l-5.2 1.9c0.9 0.3 0.9 1.2 0.6 2.5 -0.2 0.6-0.4 1.4-0.7 2.2s-0.6 1.7-1 2.6c-1.3 3.6-2.3 7.5 0.9 11.1 -0.9-0.1-1.7-0.3-2.5-0.8 1.6 2 1.4 4.3 0.5 6.5 -1.1 2.2-2.5 4.2-4 6.1 -0.6 0.8-1.1 1.7-1.6 2.6 -0.2 0.4-0.3 0.8-0.3 1.2 0 0.4 0 0.8 0.1 1.2 0.4 1 1.1 1.9 2.1 2.5 1.6 1.1 3.3 2.1 5.1 2.8 1.1 2.2 2.1 4.4 3.1 6.8 1.9-3.3 3.9-2.5 5.9-0.9s4 3.9 6.1 2.7c0.1 1.8-2.1 3.4-4.2 3.9s-4 0-3.9-2l1.1-0.2c-4.6-2.4-6.3-0.5-7.7 1.5 -0.6 1-1.3 1.9-2.2 2.6 -0.9 0.6-1.9 0.7-3.5-0.2 -1.4 2.9-3.3 5.6-5.6 7.8 -2.2 2.1-4.7 3.9-7.4 5.4 -5.3 2.9-10.8 4.4-16 6.3 1.5 2.3 2.9 4.6 4.5 6.8 -0.7 0.3-1.4 0.4-2.2 0.7s-1.5 0.4-2.2 0.6c-1.8-1.4-3.5-5.4-0.7-6.1 -1.5-1.8-2.3-0.6-2.7 1.4 -0.4 1.8-0.6 3.7-0.4 5.5 -3.5-0.7-3.5-3.1-3-5.3s1.4-4.1 0.6-4c-0.6 0.4-1.4 0.8-2 1.2l0.8 0.8c-0.5 1.9-0.6 3.6-1 5 -0.4 1.5-1.7 2.6-3.3 2.6 -2.7-1.1-2.1-4.7-3.1-4.8 -0.1-0.6-0.4-0.8-1.4 0 -1.8 0-3.7 0-5.6 0 0.9 2.1 1.9 4.1 2.9 6.1 -2.3 3.4-5.7 0.1-2.3 7.1 -2.6-5.3-8.1-6.1-13.7-6.3s-11-0.1-12-1.9c-4.5 4-8.5 3.3-13.1 1.6 0.9 1.5 0.1 8.7-4 6.8 2.5-7 1-9-1.1-10.7s-4.9-3.2-4.8-8.7c0.3 3.8-2.6 3.3-5.4 3.2s-5.6 0-5.1 5.5c-1.4-1.2-1-2.5-0.3-4s1.5-3.3 1-5.4c-4.8 1.1-8.5-1.6-11.9-4.9s-6.3-7.3-10.4-9.1c-1.3 1.5-1.7 4.8-5 6 0.5-3.6 1.2-7.1 2.1-10.6 -0.9-0.1-3 1.8-4.6 2.8s-2.9 1.1-1.7-2.4c-0.8 1.5-2 3.8-3.3 3.4l-0.8-2.4c-0.2-0.7-0.4-1.3-0.6-1.9 -0.4-1.1-0.9-2.2-1.4-3.3 -1-2-2.2-3.9-3.2-6 -0.9-1.9-1.5-4-1.7-6.1 -0.2-2.2 0.2-4.4 0.9-6.4l0.3-0.8 0.5-1.1c0.3-0.7 0.7-1.5 1.1-2.3 0.9-1.7 1.9-3.3 3-4.9 2.3-3.4 5.4-7 9.1-11.5 -2.2 1.8-3.3 1.8-3.8 1.2s-0.3-2.1-0.1-3.7c-1.2 1.9-4.7-0.8-7.4-0.8 3.3-3.8 6-8 8-12.5 -3.6-1.2-4.1-4.7-4.9-8.3 -0.3-1.6-0.9-3.2-1.7-4.6 -0.8-1.3-2.3-1.9-3.7-1.6 0.9 1.1 1.6 2.3 2.4 3.6 -2.2-0.7-4.6-0.4-6.6 0.7 -2.2 1.2-4.2 2.5-6.2 4 -2.1 1.5-4.4 2.8-6.9 3.9 -2.4 1-5 1.7-7.6 1.9 0.8 0.1 1.6 0.4 2.2 1 0.3 0.4 0.3 1-0.1 1.4 -0.6 1-2.3 2.1-3.8 3 -0.7 0.4-1.5 0.9-2.2 1.5 -0.6 0.4-1 1-1.3 1.6 -0.4 1.2 0.4 2.7 3.3 5.1 -2.4 0.8-3-1.9-5.6-1.8 4 2.5 4.4 4.7 1.3 8l-0.9-0.8c-0.5 2.7-1.3 5.3-2.4 7.8 -0.6 1.5-1.2 3-1.7 4.4l-1.8 4.5c-1.3 3.2-2.3 6.6-3.1 10 -0.9 4.3-1.2 8.8-0.8 13.2 1.6-0.9 3.1-1.8 4.7-2.6 0.1 1.2 0 2.5-0.3 3.7 -0.3 1.5-0.9 2.6-1.2 3.9 2.3 0.5 3.2 0 3.4-0.9 0.1-1.2-0.1-2.4-0.4-3.6 -0.3-1.4-0.5-2.9-0.1-3.8s1.6-1.4 3.9-0.9c-1.4 1.1-2.4 2.6-2.7 4.4 -0.2 1.2-0.2 2.4 0 3.6 0.1 0.6 0.2 1.3 0.4 1.9s0.4 1.3 0.7 1.9c0.5 1.3 1.1 2.6 1.8 3.9 0.7 1.3 1.4 2.6 2.1 3.8 2.8 4.9 5.3 9.3 2.7 13.9 1.2 1.3 1.9 1.5 2.5 1.3s0.9-0.9 1.3-1.6c0.3-0.7 0.7-1.2 1.3-1.6 0.6-0.2 1.3 0 2.2 1 -0.4 1.1-0.8 2.2-1.2 3.4 1.3-0.7 2.6-1.4 3.9-2.1 2.1 2.9 0.8 7.1-0.8 9.3 -0.5-0.8-2.4-1.1-3.3-1.5 0.6 3.1 3.4 5.1 6.2 6.3s5.3 1.9 5.6 2.8c-1-1.5-2-3.1-3-4.6 3.4 1.6 6.7 3.5 10 5.4s6.6 3.9 10 5.6c6.8 3.4 13.9 5.9 21.1 5.1V249c5.3-0.4 6.8 0.8 8.4 2.4s3.3 3.5 8.7 3.9l-0.5 0.5c2.4-1.8 5.5-2.3 8.4-1.4 -1.6 1.1-0.7 2.8 0.1 4.4s1.6 3.3-0.5 4.5c5.8-1.2 7.2-2 8.3-3.3 1.7-2.6 3.7-5 5.9-7.2l0.9 4.3c2.8-3.4 3.2-5.2 8.3-5.8 -2.2 1.5-1.6 3.1-1 4.9s1.2 3.7-1.5 5.7c2.6 2.5 5.1 3.3 7.3 3.1 2.1-0.2 4.1-0.8 6-1.9 3.6-1.7 6.1-3 9 3.5 1.2-2.9 1.2-4.7 0.5-5.8 -0.8-1.1-2-1.7-3.4-1.8 -2.7-0.4-5.7 0.2-4.3-1 -1.2-1.9-0.1-3.9 1.6-5.4s4.1-2.5 5.7-2c1.7 0.1 3.3 3.5 5.9 6.9 1.2 1.7 2.8 3.2 4.5 4.4 1.9 1.2 4.1 1.6 6.3 1.2 -1 0.1-0.9 1-1.9 1.1 2 1.1 3.7-0.1 5.4-1.3s3.5-2.1 6.3-0.3c0.4-3.6 1.8-3.9 2.9-4.4s2-1.2 1-5.4c-1.3 0.8-2.5 1.5-3.8 2.2 -1.3 0.7-2.6 1.4-3.9 2 2.1-1.7 3.6-5.3 5.5-8.2 0.8-1.4 1.9-2.6 3.3-3.5 1.6-0.9 3.5-1.1 5.2-0.7 0.1 1.8-1.1 4.9-2.3 6.7 1.6 0.8 2.5 0 3.4-0.9s1.8-1.6 3.5-1c0.7 2.1 0.5 3.5-0.3 4.6 -1 1.1-2.3 2-3.7 2.6 -3.1 1.4-6.8 2.6-8.7 6.5 0.9 0.6 2 0.6 2.9-0.1 1-0.7 1.9-1.4 2.7-2.2 1.6-1.4 2.8-2 3 2.9 0-3.2 0.6-4.9 1.5-5.9 1.1-0.9 2.4-1.4 3.8-1.5 1.6-0.1 3.1-0.6 4.4-1.4 1.4-0.9 2.5-2.4 2.9-5.3l2.1 4.8c0.6-1.3 1.4-4.6 3.2-5.6 0.2 2.6 0.2 5.2 0.2 7.8 0.4-1.6 1.5-3 3-3.8 1.5-0.6 3-1 4.6-1.1 1.7-0.1 3.3-0.4 4.9-0.9 1.5-0.4 2.8-1.5 3.4-3 -2.4 2.1-4.1 2.9-5.2 2.9 -1 0-1.9-0.6-2.3-1.5 -1.1-1.8-1.8-4.4-4.9-4.5 1.8-3.5 3.5-4.9 5.3-5.3s3.9 0.3 6.1 0.9 4.6 1.3 7.1 0.8 5.2-2.1 7.5-6c-0.4 1.2-2.5 2.4-4.4 2.7s-3.4-0.3-3.2-2.4c3-1.6 7.1-3.8 10.6-3.9 2.9-5.1 1.5-5.4-0.6-5.3s-4.7 0.7-4.7-2.1c3.7 0.3 3.9-1.3 3.2-3.4 -0.4-1-0.9-2.3-1.4-3.5 -0.5-1.2-0.8-2.4-0.8-3.7l4.7 2.5c2.2-2.2 2.6-3.9 2.4-5.2 -0.5-1.3-1.3-2.3-2.5-3 -1.1-0.6-1.9-1.6-2.5-2.6 -0.4-1 0.1-2.3 1.9-4.2 1.8 2.2 3.5 4.4 5.2 6.8 0.1-1.9 0.3-3.9 0.3-5.8 1.8 1 3.5 2.1 5.3 3.2 -1-3.7-1.1-5.8-0.6-7.7 0.3-1 0.7-1.9 1.3-2.8 0.5-1 1.2-2 2-3.4 -2.2 0.1-4.3-0.6-5.9-2 -1.8-1.3-2.7-3.6-2.3-5.8 3.7-2.6 4.6 2.9 5.1-4.1 1.5 1 3.2 2.2 3.9 3.4s0.2 2.4-2.5 3.4c1.6 0.7 2.9 2.3 4.5 3 2-1.4 3.1-3.7 3.1-6.2 0.1-1.1 0.1-2.2 0-3.3 -0.1-0.9-0.1-1.7-0.1-2.6 -0.2 1-0.8 2-1.6 2.7 -1-1.9-1.9-3.9-2.9-5.7s-2.1-3.7-3.2-5.4c2.1-1.4 3.6-0.1 5.1 1.3 -0.4-2.2-2.8-3.8-3.1-6.8 4.3 1 8.8 0.9 10.5 5.6 -0.7-1.8-1.4-3.6-2.1-5.3s-1.5-3.4-2.3-5.1c1.9-0.6 5-5.4 6.6-4.1 0.5-1.6 0.4-3.4-0.4-4.8 -0.9-1.8-1.9-3.6-3.1-5.2 -1.2-1.7-2.3-3.5-3.2-5.4 -0.8-1.8-1.1-3.8-0.7-5.7 -1.2-0.4-2.2-1.2-2.8-2.3 -0.3-3.6 0.4-7.2 0-10.9 -0.3-4.2-2.6-8.1-6.3-10.3 1.7-2.5 3.4-5.1 5-7.8 -2.4-3-3.8-0.2-5.6 1.9 -0.8 1.1-1.9 1.8-3.2 2.1 -1.3 0.1-2.7-0.6-4.7-2.7 -1.5-1.4-1.9-2.5-1.8-3.4 0.2-0.9 0.9-1.7 1.8-2.2 1.9-1.2 4.6-2.1 4.7-4l-4.9-1.4c-1.8-0.5-3.6-1.2-5.3-2 -1.7-0.8-3.1-1.9-4.2-3.4 -1.3-1.7-2-3.8-2.1-5.9 1.2 0.4 2.2 1.2 3 2.2C322.2 84.4 323 85.2 323.9 86zM245.1 60c1.1-1.1 3.6-4.6 4.5-1.4C248.3 64.7 247.1 61.8 245.1 60L245.1 60zM158.7 51.4c1.6-1.1 2.3 0.3 2.7 2.8C160.2 54 159.2 53.2 158.7 51.4L158.7 51.4zM57 173.8c-0.1 0-0.2 0-0.3 0C57.8 171.1 57.3 172.1 57 173.8zM56.8 178.6c0.8 0 1.5-0.3 2-0.9 -1.3 0.4-1.8-0.4-2-1.5C55.8 177.1 55.2 178.1 56.8 178.6L56.8 178.6zM250.2 221.1l1.1 1.2C249.6 224.2 249.9 222.7 250.2 221.1L250.2 221.1z"
     
  />
  <path
    class="st1"
    d="M170.9 49.5c-0.2 1-0.4 1.9-0.8 2.8C170.9 51.7 171.3 50.6 170.9 49.5z"
     
  />
  <path
    class="st1"
    d="M347.8 133c0 0.1 0 0.2 0 0.3 0.3 0.1 0.7 0.1 1 0.1L347.8 133z"
     
  />
  <path
    class="st1"
    d="M2.7 100c0.8-1 2-1.7 3.2-2C4.6 97.7 3.4 98 2.7 100z"
     
  />
  <path
    class="st1"
    d="M44 194.4c3.8 2.3 6.2 4.4 7.3 5.8 -0.4-0.6-0.9-1.1-1.4-1.6 -0.2-0.2-0.5-0.5-0.8-0.7l-0.4-0.3 -0.4-0.4c-0.5-0.4-1-0.8-1.5-1.1l-0.4-0.2 -0.4-0.3 -0.9-0.6 0.8 0.5C45.3 195.1 44.6 194.7 44 194.4z"
     
  />
  <path
    class="st1"
    d="M64.6 171.7c-0.6-0.6 0.1-1.1-0.5-1.7l-2.5-0.2C61.5 172 63.2 173.8 64.6 171.7z"
     
  />
  <path
    class="st1"
    d="M44.8 193.7c4.2 1.6 3.4-0.5 3.1-2.7 0 0.1 0 0.2-0.1 0.4 -2.9-1.1-4-1-4.2-0.4S44.2 192.7 44.8 193.7z"
     
  />
  <path
    class="st1"
    d="M47.9 190.5c-0.1-0.7 0-1.4 0.4-1.9C45.9 187.7 47.6 189.2 47.9 190.5z"
     
  />
  <path
    class="st1"
    d="M61.7 181.1c-0.6 1.2 4.9-2.9 3.6-1.6 2.5-1.4 0.6-1-1.5-0.6 -0.9 0.2-1.9 0.5-2.7 0.9C60.6 180.2 60.6 180.8 61.7 181.1z"
     
  />
  <path
    class="st1"
    d="M59.2 197.2c-1.8-0.3-3.7-0.6-5.5-1 1.3 0.9 2.5 1.8 3.7 2.8C58 198.4 58.6 197.8 59.2 197.2z"
     
  />
  <path
    class="st1"
    d="M47.9 199.2c0.4 1.1 1 2.2 1.7 3.3 0.3-0.6 0.9-1.1 1.5-1.3 -0.6-0.5-1.2-1.1-1.7-1.7C48.9 198.9 48.4 198.6 47.9 199.2z"
     
  />
  <path
    class="st1"
    d="M51.1 201.2c0.3 0.2 0.6 0.3 0.7 0.2s0.1-0.1 0.2-0.3 0 0 0 0.1c0 0.1 0 0.1 0 0.2 0-0.1 0-0.1 0-0.2 0-0.1 0-0.2 0-0.3v-0.2c0 0 0 0-0.1 0.1s-0.2 0.1-0.3 0.2S51.3 201.1 51.1 201.2z"
     
  />
  <path
    class="st1"
    d="M58.4 203.1c-0.5 0.2-1.1 0.3-1.7 0.4 -0.7 0.7-1.5 1.3-2.4 1.7C55.8 204.9 57.2 204.2 58.4 203.1z"
     
  />
  <path
    class="st1"
    d="M31.2 161.9c-0.9-1.3-1.7-2.5-2.5-3.8 -1.9 0-2.8 1.4-1.7 2.8C28.5 161.6 29.6 163 31.2 161.9z"
     
  />
  <path
    class="st1"
    d="M20.8 179.4c0.6-1.6 1.8-2.1 3.2-3.4l-6.5 2.1C18.7 178.5 19.8 179 20.8 179.4z"
     
  />
  <path
    class="st1"
    d="M15.2 166.5c-2 0.1-7-5.6-5.1 0.4C12 167 14.8 171.2 15.2 166.5z"
     
  />
  <path
    class="st1"
    d="M22.6 96.7l-0.2 1.1 10.9 2.5C29.7 99.2 26.2 98 22.6 96.7z"
     
  />
  <path
    class="st1"
    d="M28.5 25.6c-3.3 1.8-2.2 3.3-1.1 4.5 1.1 1.3 2.2 2.4-1 3.8 1.2 2.8 5.1-2.2 6 0.5 0.2-2.4 0.9-3.8 0.7-5S31.9 27.3 28.5 25.6z"
     
  />
  <path
    class="st1"
    d="M32.3 34.4c0 0.9 0 1.7 0.2 2.6C32.6 36.2 32.6 35.3 32.3 34.4z"
     
  />
  <path
    class="st1"
    d="M159 124.2c0.2-1 0.3-2.1 0.5-3.1s0.2-2.1 0.3-3.2c-0.8 1.6-1.6 3.1-2.6 4.7C157.8 123 158.4 123.6 159 124.2z"
     
  />
  <path
    class="st1"
    d="M148.1 116.7c2.1-1.3 4.1-2.5 6.1-3.9 -2.4-0.2-4.8-0.2-7.2-0.2C147.8 113.5 149.3 115.3 148.1 116.7z"
     
  />
  <path
    class="st1"
    d="M236.8 45.5l-0.3 1.7c0.4 1.9 1.1 2 2.5 2.3L236.8 45.5z"
     
  />
  <path
    class="st1"
    d="M292.6 56.2c-0.4-0.2-0.9-0.4-1.3-0.6 0.1 2.3 0.2 4.6 0.2 6.9C291.9 60.5 292.2 58.4 292.6 56.2z"
     
  />
  <path
    class="st1"
    d="M345.1 93.1c-0.9-2.3-3.7-4-4.8-6.3 1.9 2 1.5 4.7 1.3 6.3S341.8 95.3 345.1 93.1z"
     
  />
</svg>