<svg width="0" height="0" class="hidden">
  <symbol xmlns="http://www.w3.org/2000/svg" viewBox="0 0 247.88 241.16" id="spiral">
    <path d="M211.92 188.76c-10.11-.81-15.52-7.14-19.92-14.43-3.7-6.11-6.7-12.64-10.15-18.91-.58-1-1.87-1.71-2.83-2.56-.89 1.09-2.45 2.11-2.55 3.26-.37 4-1.2 8.42-.12 12.17 4.23 14.72 9 29.27 13.82 43.82 2.53 7.67 5.53 15.19 8.17 22.82.43 1.25.06 2.78.07 4.18-1.72-.07-3.91.53-5.07-.3-6.45-4.63-12.23-9.35-14.86-17.86-3.63-11.77-11.86-21-20.66-29.63-3.25-3.16-5.78-2.27-7.3 1.35a16.44 16.44 0 00-1.22 7.73c.45 4.41.62 9.37 2.8 12.94 3.11 5.1-.29 9.59.47 14.26-1.73.22-4.34 1.27-5.06.52a100.68 100.68 0 01-9.62-11.86c-2.84-4.09-5-8.66-7.81-12.76-2-2.84-4.41-2.56-5.4.86a29.49 29.49 0 00-1.29 9.3c.33 7.47 1 14.93 1.84 22.35.4 3.53-.56 4.14-3.82 3.21-1.22-.35-2.82.74-4.28 1-1.76.35-4.35 1.4-5.19.63-3.6-3.29-7.86-6.62-9.75-10.88C95 213.77 88.58 197.2 82 180.71c-1.32-3.3-3.17-3.09-5.89-2-9.52 3.76-9.55 3.7-16.32-4.45-6.16-7.41-5.48-9.24 2.92-13.94 8.08-4.52 16.17-9.3 23.4-15 16.79-13.34 34.14-26 48.38-42.38 11.79-13.58 16.34-29.77 18-46.71 1.81-18.52-17.69-37.35-36.29-37.79-25.4-.6-47.5 9.07-68.59 21.44-6.24 3.65-11 10.09-16 15.64S22.39 66.74 18 72.55c-2.14 2.81-4.51 3.48-7 1A118.35 118.35 0 01.25 61.5c-.7-.92.19-3.74 1.15-5.14 18.53-27 44-44.21 75.56-52C88 1.63 99.54.57 110.91 0 120.7-.44 129 4.86 137 10.12c2 1.28 4.4 1.82 6.55 2.84 1.56.74 3.39 1.4 4.44 2.64 23.25 27.65 46.35 55.4 69.64 83.05 6.51 7.72 13.93 14.7 20.21 22.6 3.94 5 6.91 10.82 9.61 16.61 1.6 3.41-1.53 5.87-5.59 4.52s-8.18-3.07-11.5.93c-3.45 4.17-2.86 8.87-.89 13.66.94 2.28 1.14 4.86 1.67 7.3-2.45-1.05-5.24-1.66-7.28-3.24-6.43-4.94-12.52-10.31-18.88-15.35-1.16-.91-3.85-1.81-4.29-1.32a7.25 7.25 0 00-1.68 4.89 33 33 0 001.72 9.27c3.43 9.26 7.19 18.39 10.8 27.59a14.46 14.46 0 01.39 2.65zm-46.7-140.31l-1.74 1.22c9.54 31.05 32 54 49.58 79.61l10.19-8.5zm-31.17 87.05c-5.32 4.15-10 8.11-15.05 11.63-3.09 2.16-3 4.12-1.29 7.07 4.28 7.52 8.3 15.2 12.43 22.8 1 1.92 2.13 3.81 3.83 6.83 3.12-10.32 7-17.84 20.18-12.32zM106.21 212l1.86-.65c-.32-2.06-.5-4.15-1-6.17-2.37-10.15.77-17 9.93-22.44 1.08-.65 2-3.51 1.46-4.63-2.91-6.15-6.32-12.07-9.48-18.1-1.35-2.58-2.87-2.74-5.07-.92-4.48 3.71-9.2 7.14-13.55 11a5 5 0 00-1 4.49c3.57 8.76 7.39 17.42 11.25 26.06 1.73 3.83 3.73 7.56 5.6 11.36zm60.51-131.33c-2.35 7.56-4.47 14-6.26 20.5-.31 1.14.52 2.84 1.28 4 3.44 5.1 7.06 10.07 10.58 15.11 3.25 4.65 6.46 9.33 10.26 14.82 2.11-7.69 4.5-13.43 13-12.26zM160 158.89c.44-2 .77-2.59.68-3.14a27.52 27.52 0 015.14-22.15 3.59 3.59 0 00.58-3.07c-3.35-6-6.91-12-10.8-18.59-2.25 2.42-4 4.11-5.53 6-10 12.26-9 7.16-2.16 20.52 3.44 6.67 7.63 12.96 12.09 20.43z"></path>
    <path d="M139.76 59.18l-2.41-1.29c0 3.56-.19 6.92 0 10.24.84 12.08-5.14 21.47-12.19 30.22-14 17.4-32.35 28.37-53.67 34.56a9.7 9.7 0 01-3.91.58c-14.87-2.21-29.21-6.05-40.88-16.14-8.88-7.68-8.18-17.22-3.73-26.86C35.67 63.08 55.54 43.58 86 38.41c17.11-2.91 34.28-.28 48.67 11 2.67 2.1 4.05 5.84 6 8.83zm-93 48.3c.26 8.52 8.94 14.87 16.28 11.31 8.95-4.33 18.05-8.76 26-14.59 13.58-9.93 24.48-22 23.91-40.62a5.59 5.59 0 011-3.22c3.28-4.5 2-9.71-3.51-11.12-10.06-2.58-19.06 1.76-28.11 5.51 1.61 1.1 3.27 1.33 4.69 2 3.77 1.87 9.48 3.07 10.76 6.08 3.81 9 2.92 18.59-2 27.22-7.31 12.69-19.18 17.86-33.22 18.48-5.26.25-10.56-.66-15.77-1.05zm-.58-10.42c2.84.14 4.47.13 6.08.33 9.79 1.2 22.8-10.38 22.16-19.9-.21-3.16-3.63-6.2-5.88-9.06-.5-.64-2.86-.81-3.39-.27-3 3.13-5.72 6.54-9.15 10.57 5.15.4 8.41 1.36 6.72 6.46S58.4 90.92 54.07 88c-.78-.52-3.31.25-4 1.19-1.49 2.1-2.33 4.65-3.86 7.87z"></path>
  </symbol>
  <symbol xmlns="http://www.w3.org/2000/svg" viewBox="0 0 237.26 169.26" id="stack">
    <path d="M141 110.51c-27.42-1.86-54.83-3.81-82.26-5.52-7.3-.46-14.65-.12-22-.28-4.14-.09-6 1.91-6.41 5.89-.45 4.3-1.11 8.58-1.81 12.86-1.54 9.3-3.16 18.59-4.75 27.89-.09.49-.24 1-.28 1.47-.84 10.42-.83 10.42-11.32 8a32.48 32.48 0 00-5.38-1.09c-5.6-.36-8.28-3.13-6-8.47 6.78-16 4.81-33.47 8.58-50 .9-3.94 1.84-6.19 6.52-6 24.77.94 49.56 1.59 74.35 2.39q16.73.54 33.46 1.28c25.76 1.17 51.51 2.43 77.27 3.59a47.2 47.2 0 009.44-.26c8.93-1.41 16 3.7 23.68 6.55.89.33 1.64 2.13 1.75 3.31.54 5.63 1 11.27 1.15 16.92.22 8.64.14 17.28.18 25.93a66.79 66.79 0 01-.06 7.49c-.73 6.58-1.89 6.59-8.23 4.8-9.09-2.58-13.66-6.94-12.52-17.2 1.09-9.7.38-19.58.62-29.38.1-4.06-.74-6.31-5.62-6.59-23.44-1.37-46.86-3.12-70.28-4.73z"></path>
    <path d="M196.94 123.16c-1.55 5.41-2.65 10.25-4.4 14.83-.56 1.46-2.9 3.29-4.32 3.2-17.88-1.07-35.75-2.39-53.61-3.81-18.06-1.38-36.08-3.38-54.16-4.44-11.42-.69-22.91-.5-34.35-.2-4.71.12-6.63-1.13-5.7-5.86a106.18 106.18 0 012.32-11.19 5 5 0 013.83-2.69c18.71.88 37.41 2 56.12 3.08q21.4 1.26 42.81 2.66 23.37 1.53 46.73 3.24a28.64 28.64 0 014.73 1.18zM67.1 164.58c-8.48 0-17-.11-25.45 0-4.1.07-6-1.33-5.07-5.61a4 4 0 00.05-.5c1.41-13.08 1.93-13.93 14.72-13.6 40.56 1.06 81.13 2.43 121.69 3.67 4 .12 8 .14 12 .26 3.62.11 5.86.83 3.67 5.37a28.79 28.79 0 00-2.26 9.5c-.44 4.27-2.62 5.73-6.63 5.53Q127 166.58 74.1 164c-2.33-.12-4.66 0-7 0zM131.69 59H97.84c-4 0-6.4 1.14-6.92 5.74-.78 6.93-2.4 13.75-3.44 20.66-.55 3.61-2.23 5.11-5.77 4-4.73-1.53-9.48-3-14.07-4.91a4.3 4.3 0 01-1.83-3.63C67.29 71 68.69 61.07 71 51.38c.52-2.23 4.34-5.38 6.52-5.29 29.4 1.2 58.77 3 88.17 4.38 9.76.44 18.67 3.22 27.63 6.77 3.95 1.56 5.76 3.89 5.75 7.58-.05 8.47-.23 17-.85 25.41-.38 5.17-2.89 6.22-7.34 3.45-15-9.28-13.29-5.73-11-23.6.64-5-.84-6.69-5.29-7.1-15.77-1.43-31.5-2.9-42.9-3.98z"></path>
    <path d="M116.3 65.73c16 1.7 32 3.36 48 5.1 4.26.47 6.08 2.41 3.46 6.64a10.33 10.33 0 00-1.27 3.24c-1.83 8.74-1.79 8.52-10.83 7.88-17.53-1.24-35.1-2.07-52.61-3.47a7.94 7.94 0 01-5.65-4.42 27.39 27.39 0 01-.77-10.81c.11-1.15 2.6-2.86 4.1-3 5.13-.37 10.3-.14 15.45-.14zm40.75-50.04c.24 4.77.54 9.25.65 13.73a12.44 12.44 0 01-.82 3.74c-.93 3.1-1.76 6.24-3 9.23-.65 1.59-2 2.91-3 4.35-1.09-1.48-3-2.9-3.12-4.44-.38-5.46-.23-11-.13-16.45.15-8.53.12-9-8.46-9.93a44.88 44.88 0 00-14.28 1c-1.75.39-3.71 3.41-4.13 5.51-1 5.3-1.13 10.78-2 16.14-.16 1-2.14 2.64-3 2.47-1.23-.25-3.15-1.91-3.1-2.88.68-11.55 1.61-23.09 2.7-34.62a4 4 0 012.7-2.7C129.7.35 141.25-.06 152.8 0c1.43 0 3.76 2.76 4.06 4.52.63 3.73.19 7.63.19 11.17z"></path>
    <path d="M128.91 28.25a69.89 69.89 0 011.66-8.3c.29-1 2.08-1.8 3.3-2 .71-.12 2.39 1.09 2.39 1.71 0 7-.08 14.06-.5 21.06 0 .76-2.43 2-3.54 1.88s-2.37-1.86-2.56-3.05c-.51-3.25-.48-6.55-.75-11.3z"></path>
  </symbol>
  <symbol xmlns="http://www.w3.org/2000/svg" viewBox="0 0 238.02 250.11" id="stairs">
    <path d="M5.65 229.43a278.11 278.11 0 01-5.36-62.85c.36-15.1.07-30.22.2-45.34 0-4.49.74-9 .7-13.46C.91 74.52.69 41.25 0 8c-.1-5 1.71-6.58 5.91-6.67C22.06 1 38.2.76 54.35.52 65.66.35 77 .44 88.27 0c5.57-.21 7.59 1.21 8 7.39 1.42 20.72 3.87 41.37 5.74 62.07.47 5.1 3.79 5.65 7.65 5.68 9.34.09 18.67 0 28 .14 8.33.13 16.65.56 25 .7 3.07 0 4.25 1.08 4.58 4.35 1.54 15.37 3.62 30.7 5.07 46.08a91.39 91.39 0 01-.26 17.34c-.52 5.53 1 7.85 7 7.71 13.46-.33 26.94 0 40.4-.21 4.43-.09 6.33.68 6.9 5.79.84 7.53 3.77 14.8 4.86 22.33 2.28 15.71 3.94 31.51 5.85 47.27a10 10 0 00.07 2c2.44 6.79.18 11.14-6.7 13.17-.14 0-.25.22-.34.35-7.67 11-19 7.44-29.38 7.26-11.48-.21-23-.55-34.41-1.78a247.93 247.93 0 01-32.3-5.52C92.18 231.87 50.16 224 5.65 229.43zm176.69-71v.49c-8.14 0-16.29.11-24.44 0-4.12-.07-6.22-1.76-5.64-6.63.84-6.91 1.57-14 .9-20.9-1.43-14.89-3.65-29.71-5.94-44.5-.25-1.61-3-3.94-4.66-4-10.63-.67-21.31-.75-32-1.13-7.16-.25-14.35-.3-21.43-1.24-2.38-.32-6.15-2.87-6.38-4.75-1.88-15.34-3.06-30.76-4.45-46.15-.6-6.63-1-13.28-1.94-19.87a4.67 4.67 0 00-3.26-3.08C57.8 6 42.47 5.68 27.15 5.14c-5-.14-6.95 1.35-6.72 6.86.64 15.14.53 30.31.9 45.46.36 14.49 1.37 29 1.32 43.44 0 12.8-1.47 25.6-1.69 38.41-.17 9.63.56 19.27.94 28.9.47 11.76 1.07 23.51 1.44 35.27.14 4.52 2.4 5 6.22 4.47a66.79 66.79 0 0111-.47c30.29.43 59.79 6.13 89.06 13.39 7.58 1.88 15.1 4.6 22.8 5.28 18.05 1.6 36.18 2.39 54.3 3.14 11.47.48 11.48.19 11.06-11a8.34 8.34 0 000-1c-3.31-17.91-6.54-35.84-10.1-53.71-.3-1.49-2.76-3.43-4.4-3.62-6.97-.88-13.97-1.1-20.94-1.53z"></path>
    <path d="M197.39 11c1.61 19.82 2.66 39.09 4.88 58.22 2.06 17.82 5.11 35.55 8.31 53.21 1.07 5.93-.61 8.53-6.14 10-11.93 3.21-12.22 3.4-14.08-8.47-3.13-20-6.07-40.14-8.52-60.28-.64-5.33-3-6.24-7.37-6-13.64.77-27.27 1.55-40.91 2.18a126.89 126.89 0 01-15.48-.07c-1.64-.13-4.37-1.91-4.52-3.18-1.57-13.87-2.69-27.8-4-41.7-.4-4 1.49-5.32 5.21-5.34 21.6-.07 43.19-.37 64.79-.28 6.04.09 12.12 1.18 17.83 1.71zm-43.93 5.6v-.21c-6.15.28-12.31.77-18.46.75-4 0-5.46 1.64-5 5.35 1 8.07 2.27 16.11 3 24.2.34 3.79 1.68 5.41 5.5 5.19 12.61-.73 25.22-1.52 37.85-1.93 3.85-.12 4.45-1.82 4.13-5-.72-7.27-1.26-14.57-2.1-21.83-.49-4.2-2.32-7-7.4-6.66-5.84.46-11.69.18-17.52.18zm-32.01 84.13c1.64.18 2.45.36 3.26.35 10.27-.11 10-.11 10.34 10.38.77 21.43 2.06 42.84 2.79 64.27a65.45 65.45 0 01-1.58 18c-.45 1.81-5.42 3.61-8.24 3.5-23.6-.9-47.18-2.19-70.76-3.52a143.64 143.64 0 01-16.28-2c-1-.18-2.39-2-2.48-3.21-1.8-21.86-3.65-43.71-5-65.6-.48-7.91.24-15.92.74-23.87.22-3.62 2.23-4.31 6-3.4 3.25.8 6.95-.48 10.41-.27 7.62.46 15.21 1.86 22.82 1.84 12.44 0 24.89-.85 37.33-1.37 2-.09 4-.34 6-.54 3.75-.4 6.43.29 4.65 5.44zm-66.72 21.91c1.13 15.83 2.06 30.92 3.46 46 .18 1.9 2.73 5 4.34 5.12 17.06 1.14 34.16 1.77 51.25 2.58 2.82.14 3.71-.9 3.54-3.8-1-16.75-1.94-33.49-2.6-50.25-.36-9.34-.2-8.92-9.6-8.41-13.73.75-27.52 1-41.26.73-9.41-.23-9.39-.82-9.13 8.03zM59.74 73c.58 3.74-1 5.24-4.78 4.29a30.27 30.27 0 00-3.44-.47c-9-1.22-11.44-3.22-12.51-11.92-1.67-13.65-3-27.33-4.27-41-.3-3.17.56-5.89 4.91-3.71a20.18 20.18 0 006.1 2.06c9.82 1.43 9.56 1.38 10.29 11.15.96 13.19 2.44 26.37 3.7 39.6zm137.09 111.07c3.42-.79 5.11 1.18 3.75 6.16a11.13 11.13 0 00.1 3.85c.56 5.77-2.62 9.27-8.37 9.82-10.57 1-21.14 2.1-31.66 3.52-3.71.51-5.63-.42-6.15-4.11a17.19 17.19 0 00-.51-1.93c-2.47-9.69-1-12.36 8.52-13.58 10.86-1.39 21.76-2.38 34.32-3.73z"></path>
    <path d="M84.18 160.18c-3.85-.46-6.84-.25-9.36-1.24-4.55-1.79-8.73-4.38-9.43-10a17.19 17.19 0 016.29-15.9c2.48-2 7.37-1.74 11-1.29 4.71.56 9.24 2.46 13.9 3.56 5.9 1.39 11.46 6.42 11.3 11.06-.22 6.36-4.18 10-10 11.42-4.8 1.21-9.75 1.73-13.7 2.39z"></path>
  </symbol>
  <symbol xmlns="http://www.w3.org/2000/svg" viewBox="0 0 124.97 148.93" id="swoosh">
    <path d="M107.87 35c1.37-3.87 2.16-6.69 3.38-9.31.57-1.23 2-2.09 3-3.11.57.94 1.19 1.85 1.7 2.83 2.7 5.2 5.62 10.32 7.93 15.69a15.59 15.59 0 011 7.89c-1 7.58-2.59 15-7.19 21.55a11.52 11.52 0 00-1.57 7c1 13-.86 26-8 36.44-5.94 8.69-11.6 18.65-22.24 23.38-2.23 1-4 2.9-6.15 4.19-15.73 9.57-31.78 8.82-48.82 3.12A57.92 57.92 0 012 124c-3.48-4.59-2.35-12.89 2.84-15.37 8.07-3.88 16.44-7.15 24.68-10.67 23.94-10.27 45.29-24.59 65.09-41.3a7.24 7.24 0 002-5.42C95.32 35.72 89.8 21.59 82.17 8.12c-1.28-2.27-1-5.39-1.52-8.12C83 1.05 86.22 1.47 87.6 3.28c5.81 7.61 11.16 15.58 16.5 23.54 1.42 2.18 2.19 4.69 3.77 8.18zm-63.18 88.81c14.82 3.34 38.7-13.51 43-26.07z"></path>
  </symbol>
  <symbol xmlns="http://www.w3.org/2000/svg" viewBox="0 0 258.16 283.91" id="tobby1">
    <path d="M160.6 242c-4.59-5.24-8.44-8.64-11-12.83-3.9-6.27-6.69-13.23-10.36-19.66-5.22-9.13-10.67-18.14-16.27-27.05-9.37-14.89-19.12-29.54-28.2-44.61-1-1.73.24-6.6 2-8 12.17-9.74 24.77-18.94 37.22-28.32 1.71-1.29 3.4-2.6 5.42-4.14-4.31-5.92-8.24-11.69-12.65-17-.74-.9-3.92-.76-5.35 0-11.08 6.09-21.91 12.62-33.06 18.57-1.79 1-4.78-.35-7.22-.61 1.06-1.89 1.63-4.63 3.24-5.56q42.15-24.21 84.58-47.94c6.8-3.78 9.6-7.2 3.44-14.09s-11.8-14.54-17.39-22c-1.25-1.67-1.32-4.23-1.93-6.38 4-.73 9.36-3.5 11.9-1.88 28.52 18.13 41.32 48.76 58.89 75.62a26 26 0 011.67 3.4c-4.7 2.87-8.82 6-13.42 7.88-1.47.61-5.13-1.25-6.23-3-7.59-11.91-14.73-24.1-22.17-36.11-.61-1-2.93-2.07-3.61-1.67-14.18 8.32-28.23 16.84-43.3 25.92l50.45 60.55c16.85-10.39 29.81-24.91 47.36-32.23.63.74 1.25 1.49 1.88 2.24-2.33 2.56-4.34 5.52-7 7.62-11.26 8.83-22.92 17.16-34 26.14-6.91 5.57-1.88 11.17.81 16.86s5.88 3.22 9.16 1.34c16.84-9.64 33.63-19.36 52.76-30.4-2.66 4.51-3.66 8.36-6.14 10.07-14.5 9.94-29.4 19.3-44 29.15-1.24.84-2.13 4.52-1.36 5.68 7.81 11.94 16.05 23.6 24 35.44a4.19 4.19 0 010 3.91c-2.45 2.88-4.91 6.09-8.08 8-17.42 10.28-36.22 18.64-52.34 30.62-22.72 16.89-49.58 21.94-75 31.14-4.67 1.69-9.13 4.25-13.93 5.15-2.62.49-7.27-.79-8.38-2.75-6.65-11.78-13-23.79-18.59-36.12-8.54-18.89-15.34-38.62-24.76-57C21 171.26 9.86 156 .24 139.87c-.84-1.41.7-4.73 1.85-6.76 7.14-12.62 7.43-12.72 14.82-.39C28.28 151.66 40 170.43 50.21 190c7.71 14.81 12.74 31 19.86 46.13 4.51 9.58 10.62 18.41 16.14 27.5.53.87 2.15 1.94 2.88 1.7 23.18-7.47 46.32-15.1 71.51-23.33zM144 103.75c-9.83 7.51-19.29 14.52-28.42 21.94-1.4 1.14-2.44 4.85-1.66 6.23 4.12 7.2 8.81 14.08 13.51 20.93a3.81 3.81 0 003.54 1.07c11.41-5.7 22.72-11.6 34.36-17.61-7-10.69-13.87-21.07-20.69-31.46a9.38 9.38 0 01-.64-1.1zm8.33 85.72c4.28 6.24 8.2 12.16 12.42 17.87.53.72 3 .95 3.82.37 7.91-5.47 15.43-11.53 23.54-16.67 6.25-4 6.42-7.92 1.66-12.7-2-2-5.39-5.3-6.79-4.72-11.54 4.77-22.8 10.32-34.61 15.85zm50.38 2.76c-8.4 7.06-16.47 14.18-24.9 20.83-10.34 8.15-10.5 8-2.32 18.38.57.72 2.36 1.38 3 1 12-7 24-14.1 36.3-21.42zM137 167.55c2.48 3.59 3.75 6.6 6 8.33 2.07 1.59 5.63 3.12 7.8 2.41 9-2.94 17.47-7.41 26.51-10 8.53-2.48 8.12-6.16 3.17-11.54-1.88-2-5-5.61-6.25-5.13-12.37 4.78-24.44 10.31-37.23 15.93z"></path>
  </symbol>
  <symbol xmlns="http://www.w3.org/2000/svg" viewBox="0 0 334.53 215.49" id="tobby2">
    <path d="M169.25 75.16c-5.93-11.15-11-21.77-17.06-31.75-5.45-8.93-.87-14 5.28-19.42 3.61-3.16 6.45-8.6 11.84-2.61 1.05 1.17 1.41 2.93 2.24 4.33C178.2 37 184.8 48.25 191.72 59.35c.61 1 3.83 1.51 5 .82 15.08-8.83 15.43-3.88 5.11-18.62q-7.28-10.38-15.07-20.41c-2.84-3.66-2.72-6.36.85-9.53 3.17-2.81 5.52-6.52 8.55-9.51 4.26-4.22 7.68-1.33 10.23 2.14 8.36 11.35 16.41 22.93 24.8 34.27.6.8 3.25.89 4.46.31 9.16-4.34 18.09-9.18 27.36-13.28a9.62 9.62 0 017.95.68A57.4 57.4 0 01283 37.05c1.44 1.75-.3 5.94 1 8 7 11.15 14.12 22.19 21.78 32.86 9.29 12.94 19.17 25.46 28.64 38.28.39.53-.7 2.41-1.39 3.47q-4.31 6.54-8.8 13a14 14 0 01-3.15 3.69c-25.4 17.33-50.79 34.67-76.33 51.79-12.69 8.5-25.77 16.42-38.5 24.86-4.52 3-8.33 4-12.05-.86a22.56 22.56 0 00-2.23-2c-11.15-10.82-11.29-12.67 1.18-21.08 24.95-16.82 50.17-33.24 75.29-49.81 9.57-6.31 19.1-12.69 28.76-18.86 3.44-2.19 4.48-3.92 1.6-7.71-8.61-11.3-8.76-11.93-20.6-4.47-20.4 12.85-40.2 26.65-60.58 39.54-9.49 6-19.75 10.81-29.66 16.15a53.06 53.06 0 00-5.63 3c-6.37 4.47-14 3.43-17.94-3.14Q153.05 145 142.3 125.87c-2.23-4-3.8-6-8.44-2.58a67.57 67.57 0 01-14.78 8.25c-4.73 1.91-4 4-2 7.37 8.18 13.53 16.19 27.16 24.33 40.71 1.91 3.18 3.15 5.42-1.62 7.68-3.59 1.71-6.48 5.1-9.37 8-4.85 5-10.26 4.19-13.48-1.76-15-27.66-30.33-55.1-45-82.92-6.8-12.92-12.42-26.48-18.34-39.85-1.78-4-3.78-3.86-7.19-2.08C35.58 74.44 24.79 80.5 13.37 84.9 10.6 86 4.69 82 1.9 78.81 0 76.64-.7 70 .88 68.66c7.54-6.5 15.5-13 24.32-17.46 31.08-15.88 62.57-30.95 93.91-46.32 3.92-1.92 7-2.94 8.1 3.34.46 2.62 3.72 4.73 5.66 7.11 1.52 1.85 4.59 4.44 4.13 5.5a13 13 0 01-5.9 6C113.82 35.3 96.37 43.44 79.1 52c-1.25.62-2.54 3.84-2 5q11.54 25.16 23.75 50c.62 1.26 3.71 2.69 4.68 2.19 21.08-11 42-22.21 63-33.41.54-.33 1-.85.72-.62zm12.57 64.43c6.91-4.23 13.56-8 19.78-12.38 1.29-.92 2-4.73 1.22-6.16-4.6-8.06-9.67-15.86-14.83-23.59-.64-.95-3.07-1.73-4.05-1.27a165.85 165.85 0 00-17.17 9c-1.37.85-2.62 4.34-2 5.61 4.47 8.71 9.42 17.17 14.29 25.67a22.4 22.4 0 002.76 3.12zm28-57.33c5.64 8.45 10.74 16.39 16.27 24 .86 1.18 5 1.78 5.35 1.24 1.94-3.18 10.58-1.81 6.47-9S229.45 84.3 225 77.31c-.59-.92-2.83-1.78-3.72-1.37-3.72 1.71-7.22 3.91-11.5 6.32zM274 81.08c-3.31-5.84-7.59-11-9.24-16.82-2.95-10.4-8.12-9.54-14.83-4.4-1.2.92-2.22 3.94-1.61 5 3.75 6.83 7.87 13.47 12.22 20 .69 1 3.41 1.65 4.68 1.15 3-1.18 5.71-3.15 8.78-4.93z"></path>
  </symbol>
  <symbol xmlns="http://www.w3.org/2000/svg" viewBox="0 0 228.05 170.14" id="traingles">
    <path d="M209.72 10.64c5.67-5.8 8-4.47 9.92 2.08 1 3.31 5.63 5.4 8 8.51.78 1 .3 4.44-.73 5.18C191 52.12 166.2 85.57 155.13 128.73c-1.32 5.16-3.52 10.11-4.7 15.29-1.34 5.86-4.07 3.46-7 1.76-9.82-5.64-14.66-13-10-24.75 1-2.49.11-6.65-1.43-9.08A375 375 0 0072.26 40c-7.67-7.26-17.38-14.65-17.59-27.65-.07-4.76.65-6.48 5.7-6.66Q129.9 3.19 199.4.21c11.26-.5 11.24-1.04 10.32 10.43zM75.31 27.26c-.33 1.45-.66 2.89-1 4.34 5.18 3.85 11.31 6.9 15.37 11.7 15.61 18.46 30.55 37.49 45.77 56.29.79 1 1.72 1.85 2.59 2.76a11.38 11.38 0 001.96-2.51c11-27.61 26.21-52.3 49.24-71.66 1.17-1 1.86-2.52 2.77-3.81a30.63 30.63 0 00-5.1-.52C170 24.94 153 26.64 136.08 27.13c-20.24.58-40.51.13-60.77.13zM3.65 167.32c-7-7.32-2.26-16.24.39-23.52 4.05-11.11 13-20.65 15.94-31.88 4.11-15.85 4.34-32.67 6.75-49 .7-4.76 3-9.33 5-13.82.25-.56 3.18-.65 4.25 0A8.55 8.55 0 0139 53.28c2.06 5.66 2.57 12.37 5.95 17C64.18 96.64 84 122.5 103.7 148.52a33.51 33.51 0 004.49 5.34c4.12 3.6 3.49 5.15.59 10.67-5.42 10.33-8.71 3.45-14.67 2.28-20.74-4-41.79-6.73-62.84-8.73-6.48-.62-13.4 2.37-20 4.26-2.51.73-4.63 2.98-7.62 4.98zm79.1-20.22c-14.64-20.25-28.51-39.46-42.52-58.57-.32-.44-3-.06-3.24.48q-9.75 25.29-19.06 50.74c-.28.76 1.13 3.06 1.9 3.13 7.59.69 15.22 1 22.83 1.52 13.01.85 26.02 1.75 40.09 2.7z"></path>
  </symbol>
  <symbol xmlns="http://www.w3.org/2000/svg" viewBox="0 0 245.64 240.56" id="whoishe">
    <path d="M92.94 148.17a95.8 95.8 0 0041.32-30.95c1.4-1.83 2.21-4.13 3.71-5.84a9.66 9.66 0 014.43-2.65c.4-.12 1.6 2 2.22 3.19 1.6 3.09 2.7 6.5 4.68 9.3 3 4.33 2.1 8-.75 11.76-10 13.19-22 23.93-36.77 31.48-1 .54-2.08 1-3.13 1.56-10.81 5.24-13.09.25-15.19-10.42a63.31 63.31 0 01-.52-7.43z"></path>
    <path d="M27.82 61.66c3.36 4.67 5.93 9.79 9.93 13.28 2.78 2.43 7.45 3 11.4 3.72 10.25 1.79 20.43 2.6 30.17-2.74 7.41-4.06 12.86-19.43 9.21-27.18-2.53-5.4-5.17-10.74-7.6-16.19a3.21 3.21 0 01.29-2.92 3 3 0 012.87 0c3.45 2.63 6.47 5.92 10.14 8.15a74.8 74.8 0 0015 7.35c21.93 7.33 43.65 9 64.41-3.91a62.12 62.12 0 017.36-4.11c3.17-1.41 5.11 0 5.72 3.32.15.82 0 1.81.43 2.44 7 10.61-.56 17.89-5.13 26.51s-7.26 18-9.86 27.34c-2.43 8.72 2.56 15.53 8.25 21.34 14.86 15.18 32.93 16.86 52.22 11.09 8.42-2.52 9.61-2.11 10.56 6.36.34 3 1.92 5.93 2.42 9 .23 1.45-.56 4.37-1.17 4.45-9.53 1.24-14.67 8.91-21.06 14.44-11.49 9.93-24.71 16.61-38.16 23.24-8.87 4.37-17.2 10-25.27 15.75-14.44 10.32-28.51 21.17-42.71 31.83a19 19 0 00-3.33 3c-4 4.84-5.16 4.34-9.32-.72-6.15-7.49-6.66-16.86-9.8-25.35-7.09-19.17-13.3-38.75-21.86-57.25-9.77-21.07-21.78-41.1-32.67-61.66A161.5 161.5 0 003 45.36c-.37-.33-.89-.66-1-1.08-.76-2.21-1.36-4.46-2-6.69 1.91.68 4.29.85 5.65 2.12C20.28 53.38 38.3 57.49 57.46 58.84c1.9.14 4 1.63 5.4 3.08C63.92 63 64 65.07 64.55 66.7c-1.68.28-3.44 1-5 .78-10.45-1.79-20.83-3.79-31.73-5.82zM161 69.85c-19.42 2.71-38.32 1-56.61-6.26-4.66 28-10.76 37.4-46.47 37.35 2.63 5.06 5 9.94 7.64 14.66 17.08 30.61 29.73 63.09 40.66 96.29 1.34 4.06 2.39 5.38 6.25 2.36 26.14-20.46 53.37-39.19 83.47-53.52 4.32-2 8.11-5.22 12.13-7.87C168.43 138.12 156 109.09 161 69.85z"></path>
    <path d="M75.38 11.87c1.45 9.46 2.86 17.08 3.7 24.76a141.67 141.67 0 01.65 17.84c0 .78-3.78 2.31-3.87 2.17-1.86-2.75-4.35-5.52-4.93-8.64-1-5.63-.67-11.5-1.36-17.21-1.13-9.23-2.67-18.4-3.93-27.6-.14-1 .13-2.6.79-3s2.24 0 3.08.52C73 3 76.12 5.85 79.77 7.77c8.5 4.46 17.23 8.46 25.83 12.7 3.56 1.76 7.14 3.51 10.51 5.6.94.58 1.14 2.36 1.67 3.6-1.24.14-2.69.78-3.69.35-10.82-4.59-21.59-9.32-32.33-14.1-1.61-.72-3.03-1.92-6.38-4.05zm3.43 104.68c5.7-1.86 12.49-2.71 17.7-6 11.36-7.28 20.82-16.76 26.06-29.69.32-.8 1.22-2 1.74-1.95a3.9 3.9 0 012.69 1.57c2.6 4.61 5.14 9.28 7.39 14.07a5.07 5.07 0 01-.33 4.11c-7.41 12.34-15.45 24.33-28.17 31.8a47.94 47.94 0 01-16.23 5.63c-6.75 1.11-10.79-3.23-10.83-10-.04-3.22-.02-6.41-.02-9.54z"></path>
  </symbol>
  <symbol xmlns="http://www.w3.org/2000/svg" viewBox="0 0 116.86 77.47" id="x1">
    <path d="M85.77 17.46c-7.49 5.64-12.7 10.06-18.41 13.71-5.4 3.46-2.4 5 .84 7.13 13.07 8.51 26.32 16.79 39 25.82 4.26 3 7.13 8 9.63 13.35C108.35 72.58 100 67.4 91.29 62.9c-11.79-6.1-23.8-11.78-35.86-17.34a6.71 6.71 0 00-5.77.76C42 52.42 34.71 59 27.08 65.13c-2.95 2.39-8.1 6.55-9.4 5.68-4.19-2.81-7.09-7.59-10.4-11.68a38.51 38.51 0 01-2.59-4.63C11.35 49 19 42.72 26.45 36.2c.7-.62.49-3.73-.36-4.45C18.31 25.13 10 19.14 2.56 12.12.39 10.06.78 5.3 0 1.78c1.5-.06 3.33-.71 4.45-.08C17.72 9.21 30.83 17 44.15 24.44a6.85 6.85 0 005.9-.39C60.1 17.38 69.93 10.38 80.69 4.7l-8.4 6.07c.22.34.43.68.65 1l15.25-9.54-5.36 6.49L97 0l1 1.06-19.7 18.35z"></path>
  </symbol>
  <symbol xmlns="http://www.w3.org/2000/svg" viewBox="0 0 192.11 137.65" id="x2">
    <path d="M29.13 29.17c16.58 1.32 20 16.11 28.17 26.08.93 1.14 4.23 2.06 4.87 1.45q26.76-25.48 53.12-51.37A52 52 0 00119.4 0v2.62c4.41 2.38 9.89 3.61 10.51 6.07 1 3.78 0 9.76-2.63 12.45-16.76 17.36-34.11 34.14-51.43 51-3.55 3.44-4.39 6-1.21 10.47 8.25 11.61 15.91 23.69 23.66 35.69a26.18 26.18 0 013.09 7.23c.29 1.08-.54 3.49-1.13 3.58-1.35.21-3.53-.15-4.22-1.11-9.32-13-18.58-26-27.54-39.17-2.6-3.83-4.15-5.37-7.74-.83-13 16.24-26 32.4-39.59 48.17-1.62 1.89-6.26 1.45-9.52 1.52-1.19 0-2.3-2.1-3.65-2.41-12.82-3-7.65-8.1-2.22-14.26q22.08-25.1 43.37-50.85c1.39-1.68 1.61-5.9.48-7.84-6.5-11.22-13.58-22.1-20.5-33.16zm97.2 31.74c5 4.21 10.26 7.63 14.2 12.17 6 6.91 11.2 14.53 16.48 22 .73 1 0 3.09-.07 4.68-1.81-.12-4.27.47-5.32-.48-8.12-7.34-16-15-23.92-22.51-1.7-1.57-3.7-2.77-5.4-4.38s-3.1-3.2-4.64-4.81zm36.5 12.87C154.28 66.72 146 60 138 53c-.37-.32.72-3.6 1.72-4 3.44-1.35 8.51-4 10.5-2.61 7.85 5.45 14.8 12.21 22 18.61.61.54.92 2.6.6 2.82-2.58 1.77-5.33 3.24-9.99 5.96zm14.42-26.59c-5.28-2.23-11.4-4.74-17.43-7.45a2.85 2.85 0 01-.53-2.66c6.7-7.79 26.29-6.4 32.7 2.39.45.63-.46 3.3-1.27 3.61-4 1.52-8.19 2.56-13.47 4.11z"></path>
  </symbol>
  <symbol xmlns="http://www.w3.org/2000/svg" viewBox="0 0 131.55 201.8" id="zag">
    <path d="M46.31 105.6c11.18 9.41 21.55 18.2 32 26.91 13.58 11.33 27.73 21.83 43.84 29.41 3.37 1.59 6.91 2.91 4.48 8-3.28 6.9-6.48 8.44-12.08 7.32-19.32-3.86-33.75-15.92-48.39-27.78L20.33 112.5a13.31 13.31 0 01-3.75-3.93c-.57-1.15-.52-3.45.27-4.28C26.8 93.7 39.24 89.09 53.69 88c13.56-1.06 27-3.64 40.48-5.59a48.53 48.53 0 004.91-1.44c-6.27-2.49-11.08-4.35-15.84-6.25Q47.77 60.66 12.29 46.56c-3.12-1.24-6.66-2.2-9.06-4.35-4-3.62-2.85-6.14 2.07-8 3.19-1.17 5.82-3.76 8.86-5.43 1.24-.68 3.18-1.27 4.33-.79 15.75 6.65 31.32 13.74 47.13 20.23 16.89 6.92 34 13.39 51 19.9 3.39 1.3 7 1.92 10.58 2.86 4.86 1.28 5.17 3.59 3.14 8.06-5.17 11.41-15.24 15-26.12 16.89-17.66 3.11-35.42 5.6-53.13 8.38-1.26.25-2.5.69-4.78 1.29z"></path>
    <path d="M30.38 76L8.07 70c-4.42-1.2-5.55-4.44-4.86-8.45.18-1.05 1.47-2.65 2.35-2.72 3.87-.31 8-1 11.61 0 12.91 3.55 25.7 7.6 38.43 11.77 2.52.83 4.59 3.08 6.86 4.67-2.42 2.62-4.48 7-7.32 7.57a298.87 298.87 0 01-33.88 4.77c-1.71.15-4.83-3.19-5.42-5.41-.93-3.46 2.15-4 5.11-4.08 3.12-.09 6.23-.63 9.34-1zm85.38 47.13c.8.56 2.24 1.61 3.72 2.6 7 4.7 7.61 7.15 3.32 14.55-.17.29-.39.55-.57.83-4.65 7.49-4.5 7.26-11.76 2.62-6.69-4.28-13.77-7.95-20.61-12a18.89 18.89 0 01-5.46-4.21c-2.17-2.81-2.7-5.57 1.72-7.37 2.66-1.09 4.83-3.32 7.42-4.66a42.15 42.15 0 018.06-3.12c5.27-1.46 10.61-2.68 16-3.89 1.32-.3 3.71-.62 3.93-.15.71 1.51 1.35 3.75.7 5-1.66 3.29-4 6.16-6.47 9.8zM45.73 30.14C41 27.38 36.9 25.3 33.22 22.62c-.95-.69-1.11-3.4-.66-4.9a171.39 171.39 0 015.72-16.37c.36-.88 3-1.64 4.12-1.24a57.84 57.84 0 018.87 4.19c3 1.64 4.87 3.78 3.31 7.64-1.93 4.75-3.39 9.69-5.33 14.44-.54 1.32-2.05 2.24-3.52 3.76zm46.86-11.52c5.28 2.65 10.1 4.82 14.64 7.48 1.25.73 2.68 3.34 2.26 4.35-2 4.84-3.61 10.88-7.43 13.64-2.83 2-9 .32-13.37-.81-4.17-1.06-1.91-4.45-1.16-7 1.7-5.89 3.36-11.75 5.06-17.66zM79.24 171.37c5.43 4.86 9.76 8.24 13.45 12.22 2.62 2.83-1 15.9-4.46 17.81-3.08 1.71-12.69-2.41-14.62-6.28-.15-.29-.43-.65-.37-.89 1.85-7.12 3.76-14.23 6-22.86zM120 25.4c3.67 2.12 7.09 3.83 10.16 6a4.64 4.64 0 011.16 4 102.56 102.56 0 01-4.25 12.68c-2.61 6.27-7.55 8.74-13.62 6.35-1.37-.54-2.74-4.27-2.2-5.92 2.49-7.58 5.63-15.01 8.75-23.11zM83.08 24c-1.39 4.15-2.53 8-4.08 11.64a3.5 3.5 0 01-3 1.51 104.54 104.54 0 01-13-4.73c-1.07-.49-2.1-2.8-1.88-4.07a131.1 131.1 0 013.35-14.45c.23-.78 2.3-1.87 2.91-1.57a125.73 125.73 0 0113 7.18c1.33.85 1.82 2.96 2.7 4.49zM71.21 170.39c-2.48 5.17-3.53 10.3-6.65 12.59-1.59 1.17-7-2.69-10.56-4.42-5.24-2.52-6.18-6.28-3.5-11.47 1.7-3.28 2.7-6.92 4-10.4a107.67 107.67 0 019.27 6.13c2.59 2.09 4.72 4.75 7.44 7.57zm-25.15-19.06c-2 3.53-3.23 7.79-6.07 9.93-1.39 1.05-6.2-1.23-8.69-3-7.63-5.56-8.5-11-3.47-19.11.55-.89 3.06-1.61 3.85-1.11a111.5 111.5 0 0111.57 8.37c1.25.99 1.75 2.96 2.81 4.92zm-24.74-23.9c-2 3.81-3 7.95-5.62 9.86-1.51 1.1-5.8-1.08-8.56-2.38a15.26 15.26 0 01-5.8-4.6 10.25 10.25 0 01-1.34-6.1c.09-1.72 1.49-3.33 2-5.08 1.92-7 1.87-7 7.55-2.6 2.33 1.8 5 3.2 7.18 5.15 1.72 1.56 2.97 3.68 4.59 5.75z"></path>
  </symbol>
  <symbol xmlns="http://www.w3.org/2000/svg" viewBox="0 0 230.73 272.57" id="zig">
    <path d="M90.65 243.51c-5.92 2-11.9 4.35-18 6.11a7.38 7.38 0 01-8.71-3.4c-4.83-8-9.46-16-14.26-24q-10.8-18-21.73-35.9c-.31-.49-.77-.89-2.23-1.05.88 7.32 1.49 14.68 2.71 21.95 3.12 18.57 6.76 37 15 54.2 1.25 2.62.28 4.23-2 5.12-5.11 2-10.33 3.61-15.44 5.58-2.58 1-3.76.5-4.79-2.26C4.65 225.68-1.89 180.06.47 133.05c.22-4.5 3.17-6.59 5.69-9.25a11.67 11.67 0 013.38-2.1c10.89-5.31 14.74-4.12 19.46 7 4.8 11.33 8.81 23 13.55 34.35 2 4.76 5 9.1 7.5 13.63l1.51-.56c0-5.34.67-10.79-.13-16-2.42-15.82-1.57-31.54.69-47.22.36-2.45 3-5.24 5.37-6.57a45.24 45.24 0 0111.61-4.14c3.56-.88 6.63.19 7.94 4.13 2.35 7.09 4.61 14.21 7.07 21.27 3.28 9.4 6.7 18.76 10.1 28.13a3.37 3.37 0 002.21 1.86c0-1.87.55-4-.09-5.57-3.93-9.9-3.64-20.17-3.46-30.52.15-8.94-.23-17.88-.29-26.82 0-1.81.55-3.63.55-5.45 0-6.29 4-9.09 9.25-10.86a25.62 25.62 0 012.92-.61c12.69-2.67 14-1.81 18.47 10.57 4 11 8.2 21.81 12.44 32.65a76.54 76.54 0 003.79 7.37l1.28-.3c-.23-3.65-.31-7.31-.73-10.93-1.27-11-2.75-22-4-33-.88-7.77-1.25-15.59-2.31-23.33-.64-4.66 2-7 5.11-9.25a6.75 6.75 0 012.31-.9c16.09-4.13 12.59-6.53 22 8 10 15.51 18.38 32 27.54 48.08a21.46 21.46 0 005.88 6.79c-1.16-5.76-2.62-11.48-3.43-17.29-2.3-16.45-4.53-32.91-6.38-49.41-1.11-9.87-1.43-19.82-2.14-29.74a6.71 6.71 0 00-.59-1.86c-2.62-6.62-1.16-10.47 5.54-12.94A46.49 46.49 0 01200.72 0c3.34-.4 5.89 3.6 6.12 8.58.63 13.63.93 27.3 2.12 40.88 3 34.42 9.42 68.18 21.37 100.72.9 2.45.31 3.28-2.09 3.71a17.08 17.08 0 00-5.69 1.75c-8.55 5.09-14.65 2-21.59-4.17-15.2-13.47-27.14-29.23-37.08-46.72a11.37 11.37 0 00-3.21-3.84c2.44 31.3 8.07 61.85 18.29 92-5.14 1.72-10.86 4.33-16.85 5.31-2.84.46-7.38-1.31-9.1-3.61-8.75-11.69-17-23.74-25-36-3.17-4.82-5.17-10.41-7.75-15.62a7.39 7.39 0 00-2.69-3c2.58 28.56 6 56.87 17.75 83.55-5.68 2-11.31 4.26-17.1 6a8 8 0 01-9.3-3.32c-9.68-14.52-19.22-29.13-28.76-43.74-1.08-1.67-1.84-3.54-2.83-5.27-.21-.36-.75-.53-2.3-1.56 2.82 23.69 5.55 46.22 15.62 67.86z"></path>
  </symbol>
  <symbol xmlns="http://www.w3.org/2000/svg" viewBox="0 0 142.27 152.93" id="abstract">
    <path d="M11.09 4.11c11 5.53 22.17 10.73 33 16.65 28.42 15.61 58.69 25.69 90.52 31.42 1.74.32 3.23 2 4.84 3-1.09 1.13-2.13 2.31-3.27 3.38-20 18.83-33.92 40.55-32.73 69.39 0 1.17.08 2.33.1 3.5.11 11.2-8.57 19.6-19.42 16.6-13.24-3.67-24.38 1.37-36.37 4.59-4.36 1.18-9.8-1.45-14.67-2.65-.55-.13-1.18-2.43-.84-3.4 16.33-47.6 0-88.82-25-128.33-.54-.84-1.28-1.55-1.82-2.39C3.57 13.1 1.8 10.31 0 7.53l9.78-1.44c.43-.66.87-1.32 1.31-1.98zM39 33.93c.51 1.16.84 2 1.27 2.89 15.39 30.6 26.34 62 16.57 96.85-2 7.14 0 8.43 6.63 6.16 3.73-1.28 8.06-.89 11.69-2.32 2.36-.93 5.63-3.76 5.65-5.76.33-27.45 10-50.94 28.65-70.92.36-.38-1.18-3.77-2.39-4.2-8.14-2.92-16.45-5.33-24.66-8.06C68.1 43.82 53.86 39 39 33.93zm41.6-22.38l8.78 3.35.52-.9L73.78.63c18.08-3.27 32.94 7 49.06 12.3 5.36 1.77 10.73 3.52 15.94 5.64 1.47.59 3.3 2.37 3.44 3.76.74 6.94-7.47 13.44-13.72 10.86-15.18-6.28-30.25-12.8-45.35-19.25a27.5 27.5 0 01-2.89-1.64c.11-.25.22-.5.34-.75z"></path>
    <path d="M78.31 84.56c-3.35-2.83-5.71-4-6.77-5.9a90.61 90.61 0 01-7.13-15.28c-.76-2.27.66-5.28 1.09-8 1.77 1.21 4.18 2 5.21 3.68 4 6.47 6.89 14.6 15.48 3.83 1.54-1.92 7-2.79 9.31-1.6 5.43 2.75 5.66 5.91-.6 9.51-5.85 3.42-10.6 8.69-16.59 13.76z"></path>
  </symbol>
  <symbol xmlns="http://www.w3.org/2000/svg" viewBox="0 0 215.8 129.4" id="abstract2">
    <path d="M82.78 32.67c18.89-.85 19.85-.67 16.22 19.86-2.14 12-7.63 23.52-12.33 35-.9 2.2-5.37 4.56-7.83 4.22-20.57-2.81-41-6.47-61.59-9.38C.48 80-2.35 63.88 1.55 52.79a300.33 300.33 0 0114.24-32.93c4.79-9.69 26.15-13.23 34.37-6.19.53.46.52 1.8.44 2.69-.14 1.46-.67 2.88-.82 4.33-1.41 14.41-1.47 14.8-16 12.3-7-1.21-10.77 1.45-13.56 7.1-1.26 2.53-2.16 5.3-3.76 7.59-6.37 9.1-2.6 12.94 7 14.3 17.27 2.46 34.54 5.19 51.81 7.54 4.77.65 12.16-9.34 10.56-13.95-.26-.75-2-1.44-3-1.42-4.81.1-9.62.45-14.43.7-.66 0-1.87.09-1.9-.06C65.3 48.89 63.8 43 63.33 37c-.1-1.3 3.43-3.85 5.52-4.14 4.56-.62 9.27-.18 13.93-.19zm109.5 49.9l-30.51 6.26.1 1.29 34.22-1.93.37 1.46-66.22 18.18c-25.41 7-50.83 13.85-76.21 20.91-8.94 2.49-13.19-2.31-16.08-9.62-.06-.16 0-.35-.09-.49-4-8.54-5-11.48 7.89-10.58C58.93 109 72.58 102.88 86 100q64.5-14 129-27.85c.44-.1.95.1.77.07l-92 18.93c.22 1.14.43 2.27.65 3.4l67.72-13zM112.47 0c7.18 2.57 12.44 3.89 17.11 6.34 2.77 1.47 7.7 4.37.85 7.83-.66.34-.82 2.46-.59 3.63 3.66 19.05 7.07 38.15 11.32 57.07 1.78 7.92-2.3 7.75-7.82 8.37-12.44 1.42-12.6-8-13.89-15.65-3.45-20.31-6.27-40.72-9.15-61.12-.23-1.57 1.08-3.37 2.17-6.47zm7.8 54.81l1.62-.33q-2.31-14.25-4.61-28.48l-1.38.24q2.17 14.27 4.37 28.57z"></path>
  </symbol>
  <symbol xmlns="http://www.w3.org/2000/svg" viewBox="0 0 342.58 391.23" id="curvystack">
    <path d="M243.14 335c0 7.88.27 15.77-.19 23.62-.12 2.07-2.85 5.87-3.87 5.7a170.28 170.28 0 01-26.11-6c-1.76-.59-2.69-6.08-2.65-9.3.5-42.28 6.67-85.73-10.94-125.6-24.06-54.47-67.33-62-118-27.68C39.64 224.15 25.8 270.49 39 319.47c4.28 16 7.89 32.13 11 48.36.42 2.19-3.67 6.14-6.53 7.73-2.09 1.15-5.61-.58-8.46-.44-19.54.94-19 .9-22.19-18.19-3.23-19.39-8.41-38.46-11.4-57.88-4.85-30.94 3.28-58.91 21.58-84.21 1.27-1.75.59-7.06-1.07-8.46C4.78 192-3.39 156.12 2.83 134.2c3.76-13.27 10-16.12 22.55-17.32C55 114 82.91 104.65 107.86 87.93c14.38-9.64 21.38-24.1 25-40.6.57-2.61 3-4.82 4.55-7.21 2.11 2 4.58 3.69 6.29 6 28.29 37.73 29 85.91 48.12 127.11 2.2 4.75 5.26 9.72 9.25 12.92 15.88 12.7 28.12 27.8 33.3 47.69 3.11 11.93 11.9 4.51 18 6.14 0-3.61.86-7.42 0-10.79-4.92-18.9-18.87-31.59-30.61-46.2-8-9.91-10.8-24.09-15.24-36.61-2.31-6.5-2.43-13.79-4.78-20.28-5.6-15.52-12-30.76-17.91-46.16-.57-1.49-.19-3.35-.26-5 1.69.26 4-.09 5 .89 6.35 6.31 14.86 11.88 18.12 19.61 11.23 26.6 20.56 54 30.7 81.07a34.38 34.38 0 004.12 8.19c10.24 14 22 27.12 30.53 42.12 5.5 9.71 9.88 15.61 22.1 16.51 21.67 1.61 22 2.45 15.31-18.68-3.18-10-6.5-20.54-12.6-28.71-4.46-6-13.19-10.69-20.71-12-13.35-2.36-20.74-12-25.19-21.46-13.76-29.4-25.21-59.88-37.48-90-.61-1.5-.5-3.29-.72-5 1.91.41 4.6.15 5.62 1.33 10.12 11.69 21.36 22.76 29.47 35.75C255.08 116.22 259 130 264.09 143c4.32 11.05 9.12 20.18 20.84 26.78 35.67 20.09 52.49 52.69 54.81 93 1.46 25.23 3.27 50.52 2.75 75.74-.33 15.82-4.53 31.58-7.4 47.29a8.36 8.36 0 01-4.86 5.35c-6.07 1.91-23.09-17-21.45-23.16 2.43-9.12 4.26-18.41 6.88-27.48s-1.59-11.33-9.62-13.59C292.37 323 286.37 325 287.36 341c.67 10.78-2.32 21.89-4.64 32.64-.36 1.67-7.11 4.12-8.84 3-17.29-11.09-19.66-17.69-15-37.77.66-2.82 1.7-5.64 1.77-8.48.1-3.87.75-10.09-1.16-11.16-4-2.26-9.7-2.64-14.42-1.93-1.18.17-1.44 7.38-1.86 11.38a41.76 41.76 0 00.23 6.31zM81.75 170.75c28.26-9.33 56.68-10.24 85.36-1.9.81.23 3.38-2 3.22-2.55-7.86-25.16-15.93-50.25-23.26-73.14L130.29 107c-25.72 21.25-56.62 28.45-88.65 31.74-9.83 1-14.07 5.84-13.72 14.28.61 14.84 2.42 29.64 4.1 44.42.09.73 4.38 2.14 5.57 1.4 14.92-9.23 29.63-18.78 44.41-28.24zm234.57 123.48c-.37-19-5.49-22.73-25.69-21.71-1.28.07-3.48 3.2-3.44 4.86.53 19.59 4.85 23.89 24.53 23.07 2.28-.09 4.28-5.7 4.6-6.22zm-73-21.44c-2.78 16.66 1.83 23.76 15.2 22.12 1.67-.2 4.27-4.54 4-6.67-1.06-8.82 2.43-21.93-14.2-18.84-2.84.52-5.2 3.5-5.05 3.39z"></path>
    <path d="M31.39 101.25c-8.59-2.57-12.3-11.43-14.09-21.09-1.86-10-2.19-20.27-3.88-30.31C11.58 38.92 13 34 26.31 30.22 46.66 24.47 65.6 13.36 84.66 3.58c7.58-3.88 12.93-6.73 17.58 3.2 5.93 12.7 13.69 24.7 18.18 37.85 1.66 4.86-1.89 14.29-6.2 17.95C91 82.35 66 99.4 31.39 101.25zm66.52-71.13c-1.53.69-2 .92-2.48 1.12C75.22 39.77 55 48.18 34.9 57c-1.79.8-3.78 5.18-3.09 6.75 1.53 3.46 6.24 9.18 7 8.78Q67.31 58.06 95 42.12c2.31-1.31 3.35-5.21 4.43-8.11.4-1.01-.95-2.58-1.52-3.89zm107.86 265.26c-6.51 1.18-10 3-11.79 1.93-9.17-5.58-17.3-10.54-20.33-23.62-3.52-15.23-11.32-30.59-21-43.05-14.38-18.6-45.12-9.15-54.06 15.3-1.53 4.17-3.55 8.58-3.48 12.85.17 11.34-4.3 11.73-13.21 7.6-13.06-6-19.27-12.68-14-29.14 8.74-27.35 42.24-48.93 66-35.69 18.24 10.16 34.61 25.89 47.66 42.42 10.81 13.64 15.44 32.09 24.21 51.4zm-133.02-6.1l64.77 14.52c4.36 1 8.85 3.1 13.08 2.67 16.66-1.71 24.19 9.23 31.11 21.26 1 1.67 2 4.23 1.36 5.62-.54 1.19-3.63 2.12-5.29 1.76-31.3-6.75-62.81-12.81-93.64-21.31-6.75-1.86-11.21-12.44-16.23-19.36-.31-.44 3.72-3.99 4.84-5.16zm6.17 53.16c25.25 5.77 50 13.77 75.34 16.4 16.35 1.7 18.14 15.48 27.7 22.24-2.61 2.13-5.67 6.49-7.76 6.07-23.59-4.8-47.06-10.19-70.49-15.74-11.71-2.78-24-5.12-30.48-17.16-1.54-2.85-2.32-6.12-3.45-9.19zM82 170.6c-7 1-14.29 3.56-21 2.54-5.75-.87-10.87-5.85-16.26-9 1.26-2 2.18-5.23 3.86-5.69 24-6.52 46.46-15.74 65.89-32 3.14-2.62 12.09-2.36 15.61.25 16.29 12.11 16.19 13-1.9 22.46-15.15 7.84-30.94 14.44-46.44 21.59z"></path>
  </symbol>
  <symbol xmlns="http://www.w3.org/2000/svg" viewBox="0 0 469.23 398.07" id="d20">
    <path d="M82.9 357.79c-3-3.23-5.92-4.85-6.3-6.93-4.93-26.86-15.15-51.72-26.26-76.49C39.87 251 26.07 230 11.05 209.49 7 204 2.74 198.38.23 192.16c-1-2.51 1.55-7.59 3.93-10.16 14.7-15.86 30.89-30.45 44.53-47.14C65.93 113.76 81.15 91 97.37 69.07c4.86-6.56 10.54-12.53 15.16-19.24C119.32 40 125.29 29.51 132 19.59c4.33-6.37 8.83-12.86 14.42-18 2.29-2.11 7.85-1.72 11.64-1 27.82 5.33 55.68 10.53 83.31 16.74 37.91 8.51 75.68 17.65 113.41 27 16.17 4 31.82 10.85 48.17 13.15 11.29 1.59 10.89 7.27 13.17 15.36 8.13 28.87 17.9 57.28 26.76 86 8.79 28.44 17.21 57 25.83 85.47 1.46 4.81-.47 7.45-4.26 10.72-17.81 15.32-34.53 32-52.77 46.72-21.87 17.7-45.28 33.48-67.29 51-16.22 12.93-33.24 25.35-44 43.94-.77 1.31-4.5 1.75-6.58 1.3-14.91-3.16-29.61-7.64-44.65-9.83-26.13-3.79-52.52-5.75-78.68-9.38-25.94-3.6-51.68-8.61-77.61-12.32-6.98-1.09-11.15-2.67-9.97-8.67zm81.52-99.05l165-55.38.6-2.41-132.2-93.82c-11.01 50.11-21.95 99.68-33.4 151.61zm-6.3 32.11c9.34 4.6 17 8.38 24.65 12.14q45.66 22.41 91.31 44.86c4.67 2.31 7.75 2.2 10.09-3.1 3.64-8.23 7.72-16.26 11.65-24.36 10.2-21 20.31-42.08 30.69-63 4.59-9.27 9.73-18.26 15.4-28.82zM229.88 94.7l-.33 1.57L359 195.77A238.7 238.7 0 00376 132c1.32-11 1.08-22.11 1.59-33.18.21-4.51-2.35-5.13-6.15-5.06-24.47.39-48.94.73-73.42.88-22.72.17-45.43.06-68.14.06zm-64 23.79L56 189.87l78.82 65.35zM428.56 249c-7.87-2.62-14.75-4.78-21.54-7.18-9.44-3.35-19-6.55-28.17-10.49-4.34-1.86-6.22-1-7.86 3-2.2 5.35-4.53 10.66-7.17 15.8-11.07 21.55-22.47 42.94-33.34 64.59-5.11 10.17-9.29 20.81-13.9 31.24l2.52 2.2c27.06-42.91 73.6-63.65 109.46-99.16zm-253-176.11c-1.95-4.83-3.41-8.09-4.61-11.45-3.6-10-6.85-20.22-10.82-30.11-.81-2-4-3.84-6.36-4.25-1.28-.22-3.5 2.48-4.62 4.28-4 6.35-7.19 13.21-11.52 19.29-9.21 12.94-19.05 25.41-28.41 38.25-4.8 6.59-9.66 13.25-13.45 20.44-3.15 5.95-4.43 12.86-7.19 19-1.47 3.28-4.33 5.94-6.57 8.87 34.06-18.03 63.76-41.77 93.5-64.29zm-.13-42.85c4.91 11.68 9.49 22 13.54 32.49 1.35 3.48 2.83 5.12 6.76 5.17 13.94.17 27.87 1 41.81 1 31.61.17 63.21.06 94.81.06l.18-2.85zM437.54 237c-10.9-33.6-21.3-65.63-31.47-97l-22.37 76.58zM109.46 346.58c4.83.79 10.09 2.31 15.36 2.32 5.8 0 11.66-2.28 17.4-1.94 13.27.8 26.48 2.65 39.73 4 11.76 1.16 23.54 2.15 35.31 3.22l.35-1.33-82.1-40.91zM66.85 236.79l37.54 90.56c5.9-8.47 11.75-16.85 17.41-25-11.37-28.58-31.98-48.57-54.95-65.56z"></path>
  </symbol>
  <symbol xmlns="http://www.w3.org/2000/svg" viewBox="0 0 105.1 355.36" id="hand">
    <path d="M54 125.51c7.54 1.51 14.66 3 21.83 4.33 3.36.61 4.1 1.78 2.6 5-3.4 7.35-4 7.6-12.17 6.58-11.69-1.42-23.4-4.08-35.14-.42a52.82 52.82 0 00-7.31 3.15c-8.21 4-10.83 10.7-9.56 19.39 1.19 8.16 6.52 12.89 13.51 16a7.76 7.76 0 005.7-.21c11.32-5.23 22.92-4.72 34.71-2.31a80.64 80.64 0 008.9 1.21c2.9.26 3.76 1.72 3 4.38-2.18 8.07-4.83 9.3-13.23 8.77a211 211 0 00-31.3-.18c-5.8.49-11.52 3.46-17 5.92-4.77 2.13-5.91 5.47-3.86 10.26 3 7 7.46 13 14.48 16.6.44.22 1.16.22 1.37.56 4.54 7.15 11.4 3.4 17.34 3.64 9.44.38 18.89.49 28.33.76 3.1.08 3.71 2 2.66 4.44-1.26 2.89-2.54 5.92-4.54 8.28-1.14 1.34-3.7 2-5.66 2-12.3.5-24.66.29-36.92 1.25s-15.17 6.31-11.4 17.86c3.84 11.73 20.63 21.63 32.9 19.88 9.87-1.41 19.82-2.28 29.75-3.19 4.26-.39 5.43 1.33 3.81 5.29-1.12 2.77-2.18 5.71-4 8a9.59 9.59 0 01-5.54 3.25c-11.81 1.88-23.67 3.43-35.52 5.11a5.91 5.91 0 00-1.45.35c-5.59 2.42-12.65 4-13.52 11.08-1.05 8.53-1.57 17.62 7.29 23.33a89 89 0 009.84 5.84c3.05 1.45 4.15 3.11 2.4 6.19-.57 1-1 2.12-1.5 3.15-2.52 4.77-4 5.46-8.64 2.89a70.63 70.63 0 01-12-8c-7.35-6.39-7.93-15.52-6.61-24 1.11-7.18 4.69-14.1 7.9-20.8 1.61-3.37 1.85-5.07-1.52-7.21a67 67 0 01-9.25-7.6c-13.23-12.17-13-30 .54-42 4.37-3.87 3.88-3.38-.13-7.33A84.41 84.41 0 012 220.87c-3.93-6.55-1.7-14.7 4.17-21.06 2.37-2.56 6-5 6.46-7.91.32-2.11-3.74-4.82-5.74-7.35-7.11-9-8.23-21.76-1.63-31.14 8.47-12 19.08-21.76 33.63-26.2 2.64-.8 6.7-.75 7.64-2.46a23.69 23.69 0 002.57-11.44c-.29-17.48-.92-35-1.66-52.43-.49-11.74-.15-23.28 4.19-34.43C56.19 14.66 70.1 0 83.89 0c8.86 0 13.55 2.69 16.47 11.31a81.22 81.22 0 014.62 31c-1.65 27.2-3.72 54.39-5.82 81.56-.25 3.24-1.52 6.44-2.66 9.54-.35.95-1.82 1.49-2.78 2.22-.64-1.08-1.66-2.11-1.82-3.27a27.19 27.19 0 010-6c1.28-15.92 2.75-31.83 3.89-47.76.94-13.25 2.23-26.54 2-39.79-.15-8.17-2.54-16.39-4.62-24.4C92 9.71 83.84 7.57 77.48 9.5c-9.26 2.81-16.6 12.14-16.59 22.13 0 18.94.45 37.88.71 56.82.18 12.4-.19 24.69-7.34 35.58a4 4 0 00-.26 1.48z"></path>
  </symbol>
  <symbol xmlns="http://www.w3.org/2000/svg" viewBox="0 0 253.98 379.38" id="eyeguy">
    <path d="M66.8 197.42c2.91-2.11 5.74-4.37 8.78-6.28s6.34-3.49 9.61-5.27c-2.83-7.17-5.57-14.09-8.59-21.73a41.36 41.36 0 00-2.64 4C62.28 192.48 54.25 218 51.19 244.79c-2.6 22.7-1 45.27 8.77 66.5 8.46 18.43 17.19 36.74 25.73 55.13a31.75 31.75 0 012.59 7.48c.82 4.45-1.85 6.39-6 5.08a19.68 19.68 0 00-7.73-1c-3.79.38-6.34-.65-7.09-4.44-.69-3.55-2.9-4.07-6.06-4.48-10.66-1.36-21.27-3.11-31.89-4.81a8.06 8.06 0 01-4.33-2.43c12.08-1.31 23.93 2.7 36.29 1.71a14.55 14.55 0 00-.52-3.64c-2.65-6-5.68-11.88-8.08-18-2-5.1-6-6.84-10.79-7.66-10.15-1.76-20.32-3.35-30.48-5.06A29.43 29.43 0 017.91 328l-.18-1.59c2.68-.37 5.44-1.33 8-1 8.74 1.09 17.42 2.66 26.14 4a34.48 34.48 0 004.57 0c-3.84-10.94-7.31-21.39-11.29-31.64-.64-1.64-3.41-3.13-5.39-3.45-6.84-1.12-13.76-1.66-20.76-2.5a50.38 50.38 0 01-5-1.15c1.29-3.8 4.18-4.06 6.9-3.85 6.3.48 12.57 1.27 18.86 2 3.88.43 4.54-1.94 3.86-4.86-2-8.45-3.12-16.92-1.48-25.55.87-4.6 0-6.81-5.58-6.88-8.85-.11-17.69-1.29-26.53-2v-2.3c4.69-.35 9.37-.86 14.06-1s9.64.05 14.47.08c2.67 0 4.06-1 4.64-4 1.7-8.63 3.68-17.22 5.85-25.74.88-3.5-.17-4.81-3.56-5.46-7-1.34-14-3-20.93-4.58a28.26 28.26 0 01-3.4-1.24c0-.64.11-1.27.16-1.91 3.78 0 7.62-.53 11.33 0a133.87 133.87 0 0114.59 3.23c2.83.72 4.42.42 5.5-2.88 2.73-8.37 6-16.56 9.06-24.8 1-2.66.77-4-2.55-4.9-11.51-3.25-22.88-7-34.3-10.63a11.35 11.35 0 01-1.95-1.29c3.51-3.47 7.25-2.59 10.75-1.58q13.67 3.91 27.19 8.3c3.42 1.12 5.2.77 7-2.88 3.33-6.83 7.46-13.28 11.37-19.82 3.39-5.67 2.53-8.52-3.75-10.34-10.86-3.13-21.8-6-32.68-9a15.25 15.25 0 01-5.22-2.55c7-2.68 13.87-1.07 20.63.67s13.28 3.75 20 5.65c-.33-10.58-.48-20.34-1.1-30.08-.08-1.33-2.23-3.25-3.75-3.65C54.26 94.32 45 92.25 35.84 90A30.85 30.85 0 0132 88.48v-1.69c2.26-.24 4.61-1 6.76-.63 7.66 1.33 15.3 2.91 22.87 4.67 5.6 1.3 5.9 1.28 6.32-4.54.51-6.64 1.05-13.29 1.21-19.94a5.23 5.23 0 00-2.77-4c-4.58-1.41-9.37-2.15-14.06-3.25-2.12-.51-4.18-1.29-6.27-1.94.11-.67.22-1.33.32-2 4.47.27 9 .14 13.38.87C70 57.7 70 57.88 72.47 47.88a89.41 89.41 0 002.44-11.7 5.34 5.34 0 00-2.38-4.3c-3.51-1.71-7.34-2.74-11.87-4.33 4.53-2.94 8.41-2 12.06-.82s6 .67 6.88-3.49c.53-2.43 2.07-4.72 2.21-7.13C82.34 6.76 88.75 3 96.34.48c1.67-.56 4.77-.75 5.34.11a9.14 9.14 0 011.18 6.48 83.08 83.08 0 01-4.67 14.17C85.89 49 82.44 78.18 83.65 108.17c.16 4 .14 8 .24 12a6.49 6.49 0 00.6 1.52c6.08-4 14.24-6.65 17.55-12.19 5-8.31 11.73-8.73 19.34-9.91 3.48-.54 7.11-.8 9.92-4.54 1.46-2 6.47-2.11 9.7-1.7 6.4.83 12.66 2.7 19 3.94a20.13 20.13 0 006.43.24c6.9-.93 12.87-.08 18 5.53 1.89 2 6.09 3.07 9.08 2.8 4.94-.46 7.83 2 10.79 5 4.49 4.54 8.79 9.3 13.56 13.53 1.32 1.18 4 1.14 6.07 1.11 4.42-.07 6.74 2.66 5.84 6.21-1.93 7.62 3.69 11.87 6.53 17.37a15.53 15.53 0 003.13 4.49c1.54 1.37 3.44 2.9 5.36 3.18 5.78.84 7.59 3.81 3.78 8.15-2.43 2.77-2.07 5.23-1.61 8.14.71 4.6 1.55 9.18 2 13.79.34 3.16-.18 6.5 4.24 7.31.41.07.79 1.88.69 2.82a7.87 7.87 0 01-1.33 2.65Q245.32 212.29 238 225a12.85 12.85 0 00-.67 2.27l6.83 1.4c-2.65 1.17-4.13 2.37-5.61 2.36-4.32 0-6.9 2.52-9.76 5.22-4.07 3.87-8.59 7.27-13.24 11.14l9.78 6.67c-5.57 2.21-9.42.44-12.74-1.65-2.91-1.83-5.28-1.69-8.36-.86-4.94 1.34-10.05 2-15.71 3.07l6.58 8.5c-6.7.92-12.05-.74-15.89-5.17-5.79-6.69-13.39-4.75-21.13-6.06.6 4.06 1 7.31 1.56 10.55.47 2.91.38 5.09-3.67 4.35-1.92-.35-5.3.66-5.72-.15a58.58 58.58 0 01-4-11.1c-.65-2.28 0-6-1.35-6.8-3.52-2-7.72-3-11.76-3.87-.56-.12-1.92 2.87-2.67 4.54s-.76 4.51-2 5.29c-1.9 1.16-4.63 1.25-7 1.19-.76 0-1.75-1.85-2.15-3-1.58-4.64-.2-8.51 4.81-13.57-3.47-2.58-7.07-4.92-10.26-7.72a102.16 102.16 0 01-9.82-9.92c-2.19-2.54-4.17-3-6.77-.92-2 1.53-3.91 3.09-6 4.49-1.35.91-2.94 2.26-4.3 2.13-1.69-.16-3.24-1.65-4.86-2.57.7-1.15 1.14-2.64 2.14-3.41 3.43-2.63 7.16-4.88 10.53-7.58a4.35 4.35 0 001.27-3.84c-1.92-5.31-4.24-10.48-6.4-15.7-1.29-3.12-2.93-4-6-1.72-4.8 3.5-9.98 6.44-16.86 4.86zm118.05 45.42c7.23.22 14.3.21 20.7-4.11 21.11-14.27 31.92-47.13 22.13-68.6a172.51 172.51 0 00-12.77-22.47c-11.26-17.23-25.89-30.17-46.32-35.83-16.32-4.52-32.45-6.23-48.25 1.34-13.72 6.57-22.52 18.41-30.82 30.53-1 1.5-.4 4.5.13 6.64 4.23 17.09 11.85 32.82 19.8 48.41 7.68 15.07 18.55 27 33.49 35.24 13.17 7.29 27.39 8.61 41.91 8.85z"></path>
    <path d="M153.72 129c19.23 1.11 36.39 7.07 48.1 24.18 4.21 6.15 9.63 11.57 13.2 18 4 7.2 6.55 15.17 9.46 22.91a5.17 5.17 0 01-.92 4.53c-9.45 9.08-18.18 19.12-30.55 24.57-11.94 5.25-24.43 7.44-36.75 2.69a58.27 58.27 0 01-20.34-13.73c-15.22-15.28-23.41-34.45-32.35-53.32-3.92-8.28-2.26-11.5 6.27-14.51a114.44 114.44 0 0016-7.29c8.66-4.57 17.56-8.03 27.88-8.03zm-16.86 62.09a7.23 7.23 0 00.54 2.35c6.35 9.7 14 18 24.63 23.2 7.64 3.78 15.72 5.32 22.84.56 8-5.38 15.14-12.24 22.3-18.85a8 8 0 002-6.69c-1.51-5.56-2.92-11.6-6.2-16.12a219.45 219.45 0 00-23.28-27.84c-9.14-9-21.83-12.06-33.81-9.83-9.57 1.79-18.3 8.2-27.3 12.78-.88.45-1.73 2.83-1.31 3.69 5.15 10.55 10.53 21 15.85 31.43z"></path>
    <path d="M133.08 185.79c-.72-3.57-1.69-7.1-2.11-10.7-.5-4.22.67-8.35 4.52-10.4 8.24-4.38 16-9.46 26-10.24 15.83-1.24 24.47 17.48 20.41 28.39-3.17 8.54-9.35 12.89-17.71 16-9.52 3.58-17.1 2.33-23.93-5a33.37 33.37 0 00-3.43-2.79z"></path>
  </symbol>
  <symbol xmlns="http://www.w3.org/2000/svg" viewBox="0 0 224.05 227.34" id="munch">
    <path d="M174.16 65.67c1.89 7.13 3.62 12.61 4.7 18.21.42 2.17.18 5.36-1.15 6.83-7.36 8.15-15.2 15.86-22.77 23.83-5.88 6.19-10.81 6.86-17.54 2-2.91-2.12-5.7-4.4-8.57-6.62 5.95-6.22 11.14-13.31 17.88-18.33 10.71-8 9.35-17.46 6-27.92-1.77-5.54-3.66-11.06-4.93-16.71-.37-1.65.79-4.14 2.06-5.46.73-.76 3.43-.49 4.67.26 12.38 7.45 24.61 15.15 36.93 22.68 5.54 3.38 11.53 6.12 16.72 9.95a143.23 143.23 0 0115.47 13.9c.74.74.41 3.8-.5 4.79-5.92 6.35-12.23 11.9-15.9 20.49-4.26 10-11.17 18.81-17 28.1-11.31 18.07-22.44 36.26-34.08 54.11-6.62 10.15-14 19.84-21.38 29.43-1.21 1.57-4.59 2.4-6.78 2.12-11.27-1.46-19.45-6.95-26.93-16.24-12.86-16-29.26-28.48-46.85-39.29-13.15-8.09-25.87-16.86-38.93-25.09-2.9-1.83-6.46-2.59-9.65-4-6.84-2.95-6.82-5.55-3.38-12.19C18 100.16 43.39 77.45 64.15 51.1 76.71 35.17 90 19.81 102.8 4.08c3.6-4.42 6.9-5.43 12.15-2.14 9 5.61 18.67 10.1 27.66 15.71 4.65 2.9 8.5 7.13 12.54 10.93 1.08 1 1.54 2.67 2.29 4-1.73.69-3.71 2.31-5.16 1.92A92.67 92.67 0 01136.4 29a41 41 0 01-10.06-7.26c-4.43-4.11-7.66-2.41-10.79 1.4-9.41 11.46-18.75 22.96-28.2 34.37C75.36 72 62.94 86.14 51.38 101c-8.67 11.06-16.38 23-24.23 34.64-.63.94 0 4.08.87 4.47 20.32 9.37 37.25 23.89 55.14 36.79 11.55 8.35 22.34 17.77 33.15 27.09 3.27 2.81 4.65 1.74 6.54-1q23.67-34.59 47.45-69.13c8-11.62 16.93-22.7 24.47-34.64 11.24-17.8 10.49-13-4.71-22.89-4.84-3.16-9.59-6.44-15.9-10.66z"></path>
    <path d="M37 133.09c.91-2.77 1-4.13 1.66-4.89 8-8.72 13.06-20 24.49-25.67 3.71-1.83 6.32-5.79 9.76-8.35 1-.76 3.44-.65 4.64 0C87 99.71 96.26 105.59 105.77 111c4.45 2.54 9.45 4.11 13.93 6.62 1.33.74 2.8 3.62 2.34 4.76-3.21 7.9-6.43 15.86-10.6 23.26-3.23 5.75-7.81 10.75-11.86 16s-10.94 6.38-16.72 2.9c-12.07-7.27-24.31-14.28-36.16-21.91-3.91-2.48-6.8-6.63-9.7-9.54zm57.56 13.62c1.47-1.56 2.91-3 4.28-4.54 3.07-3.4 3.94-6-1.81-7.68-3.09-.91-5.82-3.16-8.61-5-6.15-4-12.28-7.94-18.32-12.07-5.06-3.45-8 .38-10.32 3.46-2.91 3.83 1.62 4.5 3.65 5.86 8.7 5.8 17.49 11.48 26.26 17.18 1.31.94 2.83 1.67 4.84 2.79zm32.11-52.92c-7.44-4.75-14-8.88-20.52-13.15a17.29 17.29 0 01-4.87-4.22c-2.08-3-3.65-5.93 1.88-7.89 3-1 5.56-3.93 7.71-6.5 2.93-3.52 5.1-4.9 9.27-1.19 5.19 4.61 11.15 8.39 16.91 12.33 2.93 2 3 4.25 1.06 6.68-3.77 4.79-7.73 9.43-11.44 13.94zm13.86 42.46c-1.55 11.38-5.06 21-11.95 29.34a136 136 0 00-9.53 14c-1.55 2.45-3.33 5.1-6 2.33-2.21-2.28-5.27-7-4.38-8.5 6.17-10.26 10.9-21.58 20.29-29.72 2.7-2.34 4.42-5.79 6.77-8.56.77-.89 2.14-1.26 3.24-1.88z"></path>
  </symbol>
  <symbol xmlns="http://www.w3.org/2000/svg" viewBox="0 0 116.78 182.88" id="pretzel">
    <path d="M6 0c1.52 2.29 2.42 3.82 3.5 5.22 5.06 6.55 10 13.16 15.38 19.48.85 1 3.77 1.4 5 .73a61 61 0 008.74-6.51C49.16 10.14 60.84 3.66 74.4 1.06 95.89-3 118 15.84 116.73 37.57c-.68 12.07-3 23.79-11.73 33.19a3.87 3.87 0 00-.4 3.49 25.24 25.24 0 011.8 18.44c-3.75 14.71-9.33 28.63-20.18 39.56-11.34 11.42-25 16.72-41.35 13.16-4.19-.91-8.7-.44-12.83-1.51-4.33-1.13-8.38-3.35-13.37-5.43 2.74 9 3.36 18.53 11.45 25.06 1.29 1 2.82 3.49 2.41 4.62a95.08 95.08 0 01-6.36 13.42c-.5.88-3.08 1.65-3.85 1.15-2.71-1.77-6.09-3.62-7.38-6.32-8.4-17.51-11.62-36-8.52-55.31.24-1.47.73-3 .45-4.42-4.95-24.3.29-47.23 9.41-69.57 1.5-3.66 1.13-5.84-1.41-8.78-4.34-5-8-10.62-12-15.93C-3.1 14.41 1.33 7.83 6 0zm54.69 128.24C75.94 126 88.16 119.11 95.53 105a10.42 10.42 0 00.82-5.3c-.63-9.41-7.3-16.34-16.94-18.32-5.18-1.07-10.24-2.72-15.38-4a13.89 13.89 0 00-4.87-.64c-15.76 2-28.51 9.44-38.41 21.75-.94 1.18-1.45 3.7-.84 5a78.51 78.51 0 007.94 13.73c2.33 3 5.61 6.32 9.06 7.24 7.66 1.94 15.69 2.54 23.78 3.78zM75.05 21.4c-12.58.61-22.8 6.17-32.8 12.16-.55.33-.54 3.09.14 3.75 3 2.86 6.38 5.3 9.5 8 10.25 8.93 23 12.14 35.62 15.56 5.84 1.57 18.22-4.83 20.12-10.44a8.1 8.1 0 00-.31-4.33c-3.12-11.85-20.09-24.59-32.27-24.7zM41.18 63.17c-4.6-4.09-8.93-7.92-13.22-11.79-1.8-1.62-2.93-1.13-4.43.65-5 5.93-6.27 13.06-7 20.38-.47 4.49-.67 9-1 13.54 4.79-3.66 8.15-7.92 12-11.61 4.09-3.85 8.69-7.15 13.65-11.17z"></path>
  </symbol>
  <symbol xmlns="http://www.w3.org/2000/svg" viewBox="0 0 156.85 124" id="pyramid">
    <path d="M10.79 113.45c-1.79-1.45-4.32-2.63-5.2-4.53A81.38 81.38 0 010 93.13c-.38-1.66 2.19-4 3.48-6 3.17-4.86 6.16-9.81 9.52-14.51 11.44-16.07 23.3-31.85 34.39-48.16 4.12-6.07 7-13.14 9.53-20.08C58.06 1.25 59.79-.14 62.34 0a8.34 8.34 0 015.49 3c9.28 12.44 18.49 24.89 31.37 34 6.4 4.51 12.64 9.26 19.27 13.39a56 56 0 0026.46 8.11c3.13.2 4.11 1.28 4.57 4.43a19 19 0 003.72 8.39c4.85 6.28 4.87 6.29-.12 11.85-10.22 11.39-20.92 22.45-30.13 34.63-5.33 7-11.21 6.61-18.17 5.77Q67.42 119 30 114.63c-6.1-.72-12.19-1.47-18.28-2.2zm81.08-12c-3-6.32-5.89-11.23-7.64-16.53-5.51-16.78-10.55-33.67-15.85-50.48-.8-2.55-2-5-3.06-7.43-1.51 2.27-3.07 4.51-4.51 6.83-11.14 17.95-22.22 36-33.41 53.87-3.16 5.07-3.19 5.2 2.85 5.94.83.1 1.66.11 2.49.21 11.88 1.32 23.77 2.53 35.63 4 7.54.94 15.03 2.26 23.5 3.55zM76 29.68c5.39 16.07 10.22 31.05 15.46 45.89 2.86 8.12 6.4 16 9.67 24 .47 1.16 1.13 2.24 1.71 3.36 1.21-.68 2.69-1.11 3.58-2.09 7.08-7.72 14-15.58 21.06-23.32 1.84-2 2.27-3.2-.69-4.72-15.55-8-28.91-18.86-40.92-31.45-3.33-3.45-6.21-7.26-9.87-11.67z"></path>
  </symbol>
  <symbol xmlns="http://www.w3.org/2000/svg" viewBox="0 0 213.4 210.97" id="sitting">
    <path d="M79.31 14.57c-.21-1.86-1-4.29-.59-6.46.53-2.62 1.49-6.06 3.42-7.23S88-.23 90.3.9A28.41 28.41 0 0199 8.19c7.3 8.82 15 17.47 21.12 27.09 5.32 8.28 8.88 17.72 12.82 26.79C139.13 76.24 145 90.55 151 104.8a23.67 23.67 0 011 2.82c2.82 10.57 2.58 9.4 13.43 7.17 12.8-2.63 19.37-11.13 25.13-21.21 2.38-4.17 3.85-8.9 6.49-12.88a11.15 11.15 0 016.75-4.43c3.71-.59 4.69 2.67 5.25 5.87.48 2.72.86 5.68 2.21 8 4.11 7 1 14.14.4 21-1.31 14.81-3.62 29.54-5.83 44.26-.2 1.33-2.5 2.89-4.1 3.36-15.63 4.56-31.63 8-46.9 13.54-20.3 7.33-40 16.33-60 24.36-11.66 4.68-23.54 8.82-35.28 13.32-6 2.3-10.73.37-14.65-4.09-5.47-6.25-10.69-12.72-16.1-19-5.59-6.52-11.34-12.92-16.88-19.48-1.5-1.78-3.93-4.37-3.48-5.86 1-3.47 2.43-7.38 7.38-7.89 10.09-1.06 20.12-2.74 30.22-3.54 4.68-.37 6.53-1.38 4.65-6.19C42.93 124.1 35.88 104 27.35 84.52c-5.78-13.18-13.71-25.4-20.46-38.17A128.52 128.52 0 01.14 31c-.48-1.27.36-4.17 1.34-4.6C4 25.27 7.34 24 9.49 24.89 17 28 24.1 32.12 31.45 35.64a9.47 9.47 0 005.54 1c10.75-2.16 21.35-5.32 32.18-6.74 7.32-.95 10.3-3.87 9.92-10.9-.09-1.29.12-2.63.22-4.43zM40 173.5c-.23.64-.46 1.28-.68 1.92 1.57 2.43 3.23 4.82 4.71 7.32 3 5 7 6.68 12.6 4.61 10.29-3.82 20.76-7.21 30.92-11.35 32.83-13.37 64.9-28.69 99.64-36.94 2-.48 3.34-3.67 5-5.59-2.3-.13-4.76-.84-6.89-.28-8.17 2.12-16.27 4.55-24.33 7.06-5.33 1.67-10.63 3.46-15.78 5.59-3.91 1.62-6.65 1.35-8.46-2.85-1.57-3.64-2.94-7.47-5.13-10.72-3.24-4.79-2.22-7.69 3-9.42 4.58-1.52 5.76-4.25 4-8.77-7.6-19.84-13.71-40.32-25.45-58.37-1.51-2.32-2.32-5.12-3.28-7.76-2.81-7.77-7.72-14-14.87-20.72 0 6.38-.24 11.15.08 15.89.27 4.14-1 5.61-5.35 6.36-14.2 2.46-28.38 5.21-42.35 8.74-5.81 1.47-10.81 3.29-15.58-1.79-.76-.81-2.21-1-4.37-1.87.72 2.24 1 3.46 1.49 4.58C41.67 88.61 54.56 118 67.11 147.57c2.44 5.75 3.67 12 5.24 18.13.51 2 1.25 5.16.27 6.11-1.42 1.36-4.31 1.58-6.59 1.62-8.68.17-17.36.07-26.03.07z"></path>
    <path d="M97.28 65c1.17 1.33 4.09 3.11 4.57 5.4 2.4 11.36 4.79 22.79 5.84 34.31.43 4.68-2.56 9.67-4 14.52-2.28-1-5.66-1.47-6.62-3.23a42.33 42.33 0 01-4.3-12.63c-2-10.76-3.66-21.57-5-32.42-.7-5.8 4.23-5.3 9.51-5.95zM77.65 96.18c-1.11 6.88-1.93 12.36-3 17.78-.07.37-3 .8-3.21.4-2.88-4.88-6.17-9.67-8-15s-1.9-11.11-3.24-16.58c-.92-3.75.24-5.81 3.71-6.72 4-1.07 8.65-1.61 10.22 3.13 1.93 5.99 2.6 12.36 3.52 16.99z"></path>
  </symbol>
  <symbol xmlns="http://www.w3.org/2000/svg" viewBox="0 0 181.46 306.32" id="skinnyboi">
    <path d="M178.27 174.11c-6.08 7.94-7.08 17-17.25 17.19-.59 0-1.15 1.57-1.73 2.42 1.09.45 2.22 1.36 3.28 1.28 5.25-.39 10.49-1.23 15.75-1.42 1.06 0 3.34 2.69 3.13 3-3.6 6.41-6.08 14-15 15.39-.77.12-2 3-1.61 4.12 4.19 11.49 8.84 22.82 12.93 34.36.82 2.33.74 5.94-.54 7.92-9.61 14.85-72.33 38.15-87.33 40.59a17.05 17.05 0 00-9.34 4.76c-3.94 4.36-7.29 2.42-9.54-.57-1.65-2.19-2.79-7-1.53-8.78 7.52-10.92 15.94-21.22 23.72-32 1.52-2.1 2.84-5.74 2.07-7.89-16-44.48-16.18-91.08-18.57-137.4-.3-5.75-1.7-7.81-7.73-7.35a176 176 0 00-60.1 15.1c-1.79.81-5.86-1-7.45-2.82-1.39-1.6-1.95-5.7-.85-7.4 8-12.36 17.35-23.9 24.27-36.78 2.8-5.22 1-13.19.48-19.84-.78-10.27-2.42-20.48-3.22-30.74-.12-1.56 2-3.8 3.62-4.9 17.05-11.52 36.78-2.59 54.67-7 15.51-3.83 30.58-9.41 45.9-14 2.83-.85 5.91-.88 8.87-1.29a56.15 56.15 0 00-.51 6.94 59.65 59.65 0 001.1 8.84c1.51 7.48 3.35 14.89 4.75 22.39 1 5.25 3 8.62 9.11 8.86 2.68.11 5.28 2.29 7.93 3.53-2.52 2.33-4.92 4.8-7.6 6.92-.89.71-2.48.55-4 .84.22 2 .5 3.78.59 5.56.26 5.44 1.37 9.2 8.23 6 1.62-.76 4.25.64 6.41 1-1.42 2.33-2.4 6.14-4.32 6.7-6 1.76-6.67 5.43-6.36 10.79 1.5 26.39 2.86 52.79 3.88 79.21.2 5.35 3.17 5.25 6.77 5.43 4.94.22 9.85.58 17.12 1.04zM155.8 261.5c-15.58-41.3-18.42-70.88-20.43-119.42-1.18-28.48-5.29-56.89-9-85.2-1.7-13-5.62-25.76-8.57-38.79-9.18 3.31-17.08 7.53-25.43 8.85-14.58 2.3-29.44 2.71-44.15 4.22-1.38.14-3.68 2.58-3.6 3.83A99.12 99.12 0 0047 52.26C50 64.55 49 75 38.44 84 33 88.65 29.86 96 25 103c11.36-3.11 20.69-6.3 30.28-8.13C68 92.45 80.82 91 93.62 89.46c1-.12 3.18 2.34 3.22 3.66.16 5.88-.53 11.88-.34 17.75 1.52 44.85.84 90 19 132.51 2.87 6.72 1.57 12.75-3.41 18.31-4 4.51-7.5 9.54-12.79 16.38z"></path>
    <path d="M66.9 68.86A76.63 76.63 0 0161.23 60c-.17-.36 3-2.54 4.82-3.65q4.1-2.56 8.39-4.78c2-1 4.63-2.92 6.25-2.35a7.17 7.17 0 013.85 5.55c0 1.84-2.31 4-4.13 5.38-3.97 2.92-8.27 5.39-13.51 8.71z"></path>
  </symbol>
</svg>